<svg id="Layer_1" xmlns="http://www.w3.org/2000/svg" xmlns:xlink="http://www.w3.org/1999/xlink" viewBox="0 0 283.5 484"><style>.st0,.st1{clip-path:url(#SVGID_2_);fill:#fff}.st1{clip-path:url(#SVGID_4_)}.st2,.st3{clip-path:url(#SVGID_6_);fill:#fff}.st3{clip-path:url(#SVGID_8_)}.st4,.st5{clip-path:url(#SVGID_10_);fill:#fff}.st5{clip-path:url(#SVGID_12_)}</style><defs><path id="SVGID_1_" d="M6.9 5.6h268.9V477H6.9z"/></defs><clipPath id="SVGID_2_"><use xlink:href="#SVGID_1_" overflow="visible"/></clipPath><path class="st0" d="M242.8 451.8c-3 8.4-11.1 14.1-20.1 14.1H59.8c-9 0-17.1-5.7-20.1-14.1-14.4-40-21.9-87-21.9-135.6 0-84.4 36.6-165.2 82.9-196.6h81.1c46.3 31.4 82.9 112.1 82.9 196.6-.1 48.6-7.6 95.6-21.9 135.6M98.7 107.5V90.2c0-2.9 2.7-5.7 5.6-5.7h73.9c2.9 0 5.6 2.9 5.6 5.7v18.3H98.5l.2-1zm11.2-48.3c0-.2.1-.3.3-.3H172.5c.2 0 .3.1.3.3v14.4h-62.9V59.2zm7.4-39.6c0-1.6 1.4-3 3-3h42.1c1.6 0 3 1.4 3 3v28.2h-48l-.1-28.2zm119.6 146.6c-12.5-21.9-26.9-39-42.2-51.1.1-.3.1-.7.1-1V90.2c0-7-4.8-13.2-11.1-15.6V59.2c0-4.9-3.1-9-7.4-10.6v-29c0-7.8-6.3-14-14-14h-42.1c-7.8 0-14 6.3-14 14v29c-4.3 1.6-7.4 5.7-7.4 10.6v15.4c-6.3 2.4-11.1 8.7-11.1 15.6V114c0 .3 0 .7.1 1-15.4 12-29.6 29.2-42.2 51.1C21 209 6.9 263.8 6.9 316.2c0 49.9 7.8 98.1 22.5 139.3 4.6 12.9 16.9 21.6 30.6 21.6h162.9c13.7 0 25.9-8.7 30.6-21.6 14.7-41.3 22.5-89.4 22.5-139.3-.3-52.4-14.5-107.1-39.1-150"/><defs><path id="SVGID_3_" d="M6.9 5.6h268.9V477H6.9z"/></defs><clipPath id="SVGID_4_"><use xlink:href="#SVGID_3_" overflow="visible"/></clipPath><path class="st1" d="M170.9 211.8c4.9-12.8 12-20.5 19.6-21.1h1c7.3 0 15.2 6.3 21.9 17.6 7.9 13.1 13.1 31.1 14.8 50.7s-.3 38.3-5.8 52.6c-4.9 12.8-12 20.5-19.6 21.1-7.5.7-16-5.7-22.9-17.4-7.9-13.1-13.1-31.1-14.8-50.7-1.8-19.9.3-38.5 5.8-52.8m-.5 109c8.9 14.8 19.8 22.9 31.2 22.9.7 0 1.4 0 2.1-.1 12.1-1 22.3-11.1 29-28.2 6-15.9 8.3-36.3 6.5-57.5-1.8-21.2-7.6-40.9-16.3-55.5-9.4-15.7-21.2-23.8-33.4-22.8-12.1 1-22.3 11.1-29 28.2-6 15.9-8.3 36.3-6.5 57.5 1.9 21.3 7.6 41 16.4 55.5"/><g><defs><path id="SVGID_5_" d="M6.9 5.6h268.9V477H6.9z"/></defs><clipPath id="SVGID_6_"><use xlink:href="#SVGID_5_" overflow="visible"/></clipPath><path class="st2" d="M230.5 397.9c-1 5-1.6 8.6-2.2 11.4-1 6-1.5 8.3-3.5 14-2.7 7.8-10 12.9-18.2 12.9H84.2c-8.7 0-16.3-5.8-18.6-14.3-9-32.2-13.8-68.8-13.8-105.8 0-103.7 61.5-133.1 85.2-135.7h.3c1 0 1.6.6 1.9 1 .2.3.9 1.4.2 2.9-21.4 43.9-20.1 102.3 3.4 145.3 17.2 31.5 44.9 51 78 54.8 3.1.3 5.9 1.9 7.8 4.6 1.8 2.5 2.5 5.8 1.9 8.9m-8.7-22.6c-38.4-4.4-59.8-29.8-70.9-50.2-21.8-39.9-23.1-96.1-3.2-136.8 1.9-3.9 1.6-8.6-.9-12.1s-6.5-5.4-10.7-4.9c-26 2.9-93.4 34.4-93.4 144.8 0 38 4.9 75.4 14.1 108.3 3.4 12.3 14.8 21 27.5 21h122.4c12.1 0 22.9-7.6 26.9-19 2.3-6.5 2.7-9.4 3.9-15.5.5-2.7 1.1-6.3 2.1-11.2 1.1-5.6-.2-11.5-3.5-16.2-3.5-4.6-8.7-7.5-14.3-8.2"/></g><g><defs><path id="SVGID_7_" d="M6.9 5.6h268.9V477H6.9z"/></defs><clipPath id="SVGID_8_"><use xlink:href="#SVGID_7_" overflow="visible"/></clipPath><path class="st3" d="M81.7 352.3l-1.6.2.1.6c1.4 13.7 12.3 24.4 25.7 25.1h6.1l-11.2-8.3c-.5-.3-.7-.8-.7-1.4 0-.3.1-.7.3-1 .6-.8 1.6-.9 2.4-.3l11.1 8.2-1.4-4.3c-.8-2.6-2.1-5-3.5-7.3-6-8.8-16.6-13.3-27.3-11.5m57 27.5c0 .9-.8 1.7-1.7 1.7h-14.7l3.8 2.7c3.6 2.6 8 4.4 12.4 5.2 8 1.4 16.5-1.1 22.8-6.8l3.2-2.9-3.2-2.9c-6.3-5.7-14.8-8.2-22.8-6.8-4.4.8-8.8 2.6-12.4 5.2l-3.8 2.7H137c.9.2 1.7 1 1.7 1.9m-31.5 1.8h-1.4c-13.3.6-24.4 11.4-25.7 25.1l-.1.6 1.6.2c10.7 1.7 21.3-2.7 27.3-11.4 1.5-2.3 2.7-4.8 3.5-7.3l1.4-4.3-11.1 8.2c-.8.6-1.8.5-2.4-.3-.2-.3-.3-.7-.3-1 0-.6.2-1 .7-1.4l11.2-8.3-4.7-.1zm22.9 41.6l2.2 1 1.5-3.5c3-6.8 3-14.6.2-21.1-2.1-5-5.6-9.4-9.9-12.5l-3.6-2.6 4.6 13.3c.3.9-.1 1.8-1 2.2-.9.3-1.8-.1-2.2-1l-4.7-13.7-1.5 4.6c-.6 1.7-1 3.5-1.3 5.4-1.5 11.3 4.8 22.6 15.7 27.9m3.9-63c2.7-6.5 2.6-14.1-.2-21.1l-1.5-3.5-2.2 1c-10.8 5.2-17.1 16.4-15.6 28.1.2 1.8.7 3.6 1.3 5.4l1.5 4.6L122 361c.3-.9 1.3-1.4 2.2-1 .9.3 1.4 1.3 1 2.2l-4.6 13.3 3.6-2.6c4.3-3.4 7.7-7.8 9.8-12.7m-23.1.5c.2-11.4 7-21.9 17.7-27.1l3.8-1.8c.5-.2.9-.2 1.4-.1.5.1.8.5.9.9l2.2 5.2c3.3 7.8 3.4 16.3.2 23.7-.9 2.3-2.2 4.4-3.6 6.5 1.5-.5 3-.8 4.4-1.1 9-1.6 18.6 1.3 25.7 7.6l4.6 4.1c.7.7.7 1.8 0 2.5l-4.6 4.1c-7.1 6.4-16.6 9.2-25.7 7.6-1.5-.2-3-.7-4.4-1.1 1.5 2.1 2.6 4.2 3.6 6.5 3.1 7.3 3 16-.2 23.7l-2.2 5.2c-.2.5-.6.8-.9.9-.5.1-.9.1-1.4-.1l-3.8-1.8c-10.7-5.1-17.4-15.7-17.7-27.1-6.7 9-18.2 13.7-29.8 11.7l-3.1-.5c-.8-.1-1.4-.8-1.4-1.7v-.1l.2-2.2c1.1-12.3 9.5-22.6 20.5-26.5-11.1-3.9-19.3-14.1-20.5-26.5l-.2-2.2v-.1c0-.8.6-1.5 1.4-1.7l3.1-.5c11.6-1.7 23.1 3 29.8 12"/></g><g><defs><path id="SVGID_9_" d="M6.9 5.6h268.9V477H6.9z"/></defs><clipPath id="SVGID_10_"><use xlink:href="#SVGID_9_" overflow="visible"/></clipPath><path class="st4" d="M100.1 321.5l2.5 5.2 4.2-4.2c.3-.3.9-.3 1.3 0 .3.3.3.9 0 1.3l-4.2 4.2 5.2 2.5c.5.2.6.7.3 1.1-.2.5-.7.6-1.1.3l-5.2-2.6-.8 5.6c-.1.5-.5.8-1 .7-.5-.1-.7-.5-.7-.8v-.1l.8-5.7-5.7.8c-.5.1-.9-.2-1-.7v-.1c0-.5.3-.8.7-.8l5.6-.8-2.6-5.2c-.1-.1-.1-.2-.1-.3 0-.3.2-.7.5-.8.6-.2 1.1-.1 1.3.4"/></g><g><defs><path id="SVGID_11_" d="M6.9 5.6h268.9V477H6.9z"/></defs><clipPath id="SVGID_12_"><use xlink:href="#SVGID_11_" overflow="visible"/></clipPath><path class="st5" d="M94.1 313.6c-.5 1.1-.6 2.4-.6 3.5 0 3.2 1.4 6.3 4 8.2.6.5 1.1.8 1.8 1.1-.9-.5-1.9-.8-3-1-4-.8-8.1.9-10.5 4.2l-.7.9.6.5c4 3.3 9.9 3.3 13.7-.2l.3-.3-.3.3c-1.8 1.9-2.6 4.4-2.6 7 0 2.4.8 4.9 2.5 6.8l.5.6.9-.7c2.7-2.1 4.4-5.2 4.4-8.6 0-.7-.1-1.3-.2-1.9-.2-1-.6-2.1-1-3 .3.7.7 1.3 1.1 1.8 2.7 3.5 7.5 4.9 11.7 3.4l1.4-.5-.8-1.9c-1-2.6-3.1-4.7-5.6-5.8-1.9-.8-4-1-6-.7 1.7-.2 3.4-.9 4.8-1.9 2.6-1.8 4.1-4.8 4.3-8l.1-2.2-2.2.1c-3.2.1-6.2 1.7-8 4.3-1 1.4-1.7 3-1.9 4.8.1-.6.1-1.1.1-1.8 0-1.5-.3-3-.8-4.3-1-2.6-3.2-4.6-5.8-5.6l-1.9-.8-.3 1.7zm1.4-3.4l1.9.8c3.1 1.3 5.5 3.5 6.8 6.4 2.2-2.3 5.4-3.8 8.7-4l2.2-.1c.7 0 1.3.2 1.7.7.5.5.7 1 .7 1.6v.1l-.1 2.2c-.2 3.3-1.6 6.5-4 8.7 2.9 1.4 5.1 3.8 6.4 6.8l.8 1.9c.1.2.1.6.1.8 0 .3-.1.7-.2.9-.2.6-.7 1-1.3 1.3l-1.4.5c-3.5 1.3-7.2.9-10.3-.7-.5 3.4-2.4 6.6-5.2 8.7l-.9.7c-.9.7-2.3.6-3.1-.3l-.5-.6c-1.9-2.3-3-5.2-3-8.3 0-.8.1-1.5.2-2.3-3.6.7-7.5-.2-10.5-2.7l-.6-.5c-.6-.5-.8-1.1-.8-1.7 0-.5.1-.9.5-1.4l.7-.9c2.2-3 5.2-4.8 8.7-5.2-.9-1.8-1.5-3.9-1.5-6 0-1.5.2-3 .7-4.3l.5-1.4c.2-.6.7-1 1.1-1.3.4-.7 1.1-.8 1.7-.4"/></g></svg>