<svg xmlns="http://www.w3.org/2000/svg" xmlns:xlink="http://www.w3.org/1999/xlink" width="283.464" height="425.197" viewBox="0 0 283.464 425.197"><defs><path id="a" d="M9.092 19.775h264.02v384.879H9.092z"/></defs><clipPath id="b"><use xlink:href="#a" overflow="visible"/></clipPath><g clip-path="url(#b)"><defs><path id="c" d="M9.092 19.775h264.02v384.879H9.092z"/></defs><clipPath id="d"><use xlink:href="#c" overflow="visible"/></clipPath><g opacity=".5" clip-path="url(#d)"><defs><path id="e" d="M-7.908 18.775h298.02v386.879H-7.908z"/></defs><clipPath id="f"><use xlink:href="#e" overflow="visible"/></clipPath><path clip-path="url(#f)" fill="#FFF" d="M117.926 140.39c11.285 0 20.433-9.125 20.433-20.38 0-11.256-9.148-20.381-20.433-20.381s-20.433 9.125-20.433 20.381c0 11.255 9.148 20.38 20.433 20.38M147.105 110.023a4.944 4.944 0 0 0 4.944-4.941 4.944 4.944 0 0 0-9.888 0 4.943 4.943 0 0 0 4.944 4.941M170.665 124.894c6.051 0 10.955-4.914 10.955-10.976s-4.904-10.975-10.955-10.975c-6.052 0-10.957 4.913-10.957 10.975s4.905 10.976 10.957 10.976M192.336 149.583c4.445 0 8.049-3.607 8.049-8.058s-3.604-8.058-8.049-8.058-8.048 3.607-8.048 8.058 3.603 8.058 8.048 8.058M162.176 151.941c2.779 0 5.031-2.325 5.031-5.192 0-2.868-2.252-5.193-5.031-5.193s-5.031 2.325-5.031 5.193c0 2.867 2.252 5.192 5.031 5.192M83.118 165.416c6.251 0 11.319-4.986 11.319-11.139s-5.068-11.14-11.319-11.14-11.319 4.986-11.319 11.14c0 6.152 5.068 11.139 11.319 11.139M209.899 162.834c2.791 0 5.053-2.298 5.053-5.132 0-2.832-2.262-5.13-5.053-5.13-2.789 0-5.051 2.298-5.051 5.13 0 2.835 2.262 5.132 5.051 5.132M141.928 170.792c4.721 0 8.547-3.683 8.547-8.227s-3.826-8.228-8.547-8.228-8.548 3.684-8.548 8.228 3.827 8.227 8.548 8.227M109.518 176.971c4.663 0 8.444-3.691 8.444-8.244 0-4.554-3.781-8.245-8.444-8.245s-8.444 3.691-8.444 8.245c0 4.553 3.781 8.244 8.444 8.244M181.801 179.032c2.934 0 5.312-2.292 5.312-5.12 0-2.826-2.378-5.119-5.312-5.119-2.933 0-5.311 2.293-5.311 5.119.001 2.828 2.379 5.12 5.311 5.12M162.122 182.481c2.938 0 5.318-2.44 5.318-5.45 0-3.011-2.381-5.451-5.318-5.451s-5.317 2.44-5.317 5.451c-.001 3.01 2.38 5.45 5.317 5.45M56.36 188.969c4.372 0 7.916-3.354 7.916-7.491s-3.544-7.49-7.916-7.49-7.916 3.354-7.916 7.49c0 4.138 3.544 7.491 7.916 7.491M231.733 187.486c2.821 0 5.107-2.256 5.107-5.039 0-2.782-2.286-5.039-5.107-5.039-2.82 0-5.107 2.257-5.107 5.039-.001 2.783 2.287 5.039 5.107 5.039M203.704 200.001c6.157 0 11.148-4.982 11.148-11.129 0-6.146-4.991-11.129-11.148-11.129-6.156 0-11.148 4.983-11.148 11.129-.001 6.147 4.991 11.129 11.148 11.129M132.491 251.221c19.92 0 36.068-16.118 36.068-36 0-19.883-16.148-36.001-36.068-36.001s-36.069 16.118-36.069 36.001c-.001 19.882 16.149 36 36.069 36M88.5 193.052c3.062 0 5.544-2.405 5.544-5.371 0-2.967-2.482-5.372-5.544-5.372s-5.544 2.405-5.544 5.372c.001 2.966 2.482 5.371 5.544 5.371M238.595 226.081c9.149 0 16.565-7.354 16.565-16.426s-7.416-16.426-16.565-16.426-16.565 7.354-16.565 16.426 7.416 16.426 16.565 16.426M38.076 222.315c6.2 0 11.226-5.026 11.226-11.225 0-6.2-5.026-11.227-11.226-11.227-6.2 0-11.226 5.026-11.226 11.227 0 6.199 5.025 11.225 11.226 11.225M181.802 218.788c4.72 0 8.546-3.829 8.546-8.551 0-4.723-3.826-8.552-8.546-8.552s-8.546 3.829-8.546 8.552c0 4.721 3.827 8.551 8.546 8.551M80.308 223.29c4.709 0 8.526-3.669 8.526-8.195s-3.817-8.195-8.526-8.195-8.526 3.669-8.526 8.195 3.817 8.195 8.526 8.195M203.672 253.634c10.285 0 18.621-8.238 18.621-18.401 0-10.162-8.336-18.399-18.621-18.399-10.282 0-18.619 8.237-18.619 18.399 0 10.163 8.337 18.401 18.619 18.401M53.366 246.523c4.676 0 8.467-3.73 8.467-8.331 0-4.6-3.791-8.33-8.467-8.33s-8.467 3.73-8.467 8.33 3.791 8.331 8.467 8.331M261.257 247.656c4.664 0 8.444-3.671 8.444-8.199 0-4.527-3.78-8.198-8.444-8.198s-8.444 3.671-8.444 8.198c0 4.528 3.78 8.199 8.444 8.199M19.584 245.008c2.948 0 5.338-2.481 5.338-5.544 0-3.062-2.39-5.544-5.338-5.544s-5.338 2.482-5.338 5.544c0 3.063 2.39 5.544 5.338 5.544M83.142 259.27c6.243 0 11.305-5.003 11.305-11.175 0-6.173-5.062-11.176-11.305-11.176-6.243 0-11.305 5.003-11.305 11.176 0 6.172 5.062 11.175 11.305 11.175M173.018 249.675c3.051 0 5.524-2.359 5.524-5.27s-2.474-5.269-5.524-5.269c-3.052 0-5.525 2.358-5.525 5.269s2.473 5.27 5.525 5.27M237.401 255.193c2.804 0 5.076-2.382 5.076-5.318 0-2.938-2.272-5.32-5.076-5.32-2.805 0-5.077 2.382-5.077 5.32 0 2.936 2.272 5.318 5.077 5.318M114.004 279.84c6.272 0 11.357-5.1 11.357-11.392s-5.085-11.392-11.357-11.392-11.357 5.1-11.357 11.392 5.085 11.392 11.357 11.392M147.12 268.389c3.047 0 5.516-2.409 5.516-5.382 0-2.971-2.469-5.38-5.516-5.38s-5.516 2.409-5.516 5.38c0 2.973 2.469 5.382 5.516 5.382M180.331 285.071c6.172 0 11.176-4.943 11.176-11.043 0-6.099-5.004-11.043-11.176-11.043-6.173 0-11.177 4.944-11.177 11.043 0 6.099 5.004 11.043 11.177 11.043M218.225 279.201c4.674 0 8.463-3.662 8.463-8.179 0-4.519-3.789-8.18-8.463-8.18s-8.463 3.661-8.463 8.18c0 4.517 3.789 8.179 8.463 8.179M26.299 297.883c9.503 0 17.207-7.651 17.207-17.088 0-9.438-7.704-17.089-17.207-17.089s-17.207 7.65-17.207 17.089c0 9.437 7.704 17.088 17.207 17.088M53.596 276.372c3.035 0 5.496-2.341 5.496-5.23 0-2.888-2.461-5.229-5.496-5.229-3.035 0-5.496 2.341-5.496 5.229 0 2.889 2.461 5.23 5.496 5.23M262.18 290.558c6.037 0 10.932-5.032 10.932-11.24 0-6.207-4.895-11.24-10.932-11.24s-10.931 5.033-10.931 11.24c.001 6.208 4.894 11.24 10.931 11.24M85.502 282.431c3.06 0 5.541-2.393 5.541-5.345s-2.481-5.346-5.541-5.346-5.541 2.394-5.541 5.346 2.481 5.345 5.541 5.345M148.442 328.248c13.151 0 23.813-10.58 23.813-23.632s-10.662-23.632-23.813-23.632c-13.151 0-23.813 10.58-23.813 23.632s10.662 23.632 23.813 23.632M69.056 295.81c2.938 0 5.32-2.425 5.32-5.416 0-2.992-2.382-5.417-5.32-5.417s-5.32 2.425-5.32 5.417c-.001 2.991 2.382 5.416 5.32 5.416M240.221 295.583c3.08 0 5.576-2.309 5.576-5.155s-2.496-5.154-5.576-5.154-5.577 2.309-5.577 5.154c0 2.846 2.497 5.155 5.577 5.155M89.063 306.271c2.939 0 5.321-2.373 5.321-5.3 0-2.928-2.382-5.301-5.321-5.301s-5.321 2.373-5.321 5.301c0 2.927 2.382 5.3 5.321 5.3M62.002 326.065c6.192 0 11.211-5.028 11.211-11.231s-5.019-11.232-11.211-11.232-11.211 5.029-11.211 11.232 5.019 11.231 11.211 11.231M251.078 334.169c7.905 0 14.313-6.359 14.313-14.205 0-7.845-6.408-14.204-14.313-14.204s-14.313 6.359-14.313 14.204c-.001 7.846 6.407 14.205 14.313 14.205M111.106 326.059c4.586 0 8.304-3.752 8.304-8.381s-3.718-8.381-8.304-8.381-8.304 3.752-8.304 8.381 3.719 8.381 8.304 8.381M29.442 336.504c4.595 0 8.32-3.776 8.32-8.435 0-4.657-3.725-8.434-8.32-8.434-4.595 0-8.32 3.776-8.32 8.434 0 4.659 3.725 8.435 8.32 8.435M88.326 391.453c17.634 0 31.93-14.347 31.93-32.044 0-17.698-14.296-32.045-31.93-32.045s-31.93 14.347-31.93 32.045c0 17.697 14.296 32.044 31.93 32.044M167.768 349.162c4.691 0 8.494-3.645 8.494-8.142s-3.803-8.142-8.494-8.142-8.494 3.645-8.494 8.142 3.803 8.142 8.494 8.142M224.048 350.931c4.681 0 8.474-3.69 8.474-8.242s-3.793-8.242-8.474-8.242c-4.68 0-8.474 3.69-8.474 8.242s3.795 8.242 8.474 8.242M194.95 365.308c6.19 0 11.209-5.054 11.209-11.289 0-6.234-5.019-11.289-11.209-11.289-6.189 0-11.209 5.055-11.209 11.289 0 6.235 5.019 11.289 11.209 11.289M133.688 355.958c2.948 0 5.339-2.348 5.339-5.242 0-2.896-2.391-5.243-5.339-5.243s-5.339 2.347-5.339 5.243c0 2.895 2.391 5.242 5.339 5.242M156.825 404.654c11.31 0 20.478-9.109 20.478-20.345 0-11.237-9.168-20.347-20.478-20.347-11.311 0-20.479 9.109-20.479 20.347 0 11.235 9.168 20.345 20.479 20.345M221.893 379.269c2.862 0 5.184-2.397 5.184-5.355s-2.321-5.355-5.184-5.355-5.185 2.397-5.185 5.355 2.322 5.355 5.185 5.355M197.629 392.372c4.747 0 8.595-3.62 8.595-8.085s-3.848-8.085-8.595-8.085-8.596 3.62-8.596 8.085 3.849 8.085 8.596 8.085M119.569 404.294c4.762 0 8.622-3.886 8.622-8.68s-3.86-8.68-8.622-8.68c-4.762 0-8.622 3.886-8.622 8.68s3.86 8.68 8.622 8.68"/><path clip-path="url(#f)" fill="#FFF" d="M22.729 241.927c.41 0 .742-.191.742-.429 0-.235-.332-.428-.742-.428s-.742.192-.742.428c0 .238.332.429.742.429M216.379 302.878c.283 0 .513-.192.513-.431s-.229-.431-.513-.431c-.282 0-.512.192-.512.431s.23.431.512.431"/><path clip-path="url(#f)" fill="#FFF" d="M207.546 327.979c9.222 0 16.696-7.47 16.696-16.686 0-9.215-7.475-16.685-16.696-16.685-9.221 0-16.696 7.47-16.696 16.685 0 9.216 7.476 16.686 16.696 16.686M140.116 74.036c2.022 0 3.66-1.53 3.66-3.42 0-1.889-1.638-3.42-3.66-3.42s-3.66 1.531-3.66 3.42 1.638 3.42 3.66 3.42M141.929 26.614c2.022 0 3.66-1.53 3.66-3.42 0-1.889-1.638-3.42-3.66-3.42-2.022 0-3.66 1.531-3.66 3.42s1.637 3.42 3.66 3.42M123.404 81.512c2.735 0 4.953-2.146 4.953-4.795 0-2.647-2.218-4.795-4.953-4.795s-4.953 2.147-4.953 4.795c0 2.649 2.218 4.795 4.953 4.795M159.463 90.919c4.463 0 8.08-3.573 8.08-7.983 0-4.409-3.617-7.984-8.08-7.984-4.461 0-8.078 3.575-8.078 7.984 0 4.41 3.617 7.983 8.078 7.983M142.353 57.651c6.051 0 10.956-4.914 10.956-10.976S148.404 35.7 142.353 35.7c-6.051 0-10.956 4.913-10.956 10.975s4.905 10.976 10.956 10.976"/></g></g></svg>