<svg id="Layer_1" xmlns="http://www.w3.org/2000/svg" xmlns:xlink="http://www.w3.org/1999/xlink" viewBox="0 0 176 87.9"><style>.st0{fill:#1399bc}.st1{clip-path:url(#SVGID_2_);fill:url(#SVGID_3_)}.st2{clip-path:url(#SVGID_5_);fill:#fff}.st3{clip-path:url(#SVGID_7_);fill:none;stroke:#fff;stroke-width:.75;stroke-linecap:round;stroke-linejoin:round;stroke-miterlimit:10}.st4{clip-path:url(#SVGID_9_);fill:#fff}.st5{clip-path:url(#SVGID_11_);fill:none;stroke:#fff;stroke-width:.75;stroke-linecap:round;stroke-linejoin:round;stroke-miterlimit:10}.st6{clip-path:url(#SVGID_13_);fill:#fff}.st7{clip-path:url(#SVGID_15_);fill:none;stroke:#fff;stroke-width:.75;stroke-linecap:round;stroke-linejoin:round;stroke-miterlimit:10}.st8{clip-path:url(#SVGID_17_);fill:#fff}.st9{clip-path:url(#SVGID_19_);fill:none;stroke:#fff;stroke-width:.75;stroke-linecap:round;stroke-linejoin:round;stroke-miterlimit:10}.st10{clip-path:url(#SVGID_21_);fill:#fff}.st11{clip-path:url(#SVGID_23_);fill:none;stroke:#fff;stroke-width:.75;stroke-linecap:round;stroke-linejoin:round;stroke-miterlimit:10}.st12{clip-path:url(#SVGID_25_);fill:#fff}.st13{clip-path:url(#SVGID_27_);fill:none;stroke:#fff;stroke-width:.75;stroke-linecap:round;stroke-linejoin:round;stroke-miterlimit:10}.st14{clip-path:url(#SVGID_29_);fill:#fff}.st15{clip-path:url(#SVGID_31_);fill:none;stroke:#fff;stroke-width:.75;stroke-linecap:round;stroke-linejoin:round;stroke-miterlimit:10}.st16{clip-path:url(#SVGID_33_);fill:#fff}.st17{clip-path:url(#SVGID_35_);fill:none;stroke:#fff;stroke-width:.75;stroke-linecap:round;stroke-linejoin:round;stroke-miterlimit:10}.st18{clip-path:url(#SVGID_37_);fill:#fff}.st19{clip-path:url(#SVGID_39_);fill:none;stroke:#fff;stroke-width:.75;stroke-linecap:round;stroke-linejoin:round;stroke-miterlimit:10}.st20{clip-path:url(#SVGID_41_);fill:#fff}.st21{clip-path:url(#SVGID_43_);fill:none;stroke:#fff;stroke-width:.75;stroke-linecap:round;stroke-linejoin:round;stroke-miterlimit:10}.st22{clip-path:url(#SVGID_45_);fill:#fff}.st23{clip-path:url(#SVGID_47_);fill:none;stroke:#fff;stroke-width:.75;stroke-linecap:round;stroke-linejoin:round;stroke-miterlimit:10}.st24{clip-path:url(#SVGID_49_);fill:#fff}.st25{clip-path:url(#SVGID_51_);fill:none;stroke:#fff;stroke-width:.75;stroke-linecap:round;stroke-linejoin:round;stroke-miterlimit:10}.st26{clip-path:url(#SVGID_53_);fill:#fff}.st27{clip-path:url(#SVGID_55_);fill:none;stroke:#fff;stroke-width:.75;stroke-linecap:round;stroke-linejoin:round;stroke-miterlimit:10}.st28{clip-path:url(#SVGID_57_);fill:#fff}.st29{clip-path:url(#SVGID_59_);fill:none;stroke:#fff;stroke-width:.75;stroke-linecap:round;stroke-linejoin:round;stroke-miterlimit:10}.st30{clip-path:url(#SVGID_61_);fill:#fff}.st31{clip-path:url(#SVGID_63_);fill:none;stroke:#fff;stroke-width:.75;stroke-linecap:round;stroke-linejoin:round;stroke-miterlimit:10}.st32{clip-path:url(#SVGID_65_);fill:#fff}.st33{clip-path:url(#SVGID_67_);fill:none;stroke:#fff;stroke-width:.75;stroke-linecap:round;stroke-linejoin:round;stroke-miterlimit:10}.st34{clip-path:url(#SVGID_69_);fill:#fff}.st35{clip-path:url(#SVGID_71_);fill:none;stroke:#fff;stroke-width:.75;stroke-linecap:round;stroke-linejoin:round;stroke-miterlimit:10}.st36{clip-path:url(#SVGID_73_);fill:#fff}.st37{clip-path:url(#SVGID_75_);fill:none;stroke:#fff;stroke-width:.75;stroke-linecap:round;stroke-linejoin:round;stroke-miterlimit:10}.st38{clip-path:url(#SVGID_77_);fill:#fff}.st39{clip-path:url(#SVGID_79_);fill:none;stroke:#fff;stroke-width:.75;stroke-linecap:round;stroke-linejoin:round;stroke-miterlimit:10}.st40{clip-path:url(#SVGID_81_);fill:#fff}.st41{clip-path:url(#SVGID_83_);fill:none;stroke:#fff;stroke-width:.75;stroke-linecap:round;stroke-linejoin:round;stroke-miterlimit:10}.st42{clip-path:url(#SVGID_85_);fill:#fff}.st43{clip-path:url(#SVGID_87_);fill:none;stroke:#fff;stroke-width:.75;stroke-linecap:round;stroke-linejoin:round;stroke-miterlimit:10}</style><path class="st0" d="M128.1 24.9c.6.6 1.5 1 2.4 1 1 0 1.6-.5 1.6-1.2s-.6-1-1.4-1.3l-1.2-.6c-.9-.4-1.8-1.1-1.8-2.4 0-1.5 1.3-2.6 3-2.6 1.1 0 2.1.5 2.8 1.1l-.9 1.1c-.6-.5-1.2-.7-1.9-.7-.8 0-1.4.4-1.4 1.1s.6 1 1.5 1.3l1.2.6c1.1.5 1.8 1.1 1.8 2.5 0 1.5-1.2 2.7-3.2 2.7-1.2 0-2.4-.5-3.2-1.3l.7-1.3zM136.7 19.5h-2.6v-1.3h6.8v1.4h-2.6v7.6h-1.6v-7.7zM142.4 18.2h5.4v1.4H144v2.3h3.2v1.4H144V26h4v1.4h-5.5v-9.2h-.1zM149.8 18.2h3c1.9 0 3.4.7 3.4 2.8s-1.5 2.9-3.4 2.9h-1.5v3.3h-1.6l.1-9zm2.9 4.4c1.4 0 2-.6 2-1.7s-.6-1.5-2-1.5h-1.3v3.1h1.3v.1zM132.8 64h6.9V43.6H134v-3.5c3-.6 5.2-1.4 7.2-2.6h4.2v26.4h6.1v4.6h-18.7V64z"/><g><defs><path id="SVGID_1_" d="M57.4 5.8c-15.5.1-30 9.6-35.6 25-7.3 19.8 2.8 41.7 22.6 49s41.7-2.8 49-22.6c1.6-4.3 2.3-8.7 2.4-13v-.4c-.1-15.5-9.6-30-25-35.6-4.3-1.6-8.7-2.3-13-2.4h-.4z"/></defs><clipPath id="SVGID_2_"><use xlink:href="#SVGID_1_" overflow="visible"/></clipPath><linearGradient id="SVGID_3_" gradientUnits="userSpaceOnUse" x1="-256.165" y1="471.872" x2="-255.166" y2="471.872" gradientTransform="scale(-76.3346) rotate(20.25 1194.716 949.397)"><stop offset="0" stop-color="#087ea6"/><stop offset="1" stop-color="#1ba3c3"/></linearGradient><path class="st1" d="M122.1 15.5L24.2-20.6l-36.1 97.9L86 113.4z"/></g><g><defs><path id="SVGID_4_" d="M19.4 5.8h76.4v76.4H19.4z"/></defs><clipPath id="SVGID_5_"><use xlink:href="#SVGID_4_" overflow="visible"/></clipPath><path class="st2" d="M80.6 39.3c0 .3-.3.6-.6.6H35.1c-.3 0-.6-.3-.6-.6v-1.9c0-.3.3-.6.6-.6H80c.3 0 .6.3.6.6v1.9zm-5.9 19.8c-.2 1.1-1.2 1.9-2.4 1.9H42.9c-1.1 0-2.2-.8-2.4-1.9l-3.8-18.3c0-.1 0-.2.1-.3s.2-.1.3-.1h41c.1 0 .2.1.3.1.1.1.1.2.1.3l-3.8 18.3zM48.2 26.9c3.6 0 6.8 1.7 8.5 4.3.1.1.1.2.1.3 0 .1-.1.2-.1.3-.4.3-.7.6-1 .9-.1.1-.1.2 0 .3h.3c1.2-1.3 2.9-2 4.8-2 1.4 0 2.7.4 3.7 1.1.1 0 .1.1.1.2.1 0 .3.2.4.2.4.3.7.7 1 1 0 .1.1.1.2.1.2-.1.2-.3.2-.3-.2-.3-.5-.7-.9-1-.2-.1-.2-.4 0-.5 1.1-1.2 2.8-1.8 5-1.8 3.7 0 5.9 3.6 6.1 6.3 0 .1 0 .2-.1.3s-.2.1-.3.1H38.9c-.1 0-.2 0-.3-.1s-.1-.2-.1-.3c.3-4.7 3.8-9.4 9.7-9.4M80 35.7h-2.2c-.2-1.6-.8-3.2-1.9-4.4-1.4-1.7-3.3-2.7-5.4-2.7-2.4 0-4.4.7-5.7 2.1-1.2-.7-2.5-1-3.9-1-1.1 0-2.3.2-3.3.7-2-3-5.6-4.7-9.4-4.7-6.5 0-10.4 5.1-10.8 10h-2.2c-1 0-1.8.8-1.8 1.8v1.9c0 1 .8 1.8 1.8 1.8h.4c1.3 6.1 2.5 12.2 3.8 18.2.3 1.7 1.8 2.9 3.5 2.9h29.4c1.7 0 3.2-1.2 3.5-2.9 1.3-6.1 2.5-12.2 3.8-18.2h.4c1 0 1.8-.8 1.8-1.8v-1.9c0-1-.8-1.8-1.8-1.8"/><defs><path id="SVGID_6_" d="M19.4 5.8h76.4v76.4H19.4z"/></defs><clipPath id="SVGID_7_"><use xlink:href="#SVGID_6_" overflow="visible"/></clipPath><path class="st3" d="M80.6 39.3c0 .3-.3.6-.6.6H35.1c-.3 0-.6-.3-.6-.6v-1.9c0-.3.3-.6.6-.6H80c.3 0 .6.3.6.6v1.9zm-5.9 19.8c-.2 1.1-1.2 1.9-2.4 1.9H42.9c-1.1 0-2.2-.8-2.4-1.9l-3.8-18.3c0-.1 0-.2.1-.3s.2-.1.3-.1h41c.1 0 .2.1.3.1.1.1.1.2.1.3l-3.8 18.3zM48.2 26.9c3.6 0 6.8 1.7 8.5 4.3.1.1.1.2.1.3 0 .1-.1.2-.1.3-.4.3-.7.6-1 .9-.1.1-.1.2 0 .3h.3c1.2-1.3 2.9-2 4.8-2 1.4 0 2.7.4 3.7 1.1.1 0 .1.1.1.2.1 0 .3.2.4.2.4.3.7.7 1 1 0 .1.1.1.2.1.2-.1.2-.3.2-.3-.2-.3-.5-.7-.9-1-.2-.1-.2-.4 0-.5 1.1-1.2 2.8-1.8 5-1.8 3.7 0 5.9 3.6 6.1 6.3 0 .1 0 .2-.1.3s-.2.1-.3.1H38.9c-.1 0-.2 0-.3-.1s-.1-.2-.1-.3c.3-4.7 3.8-9.4 9.7-9.4zM80 35.7h-2.2c-.2-1.6-.8-3.2-1.9-4.4-1.4-1.7-3.3-2.7-5.4-2.7-2.4 0-4.4.7-5.7 2.1-1.2-.7-2.5-1-3.9-1-1.1 0-2.3.2-3.3.7-2-3-5.6-4.7-9.4-4.7-6.5 0-10.4 5.1-10.8 10h-2.2c-1 0-1.8.8-1.8 1.8v1.9c0 1 .8 1.8 1.8 1.8h.4c1.3 6.1 2.5 12.2 3.8 18.2.3 1.7 1.8 2.9 3.5 2.9h29.4c1.7 0 3.2-1.2 3.5-2.9 1.3-6.1 2.5-12.2 3.8-18.2h.4c1 0 1.8-.8 1.8-1.8v-1.9c0-1-.8-1.8-1.8-1.8z"/><defs><path id="SVGID_8_" d="M19.4 5.8h76.4v76.4H19.4z"/></defs><clipPath id="SVGID_9_"><use xlink:href="#SVGID_8_" overflow="visible"/></clipPath><path class="st4" d="M46.6 48.5c0 .3 0 .5-.2.7s-.4.3-.7.3h-3.1c-.4 0-.8-.3-.9-.7-.1-.3 0-.5.2-.8.2-.2.4-.3.7-.3h3.1c.5 0 .9.4.9.8zm-4-1.5c-.5 0-1 .2-1.3.6-.3.4-.4.9-.3 1.4.2.8.9 1.3 1.7 1.3h3.1c.5 0 1-.2 1.3-.6.3-.4.5-.9.4-1.4-.1-.8-.8-1.4-1.7-1.4h-3.2v.1z"/><defs><path id="SVGID_10_" d="M19.4 5.8h76.4v76.4H19.4z"/></defs><clipPath id="SVGID_11_"><use xlink:href="#SVGID_10_" overflow="visible"/></clipPath><path class="st5" d="M46.6 48.5c0 .3 0 .5-.2.7s-.4.3-.7.3h-3.1c-.4 0-.8-.3-.9-.7-.1-.3 0-.5.2-.8.2-.2.4-.3.7-.3h3.1c.5 0 .9.4.9.8zm-4-1.5c-.5 0-1 .2-1.3.6-.3.4-.4.9-.3 1.4.2.8.9 1.3 1.7 1.3h3.1c.5 0 1-.2 1.3-.6.3-.4.5-.9.4-1.4-.1-.8-.8-1.4-1.7-1.4h-3.2v.1z"/><defs><path id="SVGID_12_" d="M19.4 5.8h76.4v76.4H19.4z"/></defs><clipPath id="SVGID_13_"><use xlink:href="#SVGID_12_" overflow="visible"/></clipPath><path class="st6" d="M53.1 49.3c-.2.2-.4.3-.7.3h-3.1c-.5 0-.9-.3-.9-.8 0-.3 0-.5.2-.7s.4-.3.7-.3h3.1c.5 0 .9.4.9.9.1.2 0 .4-.2.6zm-.7-2.3h-3.1c-.5 0-.9.2-1.3.6-.3.4-.5.8-.4 1.3.1.9.8 1.5 1.7 1.5h3.1c.5 0 .9-.2 1.2-.5s.5-.8.5-1.3c0-.9-.8-1.6-1.7-1.6"/><defs><path id="SVGID_14_" d="M19.4 5.8h76.4v76.4H19.4z"/></defs><clipPath id="SVGID_15_"><use xlink:href="#SVGID_14_" overflow="visible"/></clipPath><path class="st7" d="M53.1 49.3c-.2.2-.4.3-.7.3h-3.1c-.5 0-.9-.3-.9-.8 0-.3 0-.5.2-.7s.4-.3.7-.3h3.1c.5 0 .9.4.9.9.1.2 0 .4-.2.6zm-.7-2.3h-3.1c-.5 0-.9.2-1.3.6-.3.4-.5.8-.4 1.3.1.9.8 1.5 1.7 1.5h3.1c.5 0 .9-.2 1.2-.5s.5-.8.5-1.3c0-.9-.8-1.6-1.7-1.6z"/><defs><path id="SVGID_16_" d="M19.4 5.8h76.4v76.4H19.4z"/></defs><clipPath id="SVGID_17_"><use xlink:href="#SVGID_16_" overflow="visible"/></clipPath><path class="st8" d="M59.2 49.6H56c-.5 0-.9-.4-.9-.9 0-.2.1-.5.3-.7s.4-.3.7-.3h3.1c.2 0 .5.1.7.3s.3.4.3.7c-.2.5-.5.9-1 .9m0-2.6H56c-.5 0-.9.2-1.2.5s-.5.8-.5 1.2c0 .9.8 1.6 1.7 1.6h3.1c.9 0 1.7-.7 1.7-1.6 0-.5-.2-.9-.5-1.2-.3-.4-.7-.5-1.1-.5"/><defs><path id="SVGID_18_" d="M19.4 5.8h76.4v76.4H19.4z"/></defs><clipPath id="SVGID_19_"><use xlink:href="#SVGID_18_" overflow="visible"/></clipPath><path class="st9" d="M59.2 49.6H56c-.5 0-.9-.4-.9-.9 0-.2.1-.5.3-.7s.4-.3.7-.3h3.1c.2 0 .5.1.7.3s.3.4.3.7c-.2.5-.5.9-1 .9zm0-2.6H56c-.5 0-.9.2-1.2.5s-.5.8-.5 1.2c0 .9.8 1.6 1.7 1.6h3.1c.9 0 1.7-.7 1.7-1.6 0-.5-.2-.9-.5-1.2-.3-.4-.7-.5-1.1-.5z"/><defs><path id="SVGID_20_" d="M19.4 5.8h76.4v76.4H19.4z"/></defs><clipPath id="SVGID_21_"><use xlink:href="#SVGID_20_" overflow="visible"/></clipPath><path class="st10" d="M47.3 52.6c0 .3 0 .5-.2.7s-.4.3-.7.3h-2.9c-.4 0-.8-.3-.9-.7-.1-.3 0-.6.2-.8s.4-.3.7-.3h2.9c.4 0 .8.3.9.8zM43.5 51c-.5 0-1 .2-1.3.6-.3.4-.4.9-.3 1.4.2.8.9 1.3 1.7 1.3h2.9c.5 0 1-.2 1.3-.6.3-.4.5-.9.4-1.4-.1-.8-.8-1.4-1.7-1.4l-3 .1z"/><defs><path id="SVGID_22_" d="M19.4 5.8h76.4v76.4H19.4z"/></defs><clipPath id="SVGID_23_"><use xlink:href="#SVGID_22_" overflow="visible"/></clipPath><path class="st11" d="M47.3 52.6c0 .3 0 .5-.2.7s-.4.3-.7.3h-2.9c-.4 0-.8-.3-.9-.7-.1-.3 0-.6.2-.8s.4-.3.7-.3h2.9c.4 0 .8.3.9.8zM43.5 51c-.5 0-1 .2-1.3.6-.3.4-.4.9-.3 1.4.2.8.9 1.3 1.7 1.3h2.9c.5 0 1-.2 1.3-.6.3-.4.5-.9.4-1.4-.1-.8-.8-1.4-1.7-1.4l-3 .1z"/><defs><path id="SVGID_24_" d="M19.4 5.8h76.4v76.4H19.4z"/></defs><clipPath id="SVGID_25_"><use xlink:href="#SVGID_24_" overflow="visible"/></clipPath><path class="st12" d="M53.4 53.3c-.2.2-.4.3-.7.3h-2.9c-.5 0-.9-.3-.9-.8 0-.3 0-.5.2-.7s.4-.3.7-.3h2.9c.5 0 .9.4.9.9 0 .2 0 .5-.2.6zm-.7-2.3h-2.9c-.5 0-.9.2-1.3.6-.3.4-.5.8-.4 1.3.1.9.8 1.5 1.7 1.5h2.9c.5 0 .9-.2 1.2-.5s.5-.8.5-1.3c0-.9-.8-1.6-1.7-1.6"/><defs><path id="SVGID_26_" d="M19.4 5.8h76.4v76.4H19.4z"/></defs><clipPath id="SVGID_27_"><use xlink:href="#SVGID_26_" overflow="visible"/></clipPath><path class="st13" d="M53.4 53.3c-.2.2-.4.3-.7.3h-2.9c-.5 0-.9-.3-.9-.8 0-.3 0-.5.2-.7s.4-.3.7-.3h2.9c.5 0 .9.4.9.9 0 .2 0 .5-.2.6zm-.7-2.3h-2.9c-.5 0-.9.2-1.3.6-.3.4-.5.8-.4 1.3.1.9.8 1.5 1.7 1.5h2.9c.5 0 .9-.2 1.2-.5s.5-.8.5-1.3c0-.9-.8-1.6-1.7-1.6z"/><defs><path id="SVGID_28_" d="M19.4 5.8h76.4v76.4H19.4z"/></defs><clipPath id="SVGID_29_"><use xlink:href="#SVGID_28_" overflow="visible"/></clipPath><path class="st14" d="M59.1 53.6h-3c-.5 0-.9-.4-.9-.9 0-.2.1-.5.3-.7s.4-.3.7-.3h3c.2 0 .5.1.7.3s.3.4.3.7c-.2.5-.6.9-1.1.9m0-2.6h-3c-.5 0-.9.2-1.2.5s-.5.8-.5 1.2c0 .9.8 1.6 1.7 1.6h3c.9 0 1.7-.7 1.7-1.6 0-.5-.2-.9-.5-1.2s-.8-.5-1.2-.5"/><defs><path id="SVGID_30_" d="M19.4 5.8h76.4v76.4H19.4z"/></defs><clipPath id="SVGID_31_"><use xlink:href="#SVGID_30_" overflow="visible"/></clipPath><path class="st15" d="M59.1 53.6h-3c-.5 0-.9-.4-.9-.9 0-.2.1-.5.3-.7s.4-.3.7-.3h3c.2 0 .5.1.7.3s.3.4.3.7c-.2.5-.6.9-1.1.9zm0-2.6h-3c-.5 0-.9.2-1.2.5s-.5.8-.5 1.2c0 .9.8 1.6 1.7 1.6h3c.9 0 1.7-.7 1.7-1.6 0-.5-.2-.9-.5-1.2s-.8-.5-1.2-.5z"/><g><defs><path id="SVGID_32_" d="M19.4 5.8h76.4v76.4H19.4z"/></defs><clipPath id="SVGID_33_"><use xlink:href="#SVGID_32_" overflow="visible"/></clipPath><path class="st16" d="M41.1 44c.2-.2.4-.3.7-.3h3.3c.5 0 .8.3.9.8 0 .3 0 .5-.2.7s-.4.3-.7.3h-3.3c-.4 0-.8-.3-.9-.7 0-.3 0-.6.2-.8zm-.9.9c.2.8.9 1.3 1.7 1.3h3.3c.5 0 1-.2 1.3-.6.3-.4.5-.9.4-1.4-.1-.8-.8-1.4-1.7-1.4h-3.3c-.5 0-1 .2-1.3.6-.4.5-.5 1-.4 1.5z"/></g><g><defs><path id="SVGID_34_" d="M19.4 5.8h76.4v76.4H19.4z"/></defs><clipPath id="SVGID_35_"><use xlink:href="#SVGID_34_" overflow="visible"/></clipPath><path class="st17" d="M41.1 44c.2-.2.4-.3.7-.3h3.3c.5 0 .8.3.9.8 0 .3 0 .5-.2.7s-.4.3-.7.3h-3.3c-.4 0-.8-.3-.9-.7 0-.3 0-.6.2-.8zm-.9.9c.2.8.9 1.3 1.7 1.3h3.3c.5 0 1-.2 1.3-.6.3-.4.5-.9.4-1.4-.1-.8-.8-1.4-1.7-1.4h-3.3c-.5 0-1 .2-1.3.6-.4.5-.5 1-.4 1.5z"/></g><g><defs><path id="SVGID_36_" d="M19.4 5.8h76.4v76.4H19.4z"/></defs><clipPath id="SVGID_37_"><use xlink:href="#SVGID_36_" overflow="visible"/></clipPath><path class="st18" d="M48.2 44c.2-.2.4-.3.7-.3h3.3c.5 0 .9.4.9.9 0 .3-.1.5-.2.7-.2.2-.4.3-.7.3h-3.3c-.5 0-.9-.3-.9-.8-.1-.4 0-.6.2-.8zm.7 2.3h3.3c.5 0 .9-.2 1.2-.5s.5-.8.5-1.3c-.1-.9-.8-1.6-1.7-1.6h-3.3c-.5 0-.9.2-1.3.6-.3.4-.5.8-.4 1.3.1.9.8 1.5 1.7 1.5"/></g><g><defs><path id="SVGID_38_" d="M19.4 5.8h76.4v76.4H19.4z"/></defs><clipPath id="SVGID_39_"><use xlink:href="#SVGID_38_" overflow="visible"/></clipPath><path class="st19" d="M48.2 44c.2-.2.4-.3.7-.3h3.3c.5 0 .9.4.9.9 0 .3-.1.5-.2.7-.2.2-.4.3-.7.3h-3.3c-.5 0-.9-.3-.9-.8-.1-.4 0-.6.2-.8zm.7 2.3h3.3c.5 0 .9-.2 1.2-.5s.5-.8.5-1.3c-.1-.9-.8-1.6-1.7-1.6h-3.3c-.5 0-.9.2-1.3.6-.3.4-.5.8-.4 1.3.1.9.8 1.5 1.7 1.5z"/></g><g><defs><path id="SVGID_40_" d="M19.4 5.8h76.4v76.4H19.4z"/></defs><clipPath id="SVGID_41_"><use xlink:href="#SVGID_40_" overflow="visible"/></clipPath><path class="st20" d="M55.3 44c.2-.2.4-.3.7-.3h3.3c.2 0 .5.1.7.3s.3.4.3.7c0 .5-.4.9-.9.9h-3.3c-.5 0-.9-.4-.9-.9-.2-.3-.1-.6.1-.7zm.6 2.3h3.3c.9 0 1.7-.7 1.7-1.6 0-.5-.2-.9-.5-1.2s-.8-.5-1.2-.5h-3.3c-.5 0-.9.2-1.2.5s-.5.8-.5 1.2c0 .9.8 1.6 1.7 1.6"/></g><g><defs><path id="SVGID_42_" d="M19.4 5.8h76.4v76.4H19.4z"/></defs><clipPath id="SVGID_43_"><use xlink:href="#SVGID_42_" overflow="visible"/></clipPath><path class="st21" d="M55.3 44c.2-.2.4-.3.7-.3h3.3c.2 0 .5.1.7.3s.3.4.3.7c0 .5-.4.9-.9.9h-3.3c-.5 0-.9-.4-.9-.9-.2-.3-.1-.6.1-.7zm.6 2.3h3.3c.9 0 1.7-.7 1.7-1.6 0-.5-.2-.9-.5-1.2s-.8-.5-1.2-.5h-3.3c-.5 0-.9.2-1.2.5s-.5.8-.5 1.2c0 .9.8 1.6 1.7 1.6z"/></g><g><defs><path id="SVGID_44_" d="M19.4 5.8h76.4v76.4H19.4z"/></defs><clipPath id="SVGID_45_"><use xlink:href="#SVGID_44_" overflow="visible"/></clipPath><path class="st22" d="M47.6 57.4c-.2.2-.4.3-.7.3h-2.6c-.4 0-.8-.3-.9-.7-.1-.3 0-.5.2-.8.2-.2.4-.3.7-.3h2.6c.5 0 .8.3.9.8.1.2 0 .5-.2.7m-.7-2.3h-2.6c-.5 0-1 .2-1.3.6-.3.4-.4.9-.3 1.4.2.8.9 1.3 1.7 1.3H47c.5 0 1-.2 1.3-.6.3-.4.5-.9.4-1.4-.2-.7-1-1.3-1.8-1.3"/></g><g><defs><path id="SVGID_46_" d="M19.4 5.8h76.4v76.4H19.4z"/></defs><clipPath id="SVGID_47_"><use xlink:href="#SVGID_46_" overflow="visible"/></clipPath><path class="st23" d="M47.6 57.4c-.2.2-.4.3-.7.3h-2.6c-.4 0-.8-.3-.9-.7-.1-.3 0-.5.2-.8.2-.2.4-.3.7-.3h2.6c.5 0 .8.3.9.8.1.2 0 .5-.2.7zm-.7-2.3h-2.6c-.5 0-1 .2-1.3.6-.3.4-.4.9-.3 1.4.2.8.9 1.3 1.7 1.3H47c.5 0 1-.2 1.3-.6.3-.4.5-.9.4-1.4-.2-.7-1-1.3-1.8-1.3z"/></g><g><defs><path id="SVGID_48_" d="M19.4 5.8h76.4v76.4H19.4z"/></defs><clipPath id="SVGID_49_"><use xlink:href="#SVGID_48_" overflow="visible"/></clipPath><path class="st24" d="M53.6 57.4c-.2.2-.4.3-.7.3h-2.6c-.5 0-.9-.3-.9-.8 0-.3 0-.5.2-.7s.4-.3.7-.3h2.6c.5 0 .9.4.9.9 0 .2-.1.4-.2.6m-.7-2.3h-2.6c-.5 0-.9.2-1.3.6-.3.4-.5.8-.4 1.3.1.9.8 1.5 1.7 1.5h2.6c.5 0 .9-.2 1.2-.5s.5-.8.5-1.3c-.1-.9-.8-1.6-1.7-1.6"/></g><g><defs><path id="SVGID_50_" d="M19.4 5.8h76.4v76.4H19.4z"/></defs><clipPath id="SVGID_51_"><use xlink:href="#SVGID_50_" overflow="visible"/></clipPath><path class="st25" d="M53.6 57.4c-.2.2-.4.3-.7.3h-2.6c-.5 0-.9-.3-.9-.8 0-.3 0-.5.2-.7s.4-.3.7-.3h2.6c.5 0 .9.4.9.9 0 .2-.1.4-.2.6zm-.7-2.3h-2.6c-.5 0-.9.2-1.3.6-.3.4-.5.8-.4 1.3.1.9.8 1.5 1.7 1.5h2.6c.5 0 .9-.2 1.2-.5s.5-.8.5-1.3c-.1-.9-.8-1.6-1.7-1.6z"/></g><g><defs><path id="SVGID_52_" d="M19.4 5.8h76.4v76.4H19.4z"/></defs><clipPath id="SVGID_53_"><use xlink:href="#SVGID_52_" overflow="visible"/></clipPath><path class="st26" d="M58.9 57.7h-2.6c-.5 0-.9-.4-.9-.9 0-.2.1-.5.3-.7s.4-.3.7-.3H59c.2 0 .5.1.7.3s.3.4.3.7c-.2.5-.6.9-1.1.9m0-2.6h-2.6c-.5 0-.9.2-1.2.5s-.5.8-.5 1.2c0 .9.8 1.6 1.7 1.6h2.6c.9 0 1.7-.7 1.7-1.6 0-.5-.2-.9-.5-1.2-.3-.3-.8-.5-1.2-.5"/></g><g><defs><path id="SVGID_54_" d="M19.4 5.8h76.4v76.4H19.4z"/></defs><clipPath id="SVGID_55_"><use xlink:href="#SVGID_54_" overflow="visible"/></clipPath><path class="st27" d="M58.9 57.7h-2.6c-.5 0-.9-.4-.9-.9 0-.2.1-.5.3-.7s.4-.3.7-.3H59c.2 0 .5.1.7.3s.3.4.3.7c-.2.5-.6.9-1.1.9zm0-2.6h-2.6c-.5 0-.9.2-1.2.5s-.5.8-.5 1.2c0 .9.8 1.6 1.7 1.6h2.6c.9 0 1.7-.7 1.7-1.6 0-.5-.2-.9-.5-1.2-.3-.3-.8-.5-1.2-.5z"/></g><g><defs><path id="SVGID_56_" d="M19.4 5.8h76.4v76.4H19.4z"/></defs><clipPath id="SVGID_57_"><use xlink:href="#SVGID_56_" overflow="visible"/></clipPath><path class="st28" d="M68.5 48.5c.1-.4.5-.8.9-.8h3.1c.3 0 .5.1.7.3s.2.5.2.8c-.1.4-.5.7-.9.7h-3.1c-.3 0-.5-.1-.7-.3s-.2-.4-.2-.7zm.9 1.8h3.1c.8 0 1.5-.6 1.7-1.3.1-.5 0-1-.3-1.4s-.9-.6-1.4-.6h-3.1c-.8 0-1.6.6-1.7 1.4-.1.5.1 1 .4 1.4.4.3.8.5 1.3.5"/></g><g><defs><path id="SVGID_58_" d="M19.4 5.8h76.4v76.4H19.4z"/></defs><clipPath id="SVGID_59_"><use xlink:href="#SVGID_58_" overflow="visible"/></clipPath><path class="st29" d="M68.5 48.5c.1-.4.5-.8.9-.8h3.1c.3 0 .5.1.7.3s.2.5.2.8c-.1.4-.5.7-.9.7h-3.1c-.3 0-.5-.1-.7-.3s-.2-.4-.2-.7zm.9 1.8h3.1c.8 0 1.5-.6 1.7-1.3.1-.5 0-1-.3-1.4s-.9-.6-1.4-.6h-3.1c-.8 0-1.6.6-1.7 1.4-.1.5.1 1 .4 1.4.4.3.8.5 1.3.5z"/></g><g><defs><path id="SVGID_60_" d="M19.4 5.8h76.4v76.4H19.4z"/></defs><clipPath id="SVGID_61_"><use xlink:href="#SVGID_60_" overflow="visible"/></clipPath><path class="st30" d="M62.7 47.7h3.1c.3 0 .5.1.7.3s.3.5.2.7c-.1.5-.4.8-.9.8h-3.1c-.3 0-.5-.1-.7-.3s-.3-.4-.2-.7c0-.4.4-.8.9-.8m0 2.6h3.1c.9 0 1.6-.6 1.7-1.5.1-.5-.1-1-.4-1.3-.3-.4-.8-.6-1.3-.6h-3.1c-.9 0-1.6.7-1.7 1.6 0 .5.1.9.5 1.3.3.4.7.5 1.2.5"/></g><g><defs><path id="SVGID_62_" d="M19.4 5.8h76.4v76.4H19.4z"/></defs><clipPath id="SVGID_63_"><use xlink:href="#SVGID_62_" overflow="visible"/></clipPath><path class="st31" d="M62.7 47.7h3.1c.3 0 .5.1.7.3s.3.5.2.7c-.1.5-.4.8-.9.8h-3.1c-.3 0-.5-.1-.7-.3s-.3-.4-.2-.7c0-.4.4-.8.9-.8zm0 2.6h3.1c.9 0 1.6-.6 1.7-1.5.1-.5-.1-1-.4-1.3-.3-.4-.8-.6-1.3-.6h-3.1c-.9 0-1.6.7-1.7 1.6 0 .5.1.9.5 1.3.3.4.7.5 1.2.5z"/></g><g><defs><path id="SVGID_64_" d="M19.4 5.8h76.4v76.4H19.4z"/></defs><clipPath id="SVGID_65_"><use xlink:href="#SVGID_64_" overflow="visible"/></clipPath><path class="st32" d="M67.9 52.6c.1-.4.5-.8.9-.8h2.9c.3 0 .5.1.7.3s.2.5.2.8c-.1.4-.5.7-.9.7h-2.9c-.3 0-.5-.1-.7-.3s-.3-.5-.2-.7zm-.4 1.2c.3.4.8.6 1.3.6h2.9c.8 0 1.5-.6 1.7-1.3.1-.5 0-1-.3-1.4s-.8-.6-1.3-.6h-2.9c-.8 0-1.6.6-1.7 1.4-.2.4 0 .9.3 1.3z"/></g><g><defs><path id="SVGID_66_" d="M19.4 5.8h76.4v76.4H19.4z"/></defs><clipPath id="SVGID_67_"><use xlink:href="#SVGID_66_" overflow="visible"/></clipPath><path class="st33" d="M67.9 52.6c.1-.4.5-.8.9-.8h2.9c.3 0 .5.1.7.3s.2.5.2.8c-.1.4-.5.7-.9.7h-2.9c-.3 0-.5-.1-.7-.3s-.3-.5-.2-.7zm-.4 1.2c.3.4.8.6 1.3.6h2.9c.8 0 1.5-.6 1.7-1.3.1-.5 0-1-.3-1.4s-.8-.6-1.3-.6h-2.9c-.8 0-1.6.6-1.7 1.4-.2.4 0 .9.3 1.3z"/></g><g><defs><path id="SVGID_68_" d="M19.4 5.8h76.4v76.4H19.4z"/></defs><clipPath id="SVGID_69_"><use xlink:href="#SVGID_68_" overflow="visible"/></clipPath><path class="st34" d="M62.4 51.8h2.9c.3 0 .5.1.7.3s.3.5.2.7c-.1.5-.4.8-.9.8h-2.9c-.3 0-.5-.1-.7-.3s-.3-.4-.2-.7c.1-.4.5-.8.9-.8m0 2.6h2.9c.9 0 1.6-.6 1.7-1.5.1-.5-.1-1-.4-1.3-.3-.4-.8-.6-1.3-.6h-2.9c-.9 0-1.6.7-1.7 1.6 0 .5.1.9.5 1.3s.8.5 1.2.5"/></g><g><defs><path id="SVGID_70_" d="M19.4 5.8h76.4v76.4H19.4z"/></defs><clipPath id="SVGID_71_"><use xlink:href="#SVGID_70_" overflow="visible"/></clipPath><path class="st35" d="M62.4 51.8h2.9c.3 0 .5.1.7.3s.3.5.2.7c-.1.5-.4.8-.9.8h-2.9c-.3 0-.5-.1-.7-.3s-.3-.4-.2-.7c.1-.4.5-.8.9-.8zm0 2.6h2.9c.9 0 1.6-.6 1.7-1.5.1-.5-.1-1-.4-1.3-.3-.4-.8-.6-1.3-.6h-2.9c-.9 0-1.6.7-1.7 1.6 0 .5.1.9.5 1.3s.8.5 1.2.5z"/></g><g><defs><path id="SVGID_72_" d="M19.4 5.8h76.4v76.4H19.4z"/></defs><clipPath id="SVGID_73_"><use xlink:href="#SVGID_72_" overflow="visible"/></clipPath><path class="st36" d="M69.1 44.5c.1-.4.5-.8.9-.8h3.3c.3 0 .5.1.7.3s.2.5.2.8c-.1.4-.5.7-.9.7H70c-.3 0-.5-.1-.7-.3-.1-.2-.2-.5-.2-.7zm.9 1.8h3.3c.8 0 1.5-.6 1.7-1.3.1-.5 0-1-.3-1.4s-.8-.6-1.3-.6H70c-.8 0-1.6.6-1.7 1.4-.1.5.1 1 .4 1.4.4.3.9.5 1.3.5"/></g><g><defs><path id="SVGID_74_" d="M19.4 5.8h76.4v76.4H19.4z"/></defs><clipPath id="SVGID_75_"><use xlink:href="#SVGID_74_" overflow="visible"/></clipPath><path class="st37" d="M69.1 44.5c.1-.4.5-.8.9-.8h3.3c.3 0 .5.1.7.3s.2.5.2.8c-.1.4-.5.7-.9.7H70c-.3 0-.5-.1-.7-.3-.1-.2-.2-.5-.2-.7zm.9 1.8h3.3c.8 0 1.5-.6 1.7-1.3.1-.5 0-1-.3-1.4s-.8-.6-1.3-.6H70c-.8 0-1.6.6-1.7 1.4-.1.5.1 1 .4 1.4.4.3.9.5 1.3.5z"/></g><g><defs><path id="SVGID_76_" d="M19.4 5.8h76.4v76.4H19.4z"/></defs><clipPath id="SVGID_77_"><use xlink:href="#SVGID_76_" overflow="visible"/></clipPath><path class="st38" d="M63 43.7h3.3c.3 0 .5.1.7.3s.3.5.2.7c-.1.5-.4.8-.9.8H63c-.3 0-.5-.1-.7-.3s-.3-.4-.2-.7c0-.4.4-.8.9-.8m0 2.6h3.3c.9 0 1.6-.6 1.7-1.5.1-.5-.1-1-.4-1.3-.3-.4-.8-.6-1.3-.6H63c-.9 0-1.6.7-1.7 1.6 0 .5.1.9.5 1.3.3.3.7.5 1.2.5"/></g><g><defs><path id="SVGID_78_" d="M19.4 5.8h76.4v76.4H19.4z"/></defs><clipPath id="SVGID_79_"><use xlink:href="#SVGID_78_" overflow="visible"/></clipPath><path class="st39" d="M63 43.7h3.3c.3 0 .5.1.7.3s.3.5.2.7c-.1.5-.4.8-.9.8H63c-.3 0-.5-.1-.7-.3s-.3-.4-.2-.7c0-.4.4-.8.9-.8zm0 2.6h3.3c.9 0 1.6-.6 1.7-1.5.1-.5-.1-1-.4-1.3-.3-.4-.8-.6-1.3-.6H63c-.9 0-1.6.7-1.7 1.6 0 .5.1.9.5 1.3.3.3.7.5 1.2.5z"/></g><g><defs><path id="SVGID_80_" d="M19.4 5.8h76.4v76.4H19.4z"/></defs><clipPath id="SVGID_81_"><use xlink:href="#SVGID_80_" overflow="visible"/></clipPath><path class="st40" d="M71.7 57c-.1.4-.5.7-.9.7h-2.6c-.3 0-.5-.1-.7-.3s-.3-.5-.2-.7c.1-.4.5-.8.9-.8h2.6c.3 0 .5.1.7.3s.3.5.2.8zm-.9-1.9h-2.6c-.8 0-1.6.6-1.7 1.4-.1.5.1 1 .4 1.4s.8.6 1.3.6h2.6c.8 0 1.5-.6 1.7-1.3.1-.5 0-1-.3-1.4s-.9-.7-1.4-.7"/></g><g><defs><path id="SVGID_82_" d="M19.4 5.8h76.4v76.4H19.4z"/></defs><clipPath id="SVGID_83_"><use xlink:href="#SVGID_82_" overflow="visible"/></clipPath><path class="st41" d="M71.7 57c-.1.4-.5.7-.9.7h-2.6c-.3 0-.5-.1-.7-.3s-.3-.5-.2-.7c.1-.4.5-.8.9-.8h2.6c.3 0 .5.1.7.3s.3.5.2.8zm-.9-1.9h-2.6c-.8 0-1.6.6-1.7 1.4-.1.5.1 1 .4 1.4s.8.6 1.3.6h2.6c.8 0 1.5-.6 1.7-1.3.1-.5 0-1-.3-1.4s-.9-.7-1.4-.7z"/></g><g><defs><path id="SVGID_84_" d="M19.4 5.8h76.4v76.4H19.4z"/></defs><clipPath id="SVGID_85_"><use xlink:href="#SVGID_84_" overflow="visible"/></clipPath><path class="st42" d="M62.3 55.9h2.6c.3 0 .5.1.7.3s.3.5.2.7c-.1.5-.4.8-.9.8h-2.6c-.3 0-.5-.1-.7-.3s-.3-.4-.2-.7c0-.5.4-.8.9-.8m0 2.6h2.6c.9 0 1.6-.6 1.7-1.5.1-.5-.1-1-.4-1.3-.3-.4-.8-.6-1.3-.6h-2.6c-.9 0-1.6.7-1.7 1.6 0 .5.1.9.5 1.3.2.3.7.5 1.2.5"/></g><g><defs><path id="SVGID_86_" d="M19.4 5.8h76.4v76.4H19.4z"/></defs><clipPath id="SVGID_87_"><use xlink:href="#SVGID_86_" overflow="visible"/></clipPath><path class="st43" d="M62.3 55.9h2.6c.3 0 .5.1.7.3s.3.5.2.7c-.1.5-.4.8-.9.8h-2.6c-.3 0-.5-.1-.7-.3s-.3-.4-.2-.7c0-.5.4-.8.9-.8zm0 2.6h2.6c.9 0 1.6-.6 1.7-1.5.1-.5-.1-1-.4-1.3-.3-.4-.8-.6-1.3-.6h-2.6c-.9 0-1.6.7-1.7 1.6 0 .5.1.9.5 1.3.2.3.7.5 1.2.5z"/></g></g></svg>