<svg xmlns="http://www.w3.org/2000/svg" xmlns:xlink="http://www.w3.org/1999/xlink" width="200" height="289.303" viewBox="0 0 200 289.303"><defs><path id="a" d="M3.312 4.625H195.91v280.763H3.312z"/></defs><clipPath id="b"><use xlink:href="#a" overflow="visible"/></clipPath><g clip-path="url(#b)"><defs><path id="c" d="M3.312 4.625H195.91v280.763H3.312z"/></defs><clipPath id="d"><use xlink:href="#c" overflow="visible"/></clipPath><g opacity=".5" clip-path="url(#d)"><defs><path id="e" d="M-9.09 3.896h217.4v282.222H-9.09z"/></defs><clipPath id="f"><use xlink:href="#e" overflow="visible"/></clipPath><path clip-path="url(#f)" fill="#FFF" d="M82.704 92.612c8.232 0 14.905-6.656 14.905-14.867 0-8.211-6.673-14.868-14.905-14.868s-14.905 6.657-14.905 14.868 6.673 14.867 14.905 14.867M103.99 70.46a3.606 3.606 0 1 0-3.607-3.604 3.606 3.606 0 0 0 3.607 3.604M121.176 81.309c4.414 0 7.992-3.585 7.992-8.007s-3.578-8.006-7.992-8.006-7.992 3.584-7.992 8.006 3.578 8.007 7.992 8.007M136.985 99.319a5.874 5.874 0 0 0 5.871-5.878c0-3.246-2.628-5.878-5.871-5.878s-5.871 2.632-5.871 5.878a5.874 5.874 0 0 0 5.871 5.878M114.984 101.039c2.027 0 3.67-1.696 3.67-3.788 0-2.092-1.643-3.789-3.67-3.789s-3.671 1.696-3.671 3.789c0 2.091 1.644 3.788 3.671 3.788M57.312 110.868c4.56 0 8.257-3.637 8.257-8.125 0-4.489-3.697-8.126-8.257-8.126s-8.257 3.637-8.257 8.126c0 4.488 3.697 8.125 8.257 8.125M149.798 108.985c2.035 0 3.686-1.676 3.686-3.744 0-2.066-1.65-3.742-3.686-3.742s-3.686 1.676-3.686 3.742c0 2.068 1.651 3.744 3.686 3.744M100.213 114.791c3.444 0 6.235-2.687 6.235-6.001 0-3.315-2.791-6.002-6.235-6.002-3.444 0-6.236 2.687-6.236 6.002 0 3.314 2.792 6.001 6.236 6.001M76.571 119.298c3.401 0 6.16-2.693 6.16-6.014 0-3.322-2.758-6.015-6.16-6.015s-6.16 2.693-6.16 6.015c0 3.321 2.758 6.014 6.16 6.014M129.3 120.801c2.141 0 3.875-1.672 3.875-3.735 0-2.062-1.734-3.734-3.875-3.734-2.139 0-3.874 1.673-3.874 3.734 0 2.063 1.735 3.735 3.874 3.735M114.945 123.317c2.142 0 3.879-1.78 3.879-3.976 0-2.196-1.737-3.977-3.879-3.977-2.144 0-3.88 1.78-3.88 3.977 0 2.196 1.737 3.976 3.88 3.976M37.792 128.05c3.189 0 5.775-2.446 5.775-5.465 0-3.018-2.585-5.464-5.775-5.464s-5.774 2.446-5.774 5.464c0 3.019 2.585 5.465 5.774 5.465M165.725 126.968c2.058 0 3.726-1.646 3.726-3.676 0-2.029-1.668-3.676-3.726-3.676S162 121.263 162 123.292c0 2.031 1.667 3.676 3.725 3.676M145.277 136.098c4.492 0 8.133-3.635 8.133-8.118s-3.641-8.119-8.133-8.119c-4.49 0-8.132 3.635-8.132 8.119s3.642 8.118 8.132 8.118M93.329 173.462c14.531 0 26.312-11.758 26.312-26.261 0-14.504-11.78-26.262-26.312-26.262-14.532 0-26.313 11.758-26.313 26.262.001 14.503 11.781 26.261 26.313 26.261M61.239 131.029c2.233 0 4.044-1.755 4.044-3.918 0-2.165-1.811-3.919-4.044-3.919-2.234 0-4.044 1.754-4.044 3.919-.001 2.163 1.81 3.918 4.044 3.918M170.73 155.123c6.675 0 12.084-5.365 12.084-11.982 0-6.618-5.409-11.982-12.084-11.982-6.674 0-12.083 5.365-12.083 11.982 0 6.616 5.41 11.982 12.083 11.982M24.455 152.375a8.19 8.19 0 1 0-.001-16.38 8.19 8.19 0 0 0 .001 16.38M129.301 149.802c3.443 0 6.234-2.793 6.234-6.238s-2.791-6.238-6.234-6.238c-3.442 0-6.234 2.793-6.234 6.238s2.791 6.238 6.234 6.238M55.262 153.086c3.436 0 6.22-2.676 6.22-5.979 0-3.302-2.784-5.978-6.22-5.978-3.435 0-6.219 2.676-6.219 5.978 0 3.303 2.784 5.979 6.219 5.979M145.256 175.223c7.502 0 13.583-6.01 13.583-13.424 0-7.413-6.081-13.422-13.583-13.422s-13.583 6.009-13.583 13.422c0 7.414 6.081 13.424 13.583 13.424M35.609 170.035c3.411 0 6.176-2.721 6.176-6.077 0-3.355-2.766-6.077-6.176-6.077-3.412 0-6.177 2.721-6.177 6.077 0 3.355 2.765 6.077 6.177 6.077M187.263 170.861c3.402 0 6.16-2.678 6.16-5.981s-2.758-5.98-6.16-5.98c-3.403 0-6.161 2.678-6.161 5.98 0 3.304 2.757 5.981 6.161 5.981M10.965 168.93c2.151 0 3.894-1.811 3.894-4.044 0-2.233-1.743-4.044-3.894-4.044-2.15 0-3.894 1.811-3.894 4.044 0 2.234 1.743 4.044 3.894 4.044M57.33 179.333c4.554 0 8.247-3.649 8.247-8.152 0-4.503-3.692-8.152-8.247-8.152s-8.247 3.649-8.247 8.152c0 4.503 3.692 8.152 8.247 8.152M122.893 172.334c2.226 0 4.03-1.721 4.03-3.844 0-2.123-1.805-3.843-4.03-3.843s-4.03 1.721-4.03 3.843c-.001 2.123 1.804 3.844 4.03 3.844M169.859 176.359c2.045 0 3.704-1.737 3.704-3.879 0-2.144-1.659-3.881-3.704-3.881-2.046 0-3.704 1.738-3.704 3.881 0 2.142 1.658 3.879 3.704 3.879M79.843 194.339c4.575 0 8.285-3.72 8.285-8.31s-3.709-8.31-8.285-8.31c-4.576 0-8.285 3.72-8.285 8.31s3.71 8.31 8.285 8.31M104 185.986c2.223 0 4.024-1.757 4.024-3.926 0-2.167-1.802-3.925-4.024-3.925s-4.023 1.758-4.023 3.925c0 2.169 1.8 3.926 4.023 3.926M128.227 198.155c4.502 0 8.153-3.606 8.153-8.056 0-4.449-3.651-8.056-8.153-8.056s-8.152 3.607-8.152 8.056c-.001 4.45 3.65 8.056 8.152 8.056M155.871 193.873c3.409 0 6.173-2.671 6.173-5.966 0-3.296-2.764-5.967-6.173-5.967-3.41 0-6.175 2.671-6.175 5.967 0 3.294 2.765 5.966 6.175 5.966M15.864 207.501c6.932 0 12.552-5.582 12.552-12.465 0-6.885-5.62-12.466-12.552-12.466s-12.552 5.581-12.552 12.466c0 6.884 5.62 12.465 12.552 12.465M35.776 191.809c2.214 0 4.009-1.708 4.009-3.815s-1.795-3.814-4.009-3.814-4.009 1.708-4.009 3.814c0 2.108 1.796 3.815 4.009 3.815M187.936 202.158c4.404 0 7.975-3.671 7.975-8.199s-3.57-8.2-7.975-8.2c-4.403 0-7.974 3.671-7.974 8.2s3.57 8.199 7.974 8.199M59.052 196.229c2.232 0 4.042-1.746 4.042-3.899 0-2.154-1.81-3.9-4.042-3.9-2.232 0-4.042 1.746-4.042 3.9s1.809 3.899 4.042 3.899M104.965 229.651c9.594 0 17.372-7.718 17.372-17.239s-7.778-17.239-17.372-17.239c-9.593 0-17.371 7.718-17.371 17.239s7.778 17.239 17.371 17.239M47.054 205.989c2.144 0 3.881-1.769 3.881-3.951 0-2.183-1.737-3.952-3.881-3.952-2.143 0-3.881 1.769-3.881 3.952 0 2.182 1.738 3.951 3.881 3.951M171.917 205.823c2.246 0 4.068-1.684 4.068-3.761 0-2.076-1.822-3.76-4.068-3.76-2.247 0-4.068 1.684-4.068 3.76 0 2.077 1.821 3.761 4.068 3.761M61.648 213.62a3.874 3.874 0 0 0 3.882-3.866 3.874 3.874 0 0 0-3.882-3.867 3.873 3.873 0 0 0-3.881 3.867 3.874 3.874 0 0 0 3.881 3.866M41.908 228.06c4.518 0 8.179-3.669 8.179-8.194s-3.661-8.194-8.179-8.194c-4.517 0-8.178 3.669-8.178 8.194s3.662 8.194 8.178 8.194M179.836 233.971c5.768 0 10.442-4.639 10.442-10.362 0-5.722-4.675-10.361-10.442-10.361s-10.441 4.639-10.441 10.361c0 5.723 4.674 10.362 10.441 10.362M77.729 228.056c3.346 0 6.058-2.737 6.058-6.114s-2.712-6.114-6.058-6.114-6.058 2.737-6.058 6.114 2.713 6.114 6.058 6.114M18.156 235.675c3.352 0 6.069-2.755 6.069-6.153 0-3.397-2.717-6.152-6.069-6.152s-6.069 2.755-6.069 6.152c0 3.398 2.718 6.153 6.069 6.153M61.111 275.759c12.863 0 23.292-10.465 23.292-23.375 0-12.912-10.429-23.376-23.292-23.376-12.864 0-23.293 10.465-23.293 23.376 0 12.909 10.43 23.375 23.293 23.375M119.063 244.908c3.422 0 6.196-2.658 6.196-5.938 0-3.281-2.774-5.939-6.196-5.939s-6.196 2.658-6.196 5.939c0 3.28 2.775 5.938 6.196 5.938M160.119 246.199c3.414 0 6.182-2.691 6.182-6.013 0-3.319-2.768-6.012-6.182-6.012s-6.182 2.693-6.182 6.012c.001 3.321 2.768 6.013 6.182 6.013M138.892 256.687c4.516 0 8.177-3.686 8.177-8.235 0-4.548-3.661-8.235-8.177-8.235-4.515 0-8.177 3.687-8.177 8.235s3.662 8.235 8.177 8.235M94.202 249.866c2.151 0 3.895-1.713 3.895-3.824 0-2.113-1.744-3.824-3.895-3.824-2.15 0-3.895 1.711-3.895 3.824.001 2.111 1.745 3.824 3.895 3.824M111.08 285.389c8.25 0 14.938-6.645 14.938-14.84 0-8.198-6.688-14.843-14.938-14.843-8.251 0-14.938 6.645-14.938 14.843 0 8.195 6.687 14.84 14.938 14.84M158.547 266.871c2.088 0 3.781-1.749 3.781-3.907 0-2.157-1.693-3.906-3.781-3.906-2.089 0-3.782 1.75-3.782 3.906 0 2.159 1.693 3.907 3.782 3.907M140.847 276.43c3.463 0 6.27-2.642 6.27-5.898 0-3.257-2.807-5.897-6.27-5.897s-6.27 2.64-6.27 5.897c0 3.256 2.807 5.898 6.27 5.898M83.902 285.126c3.474 0 6.29-2.834 6.29-6.332 0-3.497-2.816-6.332-6.29-6.332s-6.29 2.835-6.29 6.332c.001 3.498 2.817 6.332 6.29 6.332"/><path clip-path="url(#f)" fill="#FFF" d="M13.259 166.682c.299 0 .542-.139.542-.313 0-.172-.242-.312-.542-.312-.299 0-.541.14-.541.312 0 .174.242.313.541.313M154.525 211.146c.206 0 .373-.141.373-.314s-.167-.314-.373-.314c-.207 0-.374.14-.374.314s.167.314.374.314"/><path clip-path="url(#f)" fill="#FFF" d="M148.081 229.456c6.727 0 12.18-5.45 12.18-12.172s-5.453-12.171-12.18-12.171-12.18 5.449-12.18 12.171 5.453 12.172 12.18 12.172M98.892 44.208c1.475 0 2.669-1.117 2.669-2.495 0-1.378-1.195-2.495-2.669-2.495-1.476 0-2.67 1.117-2.67 2.495 0 1.379 1.195 2.495 2.67 2.495M100.213 9.615c1.475 0 2.67-1.117 2.67-2.495 0-1.378-1.195-2.495-2.67-2.495-1.475 0-2.67 1.117-2.67 2.495 0 1.378 1.196 2.495 2.67 2.495M86.701 49.662c1.995 0 3.613-1.566 3.613-3.498s-1.618-3.498-3.613-3.498c-1.995 0-3.613 1.566-3.613 3.498s1.618 3.498 3.613 3.498M113.005 56.525c3.256 0 5.894-2.607 5.894-5.825 0-3.216-2.638-5.824-5.894-5.824-3.255 0-5.893 2.608-5.893 5.824 0 3.217 2.638 5.825 5.893 5.825M100.523 32.255c4.414 0 7.992-3.584 7.992-8.005 0-4.422-3.578-8.006-7.992-8.006s-7.993 3.584-7.993 8.006c.001 4.421 3.579 8.005 7.993 8.005"/></g></g></svg>