<svg id="Layer_1" xmlns="http://www.w3.org/2000/svg" xmlns:xlink="http://www.w3.org/1999/xlink" viewBox="0 0 176 87.9"><style>.st0{clip-path:url(#SVGID_2_);fill:#fff}.st1{clip-path:url(#SVGID_4_);fill:none;stroke:#fff;stroke-width:.75;stroke-linecap:round;stroke-linejoin:round;stroke-miterlimit:10}.st2{clip-path:url(#SVGID_6_);fill:#fff}.st3{clip-path:url(#SVGID_8_);fill:none;stroke:#fff;stroke-width:.75;stroke-linecap:round;stroke-linejoin:round;stroke-miterlimit:10}.st4{clip-path:url(#SVGID_10_);fill:#fff}.st5{clip-path:url(#SVGID_12_);fill:none;stroke:#fff;stroke-width:.75;stroke-linecap:round;stroke-linejoin:round;stroke-miterlimit:10}.st6{clip-path:url(#SVGID_14_);fill:#fff}.st7{clip-path:url(#SVGID_16_);fill:none;stroke:#fff;stroke-width:.75;stroke-linecap:round;stroke-linejoin:round;stroke-miterlimit:10}.st8{clip-path:url(#SVGID_18_);fill:#fff}.st9{clip-path:url(#SVGID_20_);fill:none;stroke:#fff;stroke-width:.75;stroke-linecap:round;stroke-linejoin:round;stroke-miterlimit:10}.st10{clip-path:url(#SVGID_22_);fill:#fff}.st11{clip-path:url(#SVGID_24_);fill:none;stroke:#fff;stroke-width:.75;stroke-linecap:round;stroke-linejoin:round;stroke-miterlimit:10}.st12{clip-path:url(#SVGID_26_);fill:#fff}.st13{clip-path:url(#SVGID_28_);fill:none;stroke:#fff;stroke-width:.75;stroke-linecap:round;stroke-linejoin:round;stroke-miterlimit:10}.st14{clip-path:url(#SVGID_30_);fill:#fff}.st15{clip-path:url(#SVGID_32_);fill:none;stroke:#fff;stroke-width:.75;stroke-linecap:round;stroke-linejoin:round;stroke-miterlimit:10}.st16{clip-path:url(#SVGID_34_);fill:#fff}.st17{clip-path:url(#SVGID_36_);fill:none;stroke:#fff;stroke-width:.75;stroke-linecap:round;stroke-linejoin:round;stroke-miterlimit:10}.st18{clip-path:url(#SVGID_38_);fill:#fff}.st19{clip-path:url(#SVGID_40_);fill:none;stroke:#fff;stroke-width:.75;stroke-linecap:round;stroke-linejoin:round;stroke-miterlimit:10}.st20{clip-path:url(#SVGID_42_);fill:#fff}.st21{clip-path:url(#SVGID_44_);fill:none;stroke:#fff;stroke-width:.75;stroke-linecap:round;stroke-linejoin:round;stroke-miterlimit:10}.st22{clip-path:url(#SVGID_46_);fill:#fff}.st23{clip-path:url(#SVGID_48_);fill:none;stroke:#fff;stroke-width:.75;stroke-linecap:round;stroke-linejoin:round;stroke-miterlimit:10}.st24{clip-path:url(#SVGID_50_);fill:#fff}.st25{clip-path:url(#SVGID_52_);fill:none;stroke:#fff;stroke-width:.75;stroke-linecap:round;stroke-linejoin:round;stroke-miterlimit:10}.st26{clip-path:url(#SVGID_54_);fill:#fff}.st27{clip-path:url(#SVGID_56_);fill:none;stroke:#fff;stroke-width:.75;stroke-linecap:round;stroke-linejoin:round;stroke-miterlimit:10}.st28{clip-path:url(#SVGID_58_);fill:#fff}.st29{clip-path:url(#SVGID_60_);fill:none;stroke:#fff;stroke-width:.75;stroke-linecap:round;stroke-linejoin:round;stroke-miterlimit:10}.st30{clip-path:url(#SVGID_62_);fill:#fff}.st31{clip-path:url(#SVGID_64_);fill:none;stroke:#fff;stroke-width:.75;stroke-linecap:round;stroke-linejoin:round;stroke-miterlimit:10}.st32{clip-path:url(#SVGID_66_);fill:#fff}.st33{clip-path:url(#SVGID_68_);fill:none;stroke:#fff;stroke-width:.75;stroke-linecap:round;stroke-linejoin:round;stroke-miterlimit:10}.st34{clip-path:url(#SVGID_70_);fill:#fff}.st35{clip-path:url(#SVGID_72_);fill:none;stroke:#fff;stroke-width:.75;stroke-linecap:round;stroke-linejoin:round;stroke-miterlimit:10}.st36{clip-path:url(#SVGID_74_);fill:#fff}.st37{clip-path:url(#SVGID_76_);fill:none;stroke:#fff;stroke-width:.75;stroke-linecap:round;stroke-linejoin:round;stroke-miterlimit:10}.st38{clip-path:url(#SVGID_78_);fill:#fff}.st39{clip-path:url(#SVGID_80_);fill:none;stroke:#fff;stroke-width:.75;stroke-linecap:round;stroke-linejoin:round;stroke-miterlimit:10}.st40{clip-path:url(#SVGID_82_);fill:#fff}.st41{clip-path:url(#SVGID_84_);fill:none;stroke:#fff;stroke-width:.75;stroke-linecap:round;stroke-linejoin:round;stroke-miterlimit:10}.st42{clip-path:url(#SVGID_86_);fill:url(#SVGID_87_)}.st43,.st44{clip-path:url(#SVGID_89_);fill:none;stroke:#fff;stroke-width:2;stroke-miterlimit:10}.st44{clip-path:url(#SVGID_91_)}.st45{fill:#1399bc}</style><defs><path id="SVGID_1_" d="M19.4 5.8h76.4v76.4H19.4z"/></defs><clipPath id="SVGID_2_"><use xlink:href="#SVGID_1_" overflow="visible"/></clipPath><path class="st0" d="M80.6 39.3c0 .3-.3.6-.6.6H35.1c-.3 0-.6-.3-.6-.6v-1.9c0-.3.3-.6.6-.6H80c.3 0 .6.3.6.6v1.9zm-5.9 19.8c-.2 1.1-1.2 1.9-2.4 1.9H42.9c-1.1 0-2.2-.8-2.4-1.9l-3.8-18.3c0-.1 0-.2.1-.3s.2-.1.3-.1h41c.1 0 .2.1.3.1.1.1.1.2.1.3l-3.8 18.3zM48.2 26.9c3.6 0 6.8 1.7 8.5 4.3.1.1.1.2.1.3 0 .1-.1.2-.1.3-.4.3-.7.6-1 .9-.1.1-.1.2 0 .3h.3c1.2-1.3 2.9-2 4.8-2 1.4 0 2.7.4 3.7 1.1.1 0 .1.1.1.2.1 0 .3.2.4.2.4.3.7.7 1 1 0 .1.1.1.2.1.2-.1.2-.3.2-.3-.2-.3-.5-.7-.9-1-.2-.1-.2-.4 0-.5 1.1-1.2 2.8-1.8 5-1.8 3.7 0 5.9 3.6 6.1 6.3 0 .1 0 .2-.1.3s-.2.1-.3.1H38.9c-.1 0-.2 0-.3-.1s-.1-.2-.1-.3c.3-4.7 3.8-9.4 9.7-9.4M80 35.7h-2.2c-.2-1.6-.8-3.2-1.9-4.4-1.4-1.7-3.3-2.7-5.4-2.7-2.4 0-4.4.7-5.7 2.1-1.2-.7-2.5-1-3.9-1-1.1 0-2.3.2-3.3.7-2-3-5.6-4.7-9.4-4.7-6.5 0-10.4 5.1-10.8 10h-2.2c-1 0-1.8.8-1.8 1.8v1.9c0 1 .8 1.8 1.8 1.8h.4c1.3 6.1 2.5 12.2 3.8 18.2.3 1.7 1.8 2.9 3.5 2.9h29.4c1.7 0 3.2-1.2 3.5-2.9 1.3-6.1 2.5-12.2 3.8-18.2h.4c1 0 1.8-.8 1.8-1.8v-1.9c0-1-.8-1.8-1.8-1.8"/><defs><path id="SVGID_3_" d="M19.4 5.8h76.4v76.4H19.4z"/></defs><clipPath id="SVGID_4_"><use xlink:href="#SVGID_3_" overflow="visible"/></clipPath><path class="st1" d="M80.6 39.3c0 .3-.3.6-.6.6H35.1c-.3 0-.6-.3-.6-.6v-1.9c0-.3.3-.6.6-.6H80c.3 0 .6.3.6.6v1.9zm-5.9 19.8c-.2 1.1-1.2 1.9-2.4 1.9H42.9c-1.1 0-2.2-.8-2.4-1.9l-3.8-18.3c0-.1 0-.2.1-.3s.2-.1.3-.1h41c.1 0 .2.1.3.1.1.1.1.2.1.3l-3.8 18.3zM48.2 26.9c3.6 0 6.8 1.7 8.5 4.3.1.1.1.2.1.3 0 .1-.1.2-.1.3-.4.3-.7.6-1 .9-.1.1-.1.2 0 .3h.3c1.2-1.3 2.9-2 4.8-2 1.4 0 2.7.4 3.7 1.1.1 0 .1.1.1.2.1 0 .3.2.4.2.4.3.7.7 1 1 0 .1.1.1.2.1.2-.1.2-.3.2-.3-.2-.3-.5-.7-.9-1-.2-.1-.2-.4 0-.5 1.1-1.2 2.8-1.8 5-1.8 3.7 0 5.9 3.6 6.1 6.3 0 .1 0 .2-.1.3s-.2.1-.3.1H38.9c-.1 0-.2 0-.3-.1s-.1-.2-.1-.3c.3-4.7 3.8-9.4 9.7-9.4zM80 35.7h-2.2c-.2-1.6-.8-3.2-1.9-4.4-1.4-1.7-3.3-2.7-5.4-2.7-2.4 0-4.4.7-5.7 2.1-1.2-.7-2.5-1-3.9-1-1.1 0-2.3.2-3.3.7-2-3-5.6-4.7-9.4-4.7-6.5 0-10.4 5.1-10.8 10h-2.2c-1 0-1.8.8-1.8 1.8v1.9c0 1 .8 1.8 1.8 1.8h.4c1.3 6.1 2.5 12.2 3.8 18.2.3 1.7 1.8 2.9 3.5 2.9h29.4c1.7 0 3.2-1.2 3.5-2.9 1.3-6.1 2.5-12.2 3.8-18.2h.4c1 0 1.8-.8 1.8-1.8v-1.9c0-1-.8-1.8-1.8-1.8z"/><defs><path id="SVGID_5_" d="M19.4 5.8h76.4v76.4H19.4z"/></defs><clipPath id="SVGID_6_"><use xlink:href="#SVGID_5_" overflow="visible"/></clipPath><path class="st2" d="M46.6 48.5c0 .3 0 .5-.2.7s-.4.3-.7.3h-3.1c-.4 0-.8-.3-.9-.7-.1-.3 0-.5.2-.8.2-.2.4-.3.7-.3h3.1c.5 0 .9.4.9.8zm-4-1.5c-.5 0-1 .2-1.3.6-.3.4-.4.9-.3 1.4.2.8.9 1.3 1.7 1.3h3.1c.5 0 1-.2 1.3-.6.3-.4.5-.9.4-1.4-.1-.8-.8-1.4-1.7-1.4h-3.2v.1z"/><defs><path id="SVGID_7_" d="M19.4 5.8h76.4v76.4H19.4z"/></defs><clipPath id="SVGID_8_"><use xlink:href="#SVGID_7_" overflow="visible"/></clipPath><path class="st3" d="M46.6 48.5c0 .3 0 .5-.2.7s-.4.3-.7.3h-3.1c-.4 0-.8-.3-.9-.7-.1-.3 0-.5.2-.8.2-.2.4-.3.7-.3h3.1c.5 0 .9.4.9.8zm-4-1.5c-.5 0-1 .2-1.3.6-.3.4-.4.9-.3 1.4.2.8.9 1.3 1.7 1.3h3.1c.5 0 1-.2 1.3-.6.3-.4.5-.9.4-1.4-.1-.8-.8-1.4-1.7-1.4h-3.2v.1z"/><defs><path id="SVGID_9_" d="M19.4 5.8h76.4v76.4H19.4z"/></defs><clipPath id="SVGID_10_"><use xlink:href="#SVGID_9_" overflow="visible"/></clipPath><path class="st4" d="M53.1 49.3c-.2.2-.4.3-.7.3h-3.1c-.5 0-.9-.3-.9-.8 0-.3 0-.5.2-.7s.4-.3.7-.3h3.1c.5 0 .9.4.9.9.1.2 0 .4-.2.6zm-.7-2.3h-3.1c-.5 0-.9.2-1.3.6-.3.4-.5.8-.4 1.3.1.9.8 1.5 1.7 1.5h3.1c.5 0 .9-.2 1.2-.5s.5-.8.5-1.3c0-.9-.8-1.6-1.7-1.6"/><defs><path id="SVGID_11_" d="M19.4 5.8h76.4v76.4H19.4z"/></defs><clipPath id="SVGID_12_"><use xlink:href="#SVGID_11_" overflow="visible"/></clipPath><path class="st5" d="M53.1 49.3c-.2.2-.4.3-.7.3h-3.1c-.5 0-.9-.3-.9-.8 0-.3 0-.5.2-.7s.4-.3.7-.3h3.1c.5 0 .9.4.9.9.1.2 0 .4-.2.6zm-.7-2.3h-3.1c-.5 0-.9.2-1.3.6-.3.4-.5.8-.4 1.3.1.9.8 1.5 1.7 1.5h3.1c.5 0 .9-.2 1.2-.5s.5-.8.5-1.3c0-.9-.8-1.6-1.7-1.6z"/><defs><path id="SVGID_13_" d="M19.4 5.8h76.4v76.4H19.4z"/></defs><clipPath id="SVGID_14_"><use xlink:href="#SVGID_13_" overflow="visible"/></clipPath><path class="st6" d="M59.2 49.6H56c-.5 0-.9-.4-.9-.9 0-.2.1-.5.3-.7s.4-.3.7-.3h3.1c.2 0 .5.1.7.3s.3.4.3.7c-.2.5-.5.9-1 .9m0-2.6H56c-.5 0-.9.2-1.2.5s-.5.8-.5 1.2c0 .9.8 1.6 1.7 1.6h3.1c.9 0 1.7-.7 1.7-1.6 0-.5-.2-.9-.5-1.2-.3-.4-.7-.5-1.1-.5"/><defs><path id="SVGID_15_" d="M19.4 5.8h76.4v76.4H19.4z"/></defs><clipPath id="SVGID_16_"><use xlink:href="#SVGID_15_" overflow="visible"/></clipPath><path class="st7" d="M59.2 49.6H56c-.5 0-.9-.4-.9-.9 0-.2.1-.5.3-.7s.4-.3.7-.3h3.1c.2 0 .5.1.7.3s.3.4.3.7c-.2.5-.5.9-1 .9zm0-2.6H56c-.5 0-.9.2-1.2.5s-.5.8-.5 1.2c0 .9.8 1.6 1.7 1.6h3.1c.9 0 1.7-.7 1.7-1.6 0-.5-.2-.9-.5-1.2-.3-.4-.7-.5-1.1-.5z"/><defs><path id="SVGID_17_" d="M19.4 5.8h76.4v76.4H19.4z"/></defs><clipPath id="SVGID_18_"><use xlink:href="#SVGID_17_" overflow="visible"/></clipPath><path class="st8" d="M47.3 52.6c0 .3 0 .5-.2.7s-.4.3-.7.3h-2.9c-.4 0-.8-.3-.9-.7-.1-.3 0-.6.2-.8s.4-.3.7-.3h2.9c.4 0 .8.3.9.8zM43.5 51c-.5 0-1 .2-1.3.6-.3.4-.4.9-.3 1.4.2.8.9 1.3 1.7 1.3h2.9c.5 0 1-.2 1.3-.6.3-.4.5-.9.4-1.4-.1-.8-.8-1.4-1.7-1.4l-3 .1z"/><defs><path id="SVGID_19_" d="M19.4 5.8h76.4v76.4H19.4z"/></defs><clipPath id="SVGID_20_"><use xlink:href="#SVGID_19_" overflow="visible"/></clipPath><path class="st9" d="M47.3 52.6c0 .3 0 .5-.2.7s-.4.3-.7.3h-2.9c-.4 0-.8-.3-.9-.7-.1-.3 0-.6.2-.8s.4-.3.7-.3h2.9c.4 0 .8.3.9.8zM43.5 51c-.5 0-1 .2-1.3.6-.3.4-.4.9-.3 1.4.2.8.9 1.3 1.7 1.3h2.9c.5 0 1-.2 1.3-.6.3-.4.5-.9.4-1.4-.1-.8-.8-1.4-1.7-1.4l-3 .1z"/><defs><path id="SVGID_21_" d="M19.4 5.8h76.4v76.4H19.4z"/></defs><clipPath id="SVGID_22_"><use xlink:href="#SVGID_21_" overflow="visible"/></clipPath><path class="st10" d="M53.4 53.3c-.2.2-.4.3-.7.3h-2.9c-.5 0-.9-.3-.9-.8 0-.3 0-.5.2-.7s.4-.3.7-.3h2.9c.5 0 .9.4.9.9 0 .2 0 .5-.2.6zm-.7-2.3h-2.9c-.5 0-.9.2-1.3.6-.3.4-.5.8-.4 1.3.1.9.8 1.5 1.7 1.5h2.9c.5 0 .9-.2 1.2-.5s.5-.8.5-1.3c0-.9-.8-1.6-1.7-1.6"/><defs><path id="SVGID_23_" d="M19.4 5.8h76.4v76.4H19.4z"/></defs><clipPath id="SVGID_24_"><use xlink:href="#SVGID_23_" overflow="visible"/></clipPath><path class="st11" d="M53.4 53.3c-.2.2-.4.3-.7.3h-2.9c-.5 0-.9-.3-.9-.8 0-.3 0-.5.2-.7s.4-.3.7-.3h2.9c.5 0 .9.4.9.9 0 .2 0 .5-.2.6zm-.7-2.3h-2.9c-.5 0-.9.2-1.3.6-.3.4-.5.8-.4 1.3.1.9.8 1.5 1.7 1.5h2.9c.5 0 .9-.2 1.2-.5s.5-.8.5-1.3c0-.9-.8-1.6-1.7-1.6z"/><defs><path id="SVGID_25_" d="M19.4 5.8h76.4v76.4H19.4z"/></defs><clipPath id="SVGID_26_"><use xlink:href="#SVGID_25_" overflow="visible"/></clipPath><path class="st12" d="M59.1 53.6h-3c-.5 0-.9-.4-.9-.9 0-.2.1-.5.3-.7s.4-.3.7-.3h3c.2 0 .5.1.7.3s.3.4.3.7c-.2.5-.6.9-1.1.9m0-2.6h-3c-.5 0-.9.2-1.2.5s-.5.8-.5 1.2c0 .9.8 1.6 1.7 1.6h3c.9 0 1.7-.7 1.7-1.6 0-.5-.2-.9-.5-1.2s-.8-.5-1.2-.5"/><defs><path id="SVGID_27_" d="M19.4 5.8h76.4v76.4H19.4z"/></defs><clipPath id="SVGID_28_"><use xlink:href="#SVGID_27_" overflow="visible"/></clipPath><path class="st13" d="M59.1 53.6h-3c-.5 0-.9-.4-.9-.9 0-.2.1-.5.3-.7s.4-.3.7-.3h3c.2 0 .5.1.7.3s.3.4.3.7c-.2.5-.6.9-1.1.9zm0-2.6h-3c-.5 0-.9.2-1.2.5s-.5.8-.5 1.2c0 .9.8 1.6 1.7 1.6h3c.9 0 1.7-.7 1.7-1.6 0-.5-.2-.9-.5-1.2s-.8-.5-1.2-.5z"/><g><defs><path id="SVGID_29_" d="M19.4 5.8h76.4v76.4H19.4z"/></defs><clipPath id="SVGID_30_"><use xlink:href="#SVGID_29_" overflow="visible"/></clipPath><path class="st14" d="M41.1 44c.2-.2.4-.3.7-.3h3.3c.5 0 .8.3.9.8 0 .3 0 .5-.2.7s-.4.3-.7.3h-3.3c-.4 0-.8-.3-.9-.7 0-.3 0-.6.2-.8zm-.9.9c.2.8.9 1.3 1.7 1.3h3.3c.5 0 1-.2 1.3-.6.3-.4.5-.9.4-1.4-.1-.8-.8-1.4-1.7-1.4h-3.3c-.5 0-1 .2-1.3.6-.4.5-.5 1-.4 1.5z"/></g><g><defs><path id="SVGID_31_" d="M19.4 5.8h76.4v76.4H19.4z"/></defs><clipPath id="SVGID_32_"><use xlink:href="#SVGID_31_" overflow="visible"/></clipPath><path class="st15" d="M41.1 44c.2-.2.4-.3.7-.3h3.3c.5 0 .8.3.9.8 0 .3 0 .5-.2.7s-.4.3-.7.3h-3.3c-.4 0-.8-.3-.9-.7 0-.3 0-.6.2-.8zm-.9.9c.2.8.9 1.3 1.7 1.3h3.3c.5 0 1-.2 1.3-.6.3-.4.5-.9.4-1.4-.1-.8-.8-1.4-1.7-1.4h-3.3c-.5 0-1 .2-1.3.6-.4.5-.5 1-.4 1.5z"/></g><g><defs><path id="SVGID_33_" d="M19.4 5.8h76.4v76.4H19.4z"/></defs><clipPath id="SVGID_34_"><use xlink:href="#SVGID_33_" overflow="visible"/></clipPath><path class="st16" d="M48.2 44c.2-.2.4-.3.7-.3h3.3c.5 0 .9.4.9.9 0 .3-.1.5-.2.7-.2.2-.4.3-.7.3h-3.3c-.5 0-.9-.3-.9-.8-.1-.4 0-.6.2-.8zm.7 2.3h3.3c.5 0 .9-.2 1.2-.5s.5-.8.5-1.3c-.1-.9-.8-1.6-1.7-1.6h-3.3c-.5 0-.9.2-1.3.6-.3.4-.5.8-.4 1.3.1.9.8 1.5 1.7 1.5"/></g><g><defs><path id="SVGID_35_" d="M19.4 5.8h76.4v76.4H19.4z"/></defs><clipPath id="SVGID_36_"><use xlink:href="#SVGID_35_" overflow="visible"/></clipPath><path class="st17" d="M48.2 44c.2-.2.4-.3.7-.3h3.3c.5 0 .9.4.9.9 0 .3-.1.5-.2.7-.2.2-.4.3-.7.3h-3.3c-.5 0-.9-.3-.9-.8-.1-.4 0-.6.2-.8zm.7 2.3h3.3c.5 0 .9-.2 1.2-.5s.5-.8.5-1.3c-.1-.9-.8-1.6-1.7-1.6h-3.3c-.5 0-.9.2-1.3.6-.3.4-.5.8-.4 1.3.1.9.8 1.5 1.7 1.5z"/></g><g><defs><path id="SVGID_37_" d="M19.4 5.8h76.4v76.4H19.4z"/></defs><clipPath id="SVGID_38_"><use xlink:href="#SVGID_37_" overflow="visible"/></clipPath><path class="st18" d="M55.3 44c.2-.2.4-.3.7-.3h3.3c.2 0 .5.1.7.3s.3.4.3.7c0 .5-.4.9-.9.9h-3.3c-.5 0-.9-.4-.9-.9-.2-.3-.1-.6.1-.7zm.6 2.3h3.3c.9 0 1.7-.7 1.7-1.6 0-.5-.2-.9-.5-1.2s-.8-.5-1.2-.5h-3.3c-.5 0-.9.2-1.2.5s-.5.8-.5 1.2c0 .9.8 1.6 1.7 1.6"/></g><g><defs><path id="SVGID_39_" d="M19.4 5.8h76.4v76.4H19.4z"/></defs><clipPath id="SVGID_40_"><use xlink:href="#SVGID_39_" overflow="visible"/></clipPath><path class="st19" d="M55.3 44c.2-.2.4-.3.7-.3h3.3c.2 0 .5.1.7.3s.3.4.3.7c0 .5-.4.9-.9.9h-3.3c-.5 0-.9-.4-.9-.9-.2-.3-.1-.6.1-.7zm.6 2.3h3.3c.9 0 1.7-.7 1.7-1.6 0-.5-.2-.9-.5-1.2s-.8-.5-1.2-.5h-3.3c-.5 0-.9.2-1.2.5s-.5.8-.5 1.2c0 .9.8 1.6 1.7 1.6z"/></g><g><defs><path id="SVGID_41_" d="M19.4 5.8h76.4v76.4H19.4z"/></defs><clipPath id="SVGID_42_"><use xlink:href="#SVGID_41_" overflow="visible"/></clipPath><path class="st20" d="M47.6 57.4c-.2.2-.4.3-.7.3h-2.6c-.4 0-.8-.3-.9-.7-.1-.3 0-.5.2-.8.2-.2.4-.3.7-.3h2.6c.5 0 .8.3.9.8.1.2 0 .5-.2.7m-.7-2.3h-2.6c-.5 0-1 .2-1.3.6-.3.4-.4.9-.3 1.4.2.8.9 1.3 1.7 1.3H47c.5 0 1-.2 1.3-.6.3-.4.5-.9.4-1.4-.2-.7-1-1.3-1.8-1.3"/></g><g><defs><path id="SVGID_43_" d="M19.4 5.8h76.4v76.4H19.4z"/></defs><clipPath id="SVGID_44_"><use xlink:href="#SVGID_43_" overflow="visible"/></clipPath><path class="st21" d="M47.6 57.4c-.2.2-.4.3-.7.3h-2.6c-.4 0-.8-.3-.9-.7-.1-.3 0-.5.2-.8.2-.2.4-.3.7-.3h2.6c.5 0 .8.3.9.8.1.2 0 .5-.2.7zm-.7-2.3h-2.6c-.5 0-1 .2-1.3.6-.3.4-.4.9-.3 1.4.2.8.9 1.3 1.7 1.3H47c.5 0 1-.2 1.3-.6.3-.4.5-.9.4-1.4-.2-.7-1-1.3-1.8-1.3z"/></g><g><defs><path id="SVGID_45_" d="M19.4 5.8h76.4v76.4H19.4z"/></defs><clipPath id="SVGID_46_"><use xlink:href="#SVGID_45_" overflow="visible"/></clipPath><path class="st22" d="M53.6 57.4c-.2.2-.4.3-.7.3h-2.6c-.5 0-.9-.3-.9-.8 0-.3 0-.5.2-.7s.4-.3.7-.3h2.6c.5 0 .9.4.9.9 0 .2-.1.4-.2.6m-.7-2.3h-2.6c-.5 0-.9.2-1.3.6-.3.4-.5.8-.4 1.3.1.9.8 1.5 1.7 1.5h2.6c.5 0 .9-.2 1.2-.5s.5-.8.5-1.3c-.1-.9-.8-1.6-1.7-1.6"/></g><g><defs><path id="SVGID_47_" d="M19.4 5.8h76.4v76.4H19.4z"/></defs><clipPath id="SVGID_48_"><use xlink:href="#SVGID_47_" overflow="visible"/></clipPath><path class="st23" d="M53.6 57.4c-.2.2-.4.3-.7.3h-2.6c-.5 0-.9-.3-.9-.8 0-.3 0-.5.2-.7s.4-.3.7-.3h2.6c.5 0 .9.4.9.9 0 .2-.1.4-.2.6zm-.7-2.3h-2.6c-.5 0-.9.2-1.3.6-.3.4-.5.8-.4 1.3.1.9.8 1.5 1.7 1.5h2.6c.5 0 .9-.2 1.2-.5s.5-.8.5-1.3c-.1-.9-.8-1.6-1.7-1.6z"/></g><g><defs><path id="SVGID_49_" d="M19.4 5.8h76.4v76.4H19.4z"/></defs><clipPath id="SVGID_50_"><use xlink:href="#SVGID_49_" overflow="visible"/></clipPath><path class="st24" d="M58.9 57.7h-2.6c-.5 0-.9-.4-.9-.9 0-.2.1-.5.3-.7s.4-.3.7-.3H59c.2 0 .5.1.7.3s.3.4.3.7c-.2.5-.6.9-1.1.9m0-2.6h-2.6c-.5 0-.9.2-1.2.5s-.5.8-.5 1.2c0 .9.8 1.6 1.7 1.6h2.6c.9 0 1.7-.7 1.7-1.6 0-.5-.2-.9-.5-1.2-.3-.3-.8-.5-1.2-.5"/></g><g><defs><path id="SVGID_51_" d="M19.4 5.8h76.4v76.4H19.4z"/></defs><clipPath id="SVGID_52_"><use xlink:href="#SVGID_51_" overflow="visible"/></clipPath><path class="st25" d="M58.9 57.7h-2.6c-.5 0-.9-.4-.9-.9 0-.2.1-.5.3-.7s.4-.3.7-.3H59c.2 0 .5.1.7.3s.3.4.3.7c-.2.5-.6.9-1.1.9zm0-2.6h-2.6c-.5 0-.9.2-1.2.5s-.5.8-.5 1.2c0 .9.8 1.6 1.7 1.6h2.6c.9 0 1.7-.7 1.7-1.6 0-.5-.2-.9-.5-1.2-.3-.3-.8-.5-1.2-.5z"/></g><g><defs><path id="SVGID_53_" d="M19.4 5.8h76.4v76.4H19.4z"/></defs><clipPath id="SVGID_54_"><use xlink:href="#SVGID_53_" overflow="visible"/></clipPath><path class="st26" d="M68.5 48.5c.1-.4.5-.8.9-.8h3.1c.3 0 .5.1.7.3s.2.5.2.8c-.1.4-.5.7-.9.7h-3.1c-.3 0-.5-.1-.7-.3s-.2-.4-.2-.7zm.9 1.8h3.1c.8 0 1.5-.6 1.7-1.3.1-.5 0-1-.3-1.4s-.9-.6-1.4-.6h-3.1c-.8 0-1.6.6-1.7 1.4-.1.5.1 1 .4 1.4.4.3.8.5 1.3.5"/></g><g><defs><path id="SVGID_55_" d="M19.4 5.8h76.4v76.4H19.4z"/></defs><clipPath id="SVGID_56_"><use xlink:href="#SVGID_55_" overflow="visible"/></clipPath><path class="st27" d="M68.5 48.5c.1-.4.5-.8.9-.8h3.1c.3 0 .5.1.7.3s.2.5.2.8c-.1.4-.5.7-.9.7h-3.1c-.3 0-.5-.1-.7-.3s-.2-.4-.2-.7zm.9 1.8h3.1c.8 0 1.5-.6 1.7-1.3.1-.5 0-1-.3-1.4s-.9-.6-1.4-.6h-3.1c-.8 0-1.6.6-1.7 1.4-.1.5.1 1 .4 1.4.4.3.8.5 1.3.5z"/></g><g><defs><path id="SVGID_57_" d="M19.4 5.8h76.4v76.4H19.4z"/></defs><clipPath id="SVGID_58_"><use xlink:href="#SVGID_57_" overflow="visible"/></clipPath><path class="st28" d="M62.7 47.7h3.1c.3 0 .5.1.7.3s.3.5.2.7c-.1.5-.4.8-.9.8h-3.1c-.3 0-.5-.1-.7-.3s-.3-.4-.2-.7c0-.4.4-.8.9-.8m0 2.6h3.1c.9 0 1.6-.6 1.7-1.5.1-.5-.1-1-.4-1.3-.3-.4-.8-.6-1.3-.6h-3.1c-.9 0-1.6.7-1.7 1.6 0 .5.1.9.5 1.3.3.4.7.5 1.2.5"/></g><g><defs><path id="SVGID_59_" d="M19.4 5.8h76.4v76.4H19.4z"/></defs><clipPath id="SVGID_60_"><use xlink:href="#SVGID_59_" overflow="visible"/></clipPath><path class="st29" d="M62.7 47.7h3.1c.3 0 .5.1.7.3s.3.5.2.7c-.1.5-.4.8-.9.8h-3.1c-.3 0-.5-.1-.7-.3s-.3-.4-.2-.7c0-.4.4-.8.9-.8zm0 2.6h3.1c.9 0 1.6-.6 1.7-1.5.1-.5-.1-1-.4-1.3-.3-.4-.8-.6-1.3-.6h-3.1c-.9 0-1.6.7-1.7 1.6 0 .5.1.9.5 1.3.3.4.7.5 1.2.5z"/></g><g><defs><path id="SVGID_61_" d="M19.4 5.8h76.4v76.4H19.4z"/></defs><clipPath id="SVGID_62_"><use xlink:href="#SVGID_61_" overflow="visible"/></clipPath><path class="st30" d="M67.9 52.6c.1-.4.5-.8.9-.8h2.9c.3 0 .5.1.7.3s.2.5.2.8c-.1.4-.5.7-.9.7h-2.9c-.3 0-.5-.1-.7-.3s-.3-.5-.2-.7zm-.4 1.2c.3.4.8.6 1.3.6h2.9c.8 0 1.5-.6 1.7-1.3.1-.5 0-1-.3-1.4s-.8-.6-1.3-.6h-2.9c-.8 0-1.6.6-1.7 1.4-.2.4 0 .9.3 1.3z"/></g><g><defs><path id="SVGID_63_" d="M19.4 5.8h76.4v76.4H19.4z"/></defs><clipPath id="SVGID_64_"><use xlink:href="#SVGID_63_" overflow="visible"/></clipPath><path class="st31" d="M67.9 52.6c.1-.4.5-.8.9-.8h2.9c.3 0 .5.1.7.3s.2.5.2.8c-.1.4-.5.7-.9.7h-2.9c-.3 0-.5-.1-.7-.3s-.3-.5-.2-.7zm-.4 1.2c.3.4.8.6 1.3.6h2.9c.8 0 1.5-.6 1.7-1.3.1-.5 0-1-.3-1.4s-.8-.6-1.3-.6h-2.9c-.8 0-1.6.6-1.7 1.4-.2.4 0 .9.3 1.3z"/></g><g><defs><path id="SVGID_65_" d="M19.4 5.8h76.4v76.4H19.4z"/></defs><clipPath id="SVGID_66_"><use xlink:href="#SVGID_65_" overflow="visible"/></clipPath><path class="st32" d="M62.4 51.8h2.9c.3 0 .5.1.7.3s.3.5.2.7c-.1.5-.4.8-.9.8h-2.9c-.3 0-.5-.1-.7-.3s-.3-.4-.2-.7c.1-.4.5-.8.9-.8m0 2.6h2.9c.9 0 1.6-.6 1.7-1.5.1-.5-.1-1-.4-1.3-.3-.4-.8-.6-1.3-.6h-2.9c-.9 0-1.6.7-1.7 1.6 0 .5.1.9.5 1.3s.8.5 1.2.5"/></g><g><defs><path id="SVGID_67_" d="M19.4 5.8h76.4v76.4H19.4z"/></defs><clipPath id="SVGID_68_"><use xlink:href="#SVGID_67_" overflow="visible"/></clipPath><path class="st33" d="M62.4 51.8h2.9c.3 0 .5.1.7.3s.3.5.2.7c-.1.5-.4.8-.9.8h-2.9c-.3 0-.5-.1-.7-.3s-.3-.4-.2-.7c.1-.4.5-.8.9-.8zm0 2.6h2.9c.9 0 1.6-.6 1.7-1.5.1-.5-.1-1-.4-1.3-.3-.4-.8-.6-1.3-.6h-2.9c-.9 0-1.6.7-1.7 1.6 0 .5.1.9.5 1.3s.8.5 1.2.5z"/></g><g><defs><path id="SVGID_69_" d="M19.4 5.8h76.4v76.4H19.4z"/></defs><clipPath id="SVGID_70_"><use xlink:href="#SVGID_69_" overflow="visible"/></clipPath><path class="st34" d="M69.1 44.5c.1-.4.5-.8.9-.8h3.3c.3 0 .5.1.7.3s.2.5.2.8c-.1.4-.5.7-.9.7H70c-.3 0-.5-.1-.7-.3-.1-.2-.2-.5-.2-.7zm.9 1.8h3.3c.8 0 1.5-.6 1.7-1.3.1-.5 0-1-.3-1.4s-.8-.6-1.3-.6H70c-.8 0-1.6.6-1.7 1.4-.1.5.1 1 .4 1.4.4.3.9.5 1.3.5"/></g><g><defs><path id="SVGID_71_" d="M19.4 5.8h76.4v76.4H19.4z"/></defs><clipPath id="SVGID_72_"><use xlink:href="#SVGID_71_" overflow="visible"/></clipPath><path class="st35" d="M69.1 44.5c.1-.4.5-.8.9-.8h3.3c.3 0 .5.1.7.3s.2.5.2.8c-.1.4-.5.7-.9.7H70c-.3 0-.5-.1-.7-.3-.1-.2-.2-.5-.2-.7zm.9 1.8h3.3c.8 0 1.5-.6 1.7-1.3.1-.5 0-1-.3-1.4s-.8-.6-1.3-.6H70c-.8 0-1.6.6-1.7 1.4-.1.5.1 1 .4 1.4.4.3.9.5 1.3.5z"/></g><g><defs><path id="SVGID_73_" d="M19.4 5.8h76.4v76.4H19.4z"/></defs><clipPath id="SVGID_74_"><use xlink:href="#SVGID_73_" overflow="visible"/></clipPath><path class="st36" d="M63 43.7h3.3c.3 0 .5.1.7.3s.3.5.2.7c-.1.5-.4.8-.9.8H63c-.3 0-.5-.1-.7-.3s-.3-.4-.2-.7c0-.4.4-.8.9-.8m0 2.6h3.3c.9 0 1.6-.6 1.7-1.5.1-.5-.1-1-.4-1.3-.3-.4-.8-.6-1.3-.6H63c-.9 0-1.6.7-1.7 1.6 0 .5.1.9.5 1.3.3.3.7.5 1.2.5"/></g><g><defs><path id="SVGID_75_" d="M19.4 5.8h76.4v76.4H19.4z"/></defs><clipPath id="SVGID_76_"><use xlink:href="#SVGID_75_" overflow="visible"/></clipPath><path class="st37" d="M63 43.7h3.3c.3 0 .5.1.7.3s.3.5.2.7c-.1.5-.4.8-.9.8H63c-.3 0-.5-.1-.7-.3s-.3-.4-.2-.7c0-.4.4-.8.9-.8zm0 2.6h3.3c.9 0 1.6-.6 1.7-1.5.1-.5-.1-1-.4-1.3-.3-.4-.8-.6-1.3-.6H63c-.9 0-1.6.7-1.7 1.6 0 .5.1.9.5 1.3.3.3.7.5 1.2.5z"/></g><g><defs><path id="SVGID_77_" d="M19.4 5.8h76.4v76.4H19.4z"/></defs><clipPath id="SVGID_78_"><use xlink:href="#SVGID_77_" overflow="visible"/></clipPath><path class="st38" d="M71.7 57c-.1.4-.5.7-.9.7h-2.6c-.3 0-.5-.1-.7-.3s-.3-.5-.2-.7c.1-.4.5-.8.9-.8h2.6c.3 0 .5.1.7.3s.3.5.2.8zm-.9-1.9h-2.6c-.8 0-1.6.6-1.7 1.4-.1.5.1 1 .4 1.4s.8.6 1.3.6h2.6c.8 0 1.5-.6 1.7-1.3.1-.5 0-1-.3-1.4s-.9-.7-1.4-.7"/></g><g><defs><path id="SVGID_79_" d="M19.4 5.8h76.4v76.4H19.4z"/></defs><clipPath id="SVGID_80_"><use xlink:href="#SVGID_79_" overflow="visible"/></clipPath><path class="st39" d="M71.7 57c-.1.4-.5.7-.9.7h-2.6c-.3 0-.5-.1-.7-.3s-.3-.5-.2-.7c.1-.4.5-.8.9-.8h2.6c.3 0 .5.1.7.3s.3.5.2.8zm-.9-1.9h-2.6c-.8 0-1.6.6-1.7 1.4-.1.5.1 1 .4 1.4s.8.6 1.3.6h2.6c.8 0 1.5-.6 1.7-1.3.1-.5 0-1-.3-1.4s-.9-.7-1.4-.7z"/></g><g><defs><path id="SVGID_81_" d="M19.4 5.8h76.4v76.4H19.4z"/></defs><clipPath id="SVGID_82_"><use xlink:href="#SVGID_81_" overflow="visible"/></clipPath><path class="st40" d="M62.3 55.9h2.6c.3 0 .5.1.7.3s.3.5.2.7c-.1.5-.4.8-.9.8h-2.6c-.3 0-.5-.1-.7-.3s-.3-.4-.2-.7c0-.5.4-.8.9-.8m0 2.6h2.6c.9 0 1.6-.6 1.7-1.5.1-.5-.1-1-.4-1.3-.3-.4-.8-.6-1.3-.6h-2.6c-.9 0-1.6.7-1.7 1.6 0 .5.1.9.5 1.3.2.3.7.5 1.2.5"/></g><g><defs><path id="SVGID_83_" d="M19.4 5.8h76.4v76.4H19.4z"/></defs><clipPath id="SVGID_84_"><use xlink:href="#SVGID_83_" overflow="visible"/></clipPath><path class="st41" d="M62.3 55.9h2.6c.3 0 .5.1.7.3s.3.5.2.7c-.1.5-.4.8-.9.8h-2.6c-.3 0-.5-.1-.7-.3s-.3-.4-.2-.7c0-.5.4-.8.9-.8zm0 2.6h2.6c.9 0 1.6-.6 1.7-1.5.1-.5-.1-1-.4-1.3-.3-.4-.8-.6-1.3-.6h-2.6c-.9 0-1.6.7-1.7 1.6 0 .5.1.9.5 1.3.2.3.7.5 1.2.5z"/></g><g><defs><path id="SVGID_85_" d="M57.4 5.8c-15.5.1-30 9.6-35.6 25-7.3 19.8 2.8 41.7 22.6 49s41.7-2.8 49-22.6c1.6-4.3 2.3-8.7 2.4-13v-.4c-.1-15.5-9.6-30-25-35.6-4.3-1.6-8.7-2.3-13-2.4h-.4z"/></defs><clipPath id="SVGID_86_"><use xlink:href="#SVGID_85_" overflow="visible"/></clipPath><linearGradient id="SVGID_87_" gradientUnits="userSpaceOnUse" x1="-256.165" y1="471.872" x2="-255.166" y2="471.872" gradientTransform="scale(-76.3346) rotate(20.25 1194.716 949.397)"><stop offset="0" stop-color="#087ea6"/><stop offset="1" stop-color="#1ba3c3"/></linearGradient><path class="st42" d="M122.1 15.5L24.2-20.6l-36.1 97.9L86 113.4z"/></g><g><defs><path id="SVGID_88_" d="M19.4 5.8h76.4v76.4H19.4z"/></defs><clipPath id="SVGID_89_"><use xlink:href="#SVGID_88_" overflow="visible"/></clipPath><path class="st43" d="M37.5 60c0 2.8 2.2 5 5 5h23c-2.8 0-5-2.2-5-5h-23zm6-.1v-5m0-23.2V28c0-2.8 2.2-5 5-5h27c-2.8 0-5 2.2-5 5v32c0 2.8-2.2 5-5 5h-22m30-37h5v-1c0-2.3-1.8-4-4-4h-4"/><g><defs><path id="SVGID_90_" d="M19.4 5.8h76.4v76.4H19.4z"/></defs><clipPath id="SVGID_91_"><use xlink:href="#SVGID_90_" overflow="visible"/></clipPath><path class="st44" d="M47.2 39.3l-3.6-4.1-3.5 4c-1.4 1.5-3.4 3.4-3.4 5.9 0 3.8 3.1 6.8 6.8 6.8 3.8 0 6.9-3.1 6.9-6.8 0-2.4-1.6-4.1-3.2-5.8z"/></g></g><g><path class="st45" d="M128.4 25.1c.7.7 1.5 1 2.4 1 1 0 1.6-.5 1.6-1.2 0-.8-.6-1-1.4-1.3l-1.2-.6c-.9-.3-1.9-1.1-1.9-2.4 0-1.5 1.3-2.6 3.1-2.6 1.1 0 2.2.5 2.8 1.1l-.9 1.1c-.6-.5-1.2-.8-2-.8s-1.4.4-1.4 1.1.7 1 1.5 1.3l1.2.6c1.1.5 1.9 1.1 1.9 2.5 0 1.5-1.2 2.7-3.3 2.7-1.2 0-2.4-.5-3.3-1.3l.9-1.2zM137.2 19.6h-2.6v-1.3h6.9v1.4h-2.6v7.8h-1.6l-.1-7.9zM143 18.3h5.5v1.4h-3.9V22h3.3v1.4h-3.3v2.7h4v1.4H143v-9.2zM150.5 18.3h3.1c2 0 3.5.8 3.5 2.8s-1.5 3-3.5 3h-1.5v3.4h-1.6v-9.2zm3.1 4.5c1.4 0 2.1-.6 2.1-1.7s-.7-1.5-2.1-1.5h-1.3v3.2h1.3zM131.4 66.3c8.8-8.5 14.4-14.1 14.4-18.9 0-3.4-1.9-5.4-5.3-5.4-2.4 0-4.5 1.6-6.2 3.6l-3.2-3.2c2.9-3.1 5.7-4.9 10.1-4.9 6.1 0 10 3.8 10 9.7 0 5.6-5.3 11.4-11.4 18 1.6-.2 3.8-.4 5.3-.4h7.8v4.9h-21.5v-3.4z"/></g></svg>