<svg id="Layer_1" xmlns="http://www.w3.org/2000/svg" xmlns:xlink="http://www.w3.org/1999/xlink" viewBox="0 0 176 87.9"><style>.st0{clip-path:url(#SVGID_2_);fill:url(#SVGID_3_)}.st1{clip-path:url(#SVGID_5_);fill:#fff}.st2,.st3{clip-path:url(#SVGID_7_);fill:#fff}.st3{clip-path:url(#SVGID_9_)}.st4,.st5{clip-path:url(#SVGID_11_);fill:#fff}.st5{clip-path:url(#SVGID_13_)}.st6{fill:#1399bc}</style><defs><path id="SVGID_1_" d="M57.4 5.8c-15.5.1-30 9.6-35.6 25-7.3 19.8 2.8 41.7 22.6 49 19.8 7.3 41.7-2.8 49-22.6 1.6-4.3 2.3-8.7 2.4-13v-.4c-.1-15.5-9.6-30-25-35.6-4.3-1.6-8.7-2.3-13-2.4h-.4z"/></defs><clipPath id="SVGID_2_"><use xlink:href="#SVGID_1_" overflow="visible"/></clipPath><linearGradient id="SVGID_3_" gradientUnits="userSpaceOnUse" x1="-255.239" y1="-402.634" x2="-254.239" y2="-402.634" gradientTransform="scale(-76.3346 76.3346) rotate(-20.25 1001.32 -912.185)"><stop offset="0" stop-color="#087ea6"/><stop offset="1" stop-color="#1ba3c3"/></linearGradient><path class="st0" d="M122.1 15.5L24.2-20.6l-36.1 97.9L86 113.4z"/><g><defs><path id="SVGID_4_" d="M19.4 5.8h76.4v76.4H19.4z"/></defs><clipPath id="SVGID_5_"><use xlink:href="#SVGID_4_" overflow="visible"/></clipPath><path class="st1" d="M73.8 57.1l.2 6.2-4 .2-.2-6c-.2-4.2-1.6-11.1-1.8-12.1.1-.6.9-4.4 1.5-6.8.1-.3-.1-.6-.4-.6-.3-.1-.6.1-.6.4-.1.2-.1.4-.2.7-.6 2.3-1.2 5.2-1.4 6.1v10.3l.6 9.5c-.7.4-3 1.5-7.5 1.9-.8.1-1.6-.5-1.8-1.3-.1-.4-.2-.8-.2-1.2.3-1.5.6-3.2.9-4.6.2-1.1.3-3.4.3-4.3v-6.9c.1-.1.1-.2 0-.3l-.4-1.7-.1-.6c3.5-5.2 5.8-9.6 5.8-9.7.1-.2.1-.5-.1-.6l-1-.9.7-.3c.2-.1.3-.3.3-.6l-.3-1.6 4 1.5c1 .4 1.8 1.2 2.1 2.3l1.2 4.8c1.4 5.2 2.2 10.7 2.4 16.2m-15.9 2.4c-.1.4-.2 1.1-.4 2-.1.5-.2.9-.3 1.4-.1.5-.2.9-.3 1.4-.1.4-.2.8-.2 1.2-.2.8-.9 1.4-1.8 1.3-4.5-.3-6.8-1.5-7.5-1.9l.6-9.5v-10-.1c0-.1-.7-3.7-1.4-6.3-.1-.2-.1-.5-.2-.7-.1-.3-.4-.4-.6-.4s-.4.4-.4.6c.7 2.5 1.4 6.2 1.5 6.8-.2 1-1.6 7.9-1.8 12.1l-.2 6-4-.2.3-6.2c.2-5.5 1-11 2.4-16.4l1.2-4.8c.3-1.1 1-1.9 2.1-2.3l4-1.5-.3 1.6c0 .2.1.5.3.6l.7.3-1 .9c-.2.2-.2.4-.1.6 0 .1 2.7 5.1 6.8 11.1l.1.1c.2.3.4.6.7.9v7.1c.1 1.3 0 3.4-.2 4.3m-5.6-28.3l1.5-1.4 3.9 15.9c-3.1-4.6-5.3-8.5-5.9-9.6l1.3-1.2c.1-.1.2-.3.2-.5s-.1-.3-.3-.4l-1.1-.5.4-2.3zm8.2-1.9l-.4 1.6h-5l-.4-1.6h5.8zm-2.9 11.9L55.3 32h4.5l-2.2 9.2zm3.8-11.4l1.5 1.4.4 2.3-1.1.5c-.2.1-.3.2-.3.4s0 .4.2.5l1.3 1.2c-.6 1.1-2.5 4.5-5.1 8.4l-.3-1.1 3.4-13.6zm7.1 2.8l-4.6-1.7v-.1c0-.1-.1-.2-.2-.3l-2.2-2.1c-.1-.1-.3-.2-.4-.1h-7.3s-.1 0-.1.1l-2.3 2.1c-.1.1-.1.2-.2.3v.1l-4.6 1.7c-1.4.5-2.4 1.6-2.7 3l-1.2 4.8c-1.4 5.4-2.2 11-2.4 16.6l-.3 6.8c0 .3.2.5.5.5l5 .3c.1 0 .3 0 .4-.1.1-.1.2-.2.2-.4l.2-6.5c.1-1.8.4-4.1.8-6.3v4.1l-.6 9.8c0 .2.1.3.2.5.1.1 2.4 1.8 8.2 2.2h.2c1 0 2-.6 2.4-1.5.5.9 1.4 1.5 2.4 1.5h.2c5.8-.5 8.1-2.2 8.2-2.2.1-.1.2-.3.2-.5l-.6-9.8v-4.1c.3 2.1.7 4.5.8 6.3l.2 6.5c0 .1.1.3.2.4.1.1.2.1.4.1l5-.3c.3 0 .5-.3.5-.5l-.1-6.8c-.2-5.6-1-11.2-2.4-16.6l-1.2-4.8c-.4-1.4-1.4-2.5-2.8-3"/><defs><path id="SVGID_6_" d="M19.4 5.8h76.4v76.4H19.4z"/></defs><clipPath id="SVGID_7_"><use xlink:href="#SVGID_6_" overflow="visible"/></clipPath><path class="st2" d="M57 49.2h-.2c-.1 0-.2 0-.3.1-.2.1-.3.3-.3.6s.1.5.3.6c.1.1.2.1.3.1h.2c.3-.1.5-.3.5-.7 0-.4-.3-.6-.5-.7"/><g><defs><path id="SVGID_8_" d="M19.4 5.8h76.4v76.4H19.4z"/></defs><clipPath id="SVGID_9_"><use xlink:href="#SVGID_8_" overflow="visible"/></clipPath><path class="st3" d="M57 54.9h-.2c-.1 0-.2 0-.3.1-.2.1-.3.3-.3.6s.1.5.4.6c.1.1.2.1.3.1h.2c.3-.1.5-.3.5-.7-.1-.4-.4-.6-.6-.7"/></g><g><defs><path id="SVGID_10_" d="M19.4 5.8h76.4v76.4H19.4z"/></defs><clipPath id="SVGID_11_"><use xlink:href="#SVGID_10_" overflow="visible"/></clipPath><path class="st4" d="M76.3 65.5c0 2.1-7.7 4.5-18.7 4.5s-18.7-2.4-18.7-4.5V44.9c0-12.1 5.9-17.8 18.7-17.8s18.7 5.6 18.7 17.8v20.6zM58.1 26.1v-1c0-.6 0-.6.5-1.1l.3-.3c.7-.7 2-1.8 2-3.4 0-1.9-1.5-3.4-3.4-3.4s-3.4 1.5-3.4 3.4c0 .4.1.7.2 1l1-.3c-.1-.2-.1-.5-.1-.7 0-1.3 1.1-2.3 2.3-2.3 1.3 0 2.3 1.1 2.3 2.3 0 1.1-.9 2-1.6 2.6-.1.1-.3.2-.4.4-.8.8-.9 1-.9 1.9v1C44 26.4 37.7 32.5 37.7 45v20.6c0 3.6 10.2 5.5 19.7 5.5s19.7-1.9 19.7-5.5V44.9c.2-12.5-6.1-18.7-19-18.8"/></g><g><defs><path id="SVGID_12_" d="M19.4 5.8h76.4v76.4H19.4z"/></defs><clipPath id="SVGID_13_"><use xlink:href="#SVGID_12_" overflow="visible"/></clipPath><path class="st5" d="M65.8 45.4h-4.5v-.6h4.5v.6zm.3-1.2H61c-.2 0-.3.1-.3.3v1.1c0 .2.1.3.3.3h5.1c.2 0 .3-.1.3-.3v-1.2c0-.1-.1-.2-.3-.2"/></g></g><g><path class="st6" d="M128.5 25c.6.6 1.5 1 2.4 1 1 0 1.5-.5 1.5-1.2s-.5-1-1.4-1.3l-1.2-.5c-.9-.4-1.8-1.1-1.8-2.4 0-1.5 1.3-2.6 3-2.6 1.1 0 2.1.5 2.7 1.1l-.9 1.1c-.5-.5-1.2-.7-1.9-.7-.8 0-1.4.4-1.4 1.1s.6 1 1.5 1.3l1.2.5c1.1.5 1.8 1.1 1.8 2.5 0 1.5-1.2 2.6-3.2 2.6-1.2 0-2.4-.5-3.2-1.3l.9-1.2zM137 19.6h-2.6v-1.3h6.7v1.4h-2.6v7.6H137v-7.7zM142.7 18.4h5.4v1.4h-3.8V22h3.2v1.4h-3.2V26h3.9v1.4h-5.5v-9zM150 18.4h3c1.9 0 3.4.7 3.4 2.7S154.9 24 153 24h-1.5v3.3H150v-8.9zm2.9 4.3c1.4 0 2-.5 2-1.6s-.6-1.5-2-1.5h-1.3v3.1h1.3zM133.4 60.9c1.8 1.9 4.2 3.4 7.3 3.4 3.4 0 5.7-1.7 5.7-4.6 0-3.2-2-5.2-9-5.2v-4.1c6 0 8-2.1 8-4.9 0-2.6-1.7-4.1-4.6-4.1-2.4 0-4.3 1.2-6.2 2.9l-2.8-3.5c2.6-2.3 5.6-3.8 9.2-3.8 5.9 0 9.9 2.9 9.9 8.1 0 3.5-2 5.7-5.4 7v.2c3.6 1 6.4 3.6 6.4 7.7 0 5.6-4.9 8.9-10.8 8.9-5 0-8.3-1.9-10.4-4.4l2.7-3.6z"/></g></svg>