<svg xmlns="http://www.w3.org/2000/svg" xmlns:xlink="http://www.w3.org/1999/xlink" width="87.874" height="87.874" viewBox="0 0 87.874 87.874"><defs><path id="a" d="M16.297 11.696h55.085v64.296H16.297z"/></defs><clipPath id="b"><use xlink:href="#a" overflow="visible"/></clipPath><path clip-path="url(#b)" fill="#FFF" d="M41.573 24.001l-.74-.534-.226.275c-5.014 6.086-4.9 14.948.265 20.613.177.193.36.385.547.571l1.921 1.922-1.174-7.928a.97.97 0 0 1 .818-1.101.97.97 0 0 1 1.102.816l1.159 7.825 1.187-2.328a17.08 17.08 0 0 0 1.535-4.43c1.17-5.898-1.34-12.059-6.394-15.701m11.941 34.394a.97.97 0 0 1-1.372 0l-5.987-5.986.418 2.634a17.133 17.133 0 0 0 2.914 7.174c2.683 3.804 7.176 6.225 12.021 6.479l2.433.127-.127-2.433c-.254-4.845-2.675-9.339-6.477-12.021a17.149 17.149 0 0 0-7.176-2.914l-2.633-.417 5.986 5.986a.969.969 0 0 1 0 1.371M40.047 46.299c-.188-.187-.378-.37-.572-.546-5.665-5.165-14.527-5.279-20.613-.266l-.276.227.534.74c3.641 5.053 9.804 7.563 15.702 6.395a17.157 17.157 0 0 0 4.43-1.536l2.329-1.188-7.825-1.159a.97.97 0 1 1 .284-1.92l7.927 1.174-1.92-1.921zm-7.636 26.137l.457 1.307 2.066-.835c3.973-1.604 7.133-4.679 8.666-8.439a17.079 17.079 0 0 0 1.055-9.123l-.403-2.551-3.572 7.295a.97.97 0 1 1-1.743-.853l3.643-7.442-2.447 1.248a17.072 17.072 0 0 0-2.678 1.693c-5.294 4.084-7.321 11.197-5.044 17.7m27.176-23.955c3.761-1.534 6.837-4.693 8.44-8.666l.834-2.067-1.308-.457c-6.503-2.275-13.616-.249-17.698 5.044a17.028 17.028 0 0 0-1.695 2.68l-1.246 2.445 7.441-3.643a.97.97 0 0 1 .854 1.743l-7.295 3.571 2.551.404c3.08.489 6.234.124 9.122-1.054m-9.591-9.193c4.711-4.542 11.726-6.095 18.199-3.829l2.267.794a.967.967 0 0 1 .579 1.279l-1.215 3.01c-1.799 4.457-5.262 8.005-9.506 9.737-1.328.542-2.709.92-4.112 1.148.778.402 1.532.851 2.247 1.354 4.283 3.024 7.012 8.072 7.296 13.506l.183 3.509c.029.549-.47 1.048-1.02 1.02l-3.508-.185c-5.434-.283-10.482-3.011-13.506-7.295a19.31 19.31 0 0 1-1.354-2.248 18.922 18.922 0 0 1-1.15 4.113c-1.729 4.242-5.279 7.707-9.737 9.506l-3.009 1.215a.972.972 0 0 1-1.279-.58l-.793-2.266c-2.266-6.474-.713-13.489 3.829-18.199-6.395.952-12.941-1.846-16.862-7.289L16.48 46.11a.97.97 0 0 1 .17-1.316l.977-.805c5.493-4.525 13.01-5.314 19.058-2.423-2.891-6.048-2.102-13.565 2.423-19.058l.804-.978a.97.97 0 0 1 1.317-.17l1.477 1.064c5.444 3.924 8.243 10.47 7.29 16.864M61.544 18.986l-1.083 3.162h3.436a.497.497 0 0 1 0 .994h-3.436l1.083 3.161a.497.497 0 0 1-.939.322l-1.09-3.178-2.625 1.949a.497.497 0 1 1-.592-.797l2.634-1.956-2.634-1.954a.495.495 0 0 1-.055-.75.5.5 0 0 1 .647-.048l2.625 1.948 1.088-3.176a.498.498 0 0 1 .631-.309c.26.09.399.373.31.632"/><path clip-path="url(#b)" fill="#FFF" d="M62.294 13.366a6.201 6.201 0 0 0-1.696 1.203c-1.283 1.283-1.968 3.097-1.727 4.958.051.396.139.791.265 1.179a6.484 6.484 0 0 0-.78-1.607c-1.304-1.948-3.668-2.902-5.982-2.525l-.649.104.044.454c.287 2.973 2.676 5.369 5.658 5.507.1.005.2.007.301.007a5.847 5.847 0 0 0-4.179 1.736 6.195 6.195 0 0 0-1.78 3.776l-.044.455.649.104c1.939.316 3.916-.303 5.271-1.658.262-.263.5-.552.711-.866.328-.49.592-1.03.78-1.608a6.61 6.61 0 0 0-.266 1.18c-.331 2.564 1.093 5.038 3.424 6.16l.78.376.457-1.077c.629-1.478.682-3.155.059-4.637a6.49 6.49 0 0 0-2.174-2.742c.82.598 1.754.981 2.719 1.148 1.805.312 3.65-.273 5.012-1.499l.941-.848-.941-.849c-1.361-1.226-3.207-1.811-5.012-1.499a6.52 6.52 0 0 0-2.719 1.148 6.475 6.475 0 0 0 2.173-2.743c.623-1.479.57-3.158-.059-4.635l-.457-1.077-.779.375zm1.971-.882l.457 1.077c.737 1.733.796 3.671.171 5.364 1.844-.05 3.7.632 5.12 1.909l.941.85a1.29 1.29 0 0 1 .049 1.876l-.048.047-.942.847c-1.42 1.278-3.276 1.96-5.12 1.91.625 1.693.566 3.631-.171 5.364l-.457 1.078a1.28 1.28 0 0 1-.735.703 1.29 1.29 0 0 1-1.017-.045l-.78-.375c-1.922-.926-3.304-2.574-3.891-4.49-1.586 1.208-3.645 1.725-5.676 1.396l-.648-.105a1.292 1.292 0 0 1-1.08-1.401l.043-.455a7.494 7.494 0 0 1 2.152-4.567c.307-.306.635-.581.982-.824a7.46 7.46 0 0 1-3.135-5.385l-.045-.454a1.291 1.291 0 0 1 .375-1.039c.186-.187.428-.317.705-.362l.65-.105a7.413 7.413 0 0 1 5.675 1.396 7.347 7.347 0 0 1 1.843-3.037 7.466 7.466 0 0 1 2.049-1.454l.78-.375a1.29 1.29 0 0 1 1.017-.045c.332.121.598.376.736.701"/></svg>