<svg xmlns="http://www.w3.org/2000/svg" xmlns:xlink="http://www.w3.org/1999/xlink" width="70.866" height="70.866" viewBox="0 0 70.866 70.866"><defs><ellipse id="a" cx="35.178" cy="17.653" rx="6.385" ry="6.409"/></defs><clipPath id="b"><use xlink:href="#a" overflow="visible"/></clipPath><linearGradient id="c" gradientUnits="userSpaceOnUse" x1="-238.522" y1="488.13" x2="-237.522" y2="488.13" gradientTransform="matrix(12.7719 0 0 -12.7719 3075.166 6251.997)"><stop offset="0" stop-color="#087ea6"/><stop offset="1" stop-color="#1ba3c3"/></linearGradient><path clip-path="url(#b)" fill="url(#c)" d="M28.793 11.244h12.771v12.818H28.793z"/><g><defs><path id="d" d="M30.927 32.21a4.25 4.25 0 0 0 4.251 4.251 4.251 4.251 0 1 0 0-8.504 4.252 4.252 0 0 0-4.251 4.253"/></defs><clipPath id="e"><use xlink:href="#d" overflow="visible"/></clipPath><linearGradient id="f" gradientUnits="userSpaceOnUse" x1="-227.071" y1="503.828" x2="-226.071" y2="503.828" gradientTransform="matrix(8.5039 0 0 -8.5039 1961.917 4316.71)"><stop offset="0" stop-color="#087ea6"/><stop offset="1" stop-color="#1ba3c3"/></linearGradient><path clip-path="url(#e)" fill="url(#f)" d="M30.927 27.957h8.505v8.504h-8.505z"/></g><g><defs><path id="g" d="M32.344 46.058a2.835 2.835 0 1 0 5.67 0 2.835 2.835 0 0 0-5.67 0"/></defs><clipPath id="h"><use xlink:href="#g" overflow="visible"/></clipPath><linearGradient id="i" gradientUnits="userSpaceOnUse" x1="-210.06" y1="527.185" x2="-209.06" y2="527.185" gradientTransform="matrix(5.6693 0 0 -5.6693 1223.234 3034.828)"><stop offset="0" stop-color="#087ea6"/><stop offset="1" stop-color="#1ba3c3"/></linearGradient><path clip-path="url(#h)" fill="url(#i)" d="M32.344 43.224h5.67v5.669h-5.67z"/></g><g><defs><path id="j" d="M32.344 55.653a2.834 2.834 0 1 0 5.669.001 2.834 2.834 0 0 0-5.669-.001"/></defs><clipPath id="k"><use xlink:href="#j" overflow="visible"/></clipPath><linearGradient id="l" gradientUnits="userSpaceOnUse" x1="-210.06" y1="527.185" x2="-209.06" y2="527.185" gradientTransform="matrix(5.6693 0 0 -5.6693 1223.234 3044.426)"><stop offset="0" stop-color="#087ea6"/><stop offset="1" stop-color="#1ba3c3"/></linearGradient><path clip-path="url(#k)" fill="url(#l)" d="M32.344 52.819h5.67v5.669h-5.67z"/></g></svg>