<svg id="Layer_1" xmlns="http://www.w3.org/2000/svg" xmlns:xlink="http://www.w3.org/1999/xlink" viewBox="0 0 165.6 29.5"><style>.st0{fill:#fff}.st1{clip-path:url(#SVGID_2_);fill:#dee3e8}.st2{clip-path:url(#SVGID_4_);fill:#becad4}.st3,.st4,.st5,.st6,.st7{clip-path:url(#SVGID_4_);fill:#8ea4b4}.st4,.st5,.st6,.st7{fill:#618197}.st5,.st6,.st7{fill:#3a627c}.st6,.st7{fill:#0f4562}.st7{fill:#002d4b}</style><path class="st0" d="M10.5 21c-1 0-1.8-.1-2.4-.3s-1.1-.5-1.5-.9c-.3-.3-.6-.8-.7-1.3-.1-.5-.2-1.1-.2-1.7V3.5L9.1 3v13.1c0 .3 0 .6.1.8 0 .2.1.5.3.6.1.2.3.3.6.4s.6.2 1 .2l-.6 2.9zM19.9 8.4c1 0 1.9.1 2.5.3.7.2 1.2.6 1.6 1 .4.4.7.9.9 1.6.2.6.3 1.3.3 2v7.1c-.5.1-1.2.2-2 .4-.9.1-1.9.2-3.2.2-.8 0-1.5-.1-2.1-.2-.6-.1-1.2-.4-1.6-.7s-.8-.7-1.1-1.2c-.2-.5-.4-1.1-.4-1.9 0-.7.1-1.3.4-1.8.3-.5.7-.9 1.1-1.2.5-.3 1-.5 1.6-.6s1.2-.2 1.9-.2c.4 0 .8 0 1.2.1s.6.1.8.1v-.3c0-.6-.2-1-.5-1.4-.4-.4-1-.5-1.8-.5-.6 0-1.2 0-1.7.1s-1.1.2-1.5.4l-.4-2.8c.2-.1.4-.1.7-.2.3-.1.6-.1 1-.2s.7-.1 1.1-.1h1.2zm.3 10h1c.3 0 .6 0 .7-.1v-2.6c-.1 0-.3-.1-.6-.1h-.8c-.3 0-.6 0-.9.1-.3 0-.5.1-.7.2s-.4.3-.5.4-.2.4-.2.7c0 .5.2.9.5 1.1.3.2.8.3 1.5.3zM40.8 20.4c-.6.2-1.3.3-2.2.5-.9.1-1.9.1-2.9.1s-1.9-.1-2.6-.4c-.7-.3-1.2-.7-1.6-1.2-.4-.5-.7-1.1-.8-1.8s-.3-1.4-.3-2.3V8.7h3.4V15c0 1.1.1 1.9.4 2.4.3.5.8.7 1.6.7h.8c.3 0 .5 0 .7-.1V8.7h3.4l.1 11.7zM46.4 9.1c.6-.2 1.3-.3 2.2-.5s1.9-.2 2.9-.2 1.9.1 2.6.4 1.2.6 1.6 1.1c.4.5.7 1.1.8 1.7.2.7.3 1.4.3 2.2v6.8h-3.4v-6.4c0-1.1-.1-1.9-.4-2.3-.3-.5-.8-.7-1.6-.7h-.8c-.3 0-.5.1-.7.1v9.3h-3.4l-.1-11.5zM72.8 20.4c-.3.1-.7.2-1.1.3s-.8.2-1.3.2c-.4.1-.9.1-1.3.1-.5 0-.9.1-1.3.1-1 0-1.9-.1-2.7-.4s-1.4-.7-2-1.3c-.5-.5-.9-1.2-1.2-2-.3-.8-.4-1.6-.4-2.6s.1-1.9.4-2.7c.2-.8.6-1.5 1.1-2s1-1 1.7-1.3c.7-.3 1.4-.4 2.3-.4.5 0 .9 0 1.3.1s.7.3 1.1.5V3.5l3.4-.5v17.4zm-7.7-5.8c0 1.1.2 1.9.7 2.5s1.2 1 2.1 1h.8c.3 0 .5 0 .6-.1v-6.2c-.2-.1-.5-.3-.8-.3s-.7-.1-1-.1c-1.6-.1-2.4 1-2.4 3.2zM85.6 11.7c-.3-.1-.7-.2-1.1-.2s-.9-.1-1.3-.1c-.2 0-.5 0-.8.1-.3 0-.5.1-.7.1v9.2h-3.4V9.3c.6-.2 1.3-.4 2.2-.6.8-.2 1.8-.3 2.8-.3h.7c.3 0 .5.1.8.1.3 0 .5.1.8.1.3.1.5.1.7.2l-.7 2.9zM101.8 8.7c-.7 2.3-1.4 4.5-2.2 6.5-.8 2-1.6 4-2.5 5.9-.3.7-.6 1.3-1 1.8-.3.5-.7.9-1.1 1.2-.4.3-.8.5-1.3.7-.5.1-1 .2-1.7.2-.5 0-1 0-1.5-.1s-.8-.2-1.1-.3l.6-2.7c.4.1.7.2.9.3s.6.1.9.1c.6 0 1.1-.2 1.4-.5s.6-.8.8-1.4c-.8-1.5-1.6-3.2-2.3-5.2-.8-1.9-1.5-4-2.2-6.4h3.6c.2.6.3 1.2.5 1.9s.4 1.4.7 2.1c.2.7.5 1.4.7 2.1.2.7.5 1.3.7 1.8l.6-1.8.6-2.1.6-2.1c.2-.7.4-1.3.5-1.9l3.8-.1zM116.2 20.4c-.3.1-.7.2-1.1.3-.4.1-.8.2-1.2.2-.4.1-.9.1-1.3.1-.5 0-.9.1-1.3.1-1 0-1.9-.1-2.7-.4s-1.4-.7-2-1.3c-.5-.5-.9-1.2-1.2-2s-.4-1.6-.4-2.6.1-1.9.4-2.7c.2-.8.6-1.5 1.1-2s1-1 1.7-1.3c.7-.3 1.4-.4 2.3-.4.5 0 .9 0 1.3.1s.8.2 1.1.4V3.5l3.4-.6-.1 17.5zm-7.8-5.8c0 1.1.2 1.9.7 2.5s1.2 1 2.1 1h.8c.3 0 .5 0 .6-.1v-6.2c-.2-.1-.5-.3-.8-.3-.3-.1-.7-.1-1-.1-1.6-.1-2.4 1-2.4 3.2zM128.9 11.7c-.3-.1-.7-.2-1.1-.2s-.9-.1-1.3-.1c-.2 0-.5 0-.8.1-.3 0-.5.1-.7.1v9.2h-3.4V9.3c.6-.2 1.3-.4 2.2-.6s1.8-.3 2.8-.3h.7c.3 0 .5.1.8.1.3 0 .5.1.8.1.3.1.5.1.7.2l-.7 2.9zM144.7 14.7c0 .9-.1 1.8-.4 2.6s-.7 1.5-1.2 2c-.5.6-1.1 1-1.9 1.3s-1.5.5-2.4.5c-.9 0-1.7-.2-2.4-.5s-1.4-.7-1.9-1.3c-.5-.6-.9-1.2-1.2-2-.3-.8-.4-1.7-.4-2.6s.1-1.8.4-2.6c.3-.8.7-1.4 1.2-2 .5-.6 1.2-1 1.9-1.3.7-.3 1.5-.5 2.4-.5.9 0 1.7.2 2.4.5s1.4.7 1.9 1.3c.5.6.9 1.2 1.2 2 .2.8.4 1.7.4 2.6zm-3.5 0c0-1.1-.2-1.9-.6-2.5s-1-.9-1.8-.9-1.4.3-1.8.9c-.4.6-.6 1.4-.6 2.5s.2 1.9.6 2.5c.4.6 1 .9 1.8.9s1.4-.3 1.8-.9c.4-.6.6-1.4.6-2.5zM160.8 14.7c0 .9-.1 1.8-.3 2.5s-.6 1.4-1 2c-.4.6-1 1-1.7 1.3-.7.3-1.4.5-2.3.5-.5 0-.9 0-1.3-.1s-.8-.2-1.2-.4V25h-3.4V9.1c.3-.1.7-.2 1.1-.3.4-.1.8-.2 1.3-.2.4-.1.9-.1 1.3-.1.5 0 .9-.1 1.3-.1 1 0 1.9.1 2.7.4.8.3 1.4.7 2 1.3.5.5.9 1.2 1.2 2s.3 1.7.3 2.6zm-3.5.1c0-1.1-.2-1.9-.7-2.5-.5-.6-1.2-1-2.1-1h-.8c-.3 0-.5.1-.6.1v6.2c.2.1.5.3.8.3.3.1.7.1 1 .1 1.6.1 2.4-1 2.4-3.2z"/><g><defs><path id="SVGID_1_" d="M132.2 5.1h13.1v16h-13.1z"/></defs><clipPath id="SVGID_2_"><use xlink:href="#SVGID_1_" overflow="visible"/></clipPath><path class="st1" d="M142.3 9l-3.4-3.9-3.4 3.8c-1.3 1.4-3.2 3.2-3.2 5.6 0 3.6 2.9 6.6 6.6 6.6 3.6 0 6.5-2.9 6.5-6.6-.1-2.3-1.6-3.9-3.1-5.5"/><g><defs><path id="SVGID_3_" d="M138.8 5.1l-3.4 3.8c-1.3 1.4-3.2 3.2-3.2 5.6 0 3.6 2.9 6.6 6.5 6.6s6.5-2.9 6.5-6.6c0-2.3-1.5-3.9-3.1-5.5l-3.3-3.9z"/></defs><clipPath id="SVGID_4_"><use xlink:href="#SVGID_3_" overflow="visible"/></clipPath><path class="st2" d="M160.7 9.3c-5.8.8-8.5.4-11.9-.6-3.4-1.1-5.4-.4-9.3.9-3.9 1.4-9.3-1-13.4-1s-6.5 1.4-9.3 1.4v3h43.9V9.3z"/><path class="st3" d="M160.7 11.3c-1-.6-2.7-1.3-4.6-1.2-2 0-2.5.8-4.9 1-2.5.2-2.8-.6-5.5-.5-3 .1-3.2 1.2-5.7 1.2-3.1 0-3.5-1.7-6.6-1.7-2.8 0-3.1 1.4-5.9 1.3-2.8-.1-3.5-1.5-6.2-1.5-2 0-3.5.7-4.5 1.3v2.9h43.9v-2.8z"/><path class="st4" d="M160.7 12.7c-2.1-.9-3.9-1.2-5.4-1-2.1.2-2.5 1.2-4.5 1.3-2.3.1-3.1-1.1-5.4-1-2.3.1-2.6 1.4-4.7 1.4-2.4.1-3-1.5-5.5-1.5-2.6 0-3.5 1.6-6 1.5-1.9-.1-3.7-1.3-5.7-1.6-1.5-.3-2.5.1-6.6 1.8v2.5h43.9v-3.4z"/><path class="st5" d="M160.7 16c-1.5-1.2-3.7-2.6-6.2-2.5-2.6.1-3.1 1.8-6 2-3.5.3-4.5-2.1-7.9-1.9-3.3.2-3.9 1.9-6.6 1.7-2.7-.2-3.1-2-5.5-2.1-2.3 0-3 1.7-5.6 1.9-1.5.2-3.5.2-6.1-2v4.3h43.9V16z"/><path class="st6" d="M116.9 15.5c1.3.7 3.2 1.5 5.2 1.3 2-.2 2.4-1.2 4.3-1.3 2.8-.2 3.5 1.6 6.4 1.5 2.6 0 2.8-1.5 5.5-1.6 2.9-.1 3.5 1.4 6.5 1.4 2.8-.1 3-1.4 5.6-1.3 2.7 0 3.5 1.4 6.2 1.4 1.8 0 3.2-.6 4.1-1v3.5h-43.9v-3.9z"/><path class="st7" d="M116.9 18.3c1-.6 2.7-1.3 4.6-1.2 2 0 2.5.8 4.9 1 2.5.2 2.8-.6 5.5-.5 3 .1 3.2 1.2 5.7 1.2 3.1 0 3.5-1.7 6.6-1.7 2.8 0 3.1 1.4 5.9 1.3 2.8-.1 3.5-1.5 6.2-1.5 2 0 3.5.7 4.5 1.3v2.9h-43.9v-2.8z"/></g></g></svg>