<svg id="Layer_1" xmlns="http://www.w3.org/2000/svg" xmlns:xlink="http://www.w3.org/1999/xlink" viewBox="0 0 165.6 25.2"><style>.st0{fill:#fff}.st1{fill:#e5eef1}.st2{clip-path:url(#SVGID_2_);fill:#cbdfe5}.st3{clip-path:url(#SVGID_4_);fill:#a2c6d0}.st4{clip-path:url(#SVGID_6_);fill:#7aadbc}.st5{clip-path:url(#SVGID_8_);fill:#5294a7}.st6{clip-path:url(#SVGID_10_);fill:#297c93}.st7{clip-path:url(#SVGID_12_);fill:#006380}</style><path class="st0" d="M5.1 19.3c-1.1 0-1.9-.1-2.6-.3-.6-.3-1.1-.6-1.5-1-.4-.4-.6-.8-.8-1.4-.1-.5-.2-1.1-.2-1.8V.6L3.6 0v14c0 .3 0 .6.1.9 0 .3.1.5.3.7.1.2.3.3.6.4.3.1.6.2 1.1.2l-.6 3.1zM15.2 5.8c1.1 0 2 .1 2.7.4.7.2 1.3.6 1.7 1.1.4.5.7 1 .9 1.7.2.7.3 1.4.3 2.2v7.6c-.5.1-1.2.2-2.2.4-.9.2-2.1.2-3.4.2-.8 0-1.6-.1-2.3-.2-.7-.1-1.3-.4-1.8-.7-.5-.3-.9-.8-1.1-1.3-.3-.5-.4-1.2-.4-2s.2-1.4.5-1.9.7-.9 1.2-1.2c.5-.3 1.1-.5 1.7-.7.7-.1 1.3-.2 2-.2.5 0 .9 0 1.3.1s.7.1.9.2v-.3c0-.6-.2-1.1-.6-1.5-.4-.4-1-.6-2-.6-.6 0-1.2 0-1.8.1s-1.1.2-1.6.4l-.5-2.9c.2-.1.5-.1.8-.2.5-.4.8-.5 1.2-.5.4-.1.8-.1 1.2-.1.4-.1.8-.1 1.3-.1zm.3 10.7h1c.3 0 .6 0 .8-.1v-2.8c-.1 0-.4-.1-.7-.1h-.8c-.3 0-.7 0-1 .1-.3 0-.6.1-.8.2s-.4.3-.5.5c-.1.2-.2.4-.2.7 0 .6.2 1 .6 1.2.4.2.9.3 1.6.3zM37.5 18.6c-.6.2-1.4.3-2.4.5s-2 .2-3.1.2-2-.1-2.7-.4c-.7-.3-1.3-.7-1.7-1.2-.4-.5-.7-1.2-.9-1.9s-.3-1.5-.3-2.4V6.1H30v6.7c0 1.2.2 2 .5 2.5s.9.8 1.7.8h.8c.3 0 .6-.1.8-.1V6.1h3.6l.1 12.5zM43.4 6.6c.6-.2 1.4-.3 2.4-.5s2-.2 3.1-.2 2 .1 2.7.4c.7.3 1.3.7 1.7 1.2.4.5.7 1.1.9 1.9.2.7.3 1.5.3 2.4V19h-3.6v-6.8c0-1.2-.2-2-.5-2.5s-.9-.7-1.7-.7h-.8c-.3 0-.6.1-.8.1V19h-3.6l-.1-12.4zM71.7 18.6c-.3.1-.7.2-1.1.3s-.9.2-1.3.2c-.5.1-.9.1-1.4.2-.5 0-.9.1-1.4.1-1.1 0-2-.2-2.8-.5-.8-.3-1.5-.8-2.1-1.3-.6-.6-1-1.3-1.3-2.1-.3-.8-.5-1.8-.5-2.8 0-1 .1-2 .4-2.8.3-.8.6-1.6 1.1-2.1s1.1-1 1.8-1.3c.7-.3 1.5-.5 2.4-.5.5 0 1 0 1.4.1s.8.2 1.2.4V.6l3.6-.6v18.6zm-8.3-6.1c0 1.1.3 2 .8 2.7s1.3 1 2.3 1h.9c.3 0 .5-.1.7-.1V9.5c-.2-.1-.5-.3-.9-.4s-.8-.2-1.2-.2c-1.7 0-2.6 1.2-2.6 3.6zM85.3 9.4c-.3-.1-.7-.2-1.2-.3-.4-.1-.9-.1-1.4-.1-.2 0-.5 0-.8.1-.3 0-.6.1-.7.1V19h-3.6V6.8c.7-.2 1.4-.4 2.3-.6.9-.2 1.9-.3 3-.3h.7c.3 0 .6.1.8.1.3 0 .6.1.8.1.3.1.5.1.7.2l-.6 3.1zM102.5 6.1c-.7 2.5-1.5 4.8-2.3 7-.8 2.2-1.7 4.3-2.6 6.3-.3.7-.7 1.4-1 1.9-.3.5-.7.9-1.1 1.3-.4.3-.9.6-1.4.7-.5.2-1.1.2-1.8.2-.6 0-1.1-.1-1.6-.2s-.9-.2-1.2-.4l.6-2.9c.4.1.7.2 1 .3s.6.1.9.1c.7 0 1.2-.2 1.5-.5.4-.4.6-.8.9-1.5-.8-1.6-1.6-3.4-2.4-5.4-.8-2-1.6-4.3-2.4-6.8h3.9c.2.6.4 1.3.6 2.1.2.7.5 1.5.7 2.3.2.8.5 1.5.8 2.2.3.7.5 1.4.7 2 .2-.6.4-1.2.7-2 .2-.7.5-1.5.7-2.2.2-.8.4-1.5.6-2.3l.6-2.1 3.6-.1zM117.9 18.6c-.3.1-.7.2-1.1.3-.4.1-.9.2-1.3.2-.5.1-.9.1-1.4.2-.5 0-.9.1-1.4.1-1.1 0-2-.2-2.8-.5-.8-.3-1.5-.8-2.1-1.3-.6-.6-1-1.3-1.3-2.1-.3-.8-.5-1.8-.5-2.8 0-1 .1-2 .4-2.8.3-.8.6-1.6 1.1-2.1.5-.6 1.1-1 1.8-1.3.7-.3 1.5-.5 2.4-.5.5 0 1 0 1.4.1.4.1.8.2 1.2.4V.6l3.6-.6v18.6zm-8.2-6.1c0 1.1.3 2 .8 2.7s1.3 1 2.3 1h.9c.3 0 .5-.1.7-.1V9.5c-.2-.1-.5-.3-.9-.4-.4-.1-.7-.1-1.1-.1-1.9-.1-2.7 1.1-2.7 3.5zM131.6 9.4c-.3-.1-.7-.2-1.2-.3-.4-.1-.9-.1-1.4-.1-.2 0-.5 0-.8.1-.3 0-.6.1-.7.1V19h-3.7V6.8c.7-.2 1.4-.4 2.3-.6.9-.2 1.9-.3 3-.3h.7c.3 0 .6.1.8.1.3 0 .6.1.8.1.3.1.5.1.7.2l-.5 3.1zM165.6 12.6c0 1-.1 1.9-.4 2.7-.2.8-.6 1.5-1.1 2.1-.5.6-1.1 1-1.8 1.4-.7.3-1.5.5-2.4.5-.5 0-1 0-1.4-.1s-.9-.2-1.3-.4v4.9h-3.7v-17c.3-.1.7-.2 1.1-.3.4-.1.9-.2 1.3-.2.5-.1.9-.1 1.4-.2.5 0 .9-.1 1.4-.1 1.1 0 2 .2 2.8.5.8.3 1.5.8 2.1 1.3.6.6 1 1.3 1.3 2.1s.7 1.7.7 2.8zm-3.7.1c0-1.1-.3-2-.8-2.7-.5-.7-1.3-1-2.3-1h-.9c-.3 0-.5.1-.7.1v6.6c.2.1.5.3.9.4.4.1.7.1 1.1.1 1.8 0 2.7-1.2 2.7-3.5z"/><path class="st1" d="M145.8 6.6l-3.7-4.2-3.6 4.1c-1.4 1.5-3.4 3.5-3.4 6 0 3.9 3.1 7 7 7s7-3.1 7-7c0-2.4-1.6-4.1-3.3-5.9"/><defs><path id="SVGID_1_" d="M138.5 6.5c-1.4 1.5-3.4 3.5-3.4 6 0 3.9 3.1 7 7 7s7-3.1 7-7c0-2.5-1.6-4.2-3.3-5.9l-3.7-4.2-3.6 4.1z"/></defs><clipPath id="SVGID_2_"><use xlink:href="#SVGID_1_" overflow="visible"/></clipPath><path class="st2" d="M165.5 6.9c-6.2.9-9.1.5-12.7-.7s-5.8-.5-9.9 1c-4.2 1.5-9.9-1-14.2-1-4.3 0-6.9 1.5-10 1.5v3.1h46.8V6.9z"/><defs><path id="SVGID_3_" d="M138.5 6.5c-1.4 1.5-3.4 3.5-3.4 6 0 3.9 3.1 7 7 7s7-3.1 7-7c0-2.5-1.6-4.2-3.3-5.9l-3.7-4.2-3.6 4.1z"/></defs><clipPath id="SVGID_4_"><use xlink:href="#SVGID_3_" overflow="visible"/></clipPath><path class="st3" d="M165.5 9.2c-1.1-.6-2.8-1.4-4.9-1.3-2.2 0-2.7.9-5.2 1.1-2.7.2-3-.7-5.8-.6-3.2.1-3.4 1.3-6.1 1.3-3.3 0-3.8-1.8-7.1-1.8-3 0-3.3 1.5-6.3 1.4-3-.1-3.7-1.6-6.6-1.6-2.1 0-3.7.8-4.8 1.4v3.1h46.8v-3z"/><g><defs><path id="SVGID_5_" d="M138.5 6.5c-1.4 1.5-3.4 3.5-3.4 6 0 3.9 3.1 7 7 7s7-3.1 7-7c0-2.5-1.6-4.2-3.3-5.9l-3.7-4.2-3.6 4.1z"/></defs><clipPath id="SVGID_6_"><use xlink:href="#SVGID_5_" overflow="visible"/></clipPath><path class="st4" d="M165.5 10.6c-2.2-.9-4.2-1.2-5.8-1.1-2.3.2-2.6 1.3-4.8 1.4-2.5.1-3.3-1.2-5.8-1.1-2.4.1-2.8 1.5-5 1.5-2.5.1-3.2-1.6-5.9-1.6-2.8 0-3.7 1.7-6.4 1.6-2-.1-3.9-1.4-6-1.7-1.6-.3-2.7.1-7.1 1.9v2.7h46.8v-3.6z"/></g><g><defs><path id="SVGID_7_" d="M138.5 6.5c-1.4 1.5-3.4 3.5-3.4 6 0 3.9 3.1 7 7 7s7-3.1 7-7c0-2.5-1.6-4.2-3.3-5.9l-3.7-4.2-3.6 4.1z"/></defs><clipPath id="SVGID_8_"><use xlink:href="#SVGID_7_" overflow="visible"/></clipPath><path class="st5" d="M165.5 14.1c-1.6-1.3-4-2.8-6.6-2.7-2.8.1-3.4 1.9-6.4 2.2-3.7.3-4.8-2.3-8.4-2-3.5.3-4.2 2.1-7 1.9-2.9-.2-3.3-2.2-5.9-2.2-2.5 0-3.2 1.8-6 2.1-1.6.2-3.7.2-6.5-2.2v4.6h46.8v-1.7z"/></g><g><defs><path id="SVGID_9_" d="M138.5 6.5c-1.4 1.5-3.4 3.5-3.4 6 0 3.9 3.1 7 7 7s7-3.1 7-7c0-2.5-1.6-4.2-3.3-5.9l-3.7-4.2-3.6 4.1z"/></defs><clipPath id="SVGID_10_"><use xlink:href="#SVGID_9_" overflow="visible"/></clipPath><path class="st6" d="M118.7 13.6c1.4.8 3.4 1.6 5.6 1.4 2.2-.2 2.5-1.2 4.6-1.4 2.9-.2 3.7 1.7 6.8 1.6 2.8 0 3-1.6 5.9-1.7 3.1-.1 3.7 1.5 7 1.5 3-.1 3.2-1.5 6-1.4 2.9 0 3.7 1.5 6.6 1.5 1.9 0 3.4-.6 4.3-1.1v3.8h-46.8v-4.2z"/></g><g><defs><path id="SVGID_11_" d="M138.5 6.5c-1.4 1.5-3.4 3.5-3.4 6 0 3.9 3.1 7 7 7s7-3.1 7-7c0-2.5-1.6-4.2-3.3-5.9l-3.7-4.2-3.6 4.1z"/></defs><clipPath id="SVGID_12_"><use xlink:href="#SVGID_11_" overflow="visible"/></clipPath><path class="st7" d="M118.7 16.6c1.1-.6 2.8-1.4 4.9-1.3 2.2 0 2.7.9 5.2 1.1 2.7.2 3-.7 5.8-.6 3.2.1 3.4 1.3 6.1 1.3 3.3 0 3.8-1.8 7.1-1.8 3 0 3.3 1.5 6.3 1.4 3-.1 3.7-1.6 6.6-1.6 2.1 0 3.8.8 4.8 1.4v3.1h-46.8v-3z"/></g></svg>