<svg id="Layer_1" xmlns="http://www.w3.org/2000/svg" xmlns:xlink="http://www.w3.org/1999/xlink" viewBox="0 0 73.7 73.7"><style>.st0{fill:#006f82}.st1,.st2{fill:#fff}.st2{fill-rule:evenodd;clip-rule:evenodd}.st3,.st4{clip-path:url(#SVGID_2_);fill:#167c8c}.st4{fill:#fff}</style><path class="st0" d="M0 0h73.7v73.7H0z"/><path class="st1" d="M17.7 58.7h-2.1v-6.2l-2 4h-1.4l-2.1-4v6.2h-2V48.1h2l2.8 5.7 2.7-5.7h2.1z"/><path class="st2" d="M35.2 58.7H33l-.6-1.9h-3.8l-.6 1.9h-2.2l3.9-10.6h1.6l3.9 10.6zm-3.3-3.6l-1.3-3.9-1.3 3.9h2.6z"/><path class="st1" d="M50.6 58.7h-6.8V48.1h2v8.8h4.8zM66 58.7h-6.8V48.1h2v8.8H66z"/><g><defs><path id="SVGID_1_" d="M0 0h73.7v73.7H0z"/></defs><clipPath id="SVGID_2_"><use xlink:href="#SVGID_1_" overflow="visible"/></clipPath><path class="st3" d="M49.4 4.3h16c2 0 3.7 1.6 3.7 3.7v16c0 2-1.6 3.7-3.7 3.7h-16c-2 0-3.7-1.6-3.7-3.7V8c0-2.1 1.7-3.7 3.7-3.7"/><path class="st4" d="M57.1 8.4l2.1 5.4 5.2-1.6.3 1-4.5 3.6 3.2 4.4-.9.7-4.9-3.2-3.1 4.5-1.2-1 1.8-5.4-5.2-1.6.4-1.3 5.7-.1V8.4z"/></g><g><path class="st1" d="M25.4 65.3v-.6h1.5v.9c0 .4-.1.8-.4 1.1-.3.3-.7.4-1.1.4-.3 0-.6-.1-.9-.2-.2-.2-.4-.3-.5-.5 0-.1-.1-.1-.1-.2s0-.1-.1-.2v-.4-.6-.6-.4c0-.1 0-.1.1-.2 0-.1.1-.1.1-.2.1-.2.3-.4.5-.5.2-.2.5-.2.9-.2s.7.1 1 .4c.3.2.4.5.5.9h-.7c0-.1-.1-.2-.1-.2 0-.1-.1-.1-.2-.2s-.3-.2-.5-.2c-.1 0-.3 0-.4.1-.1.1-.2.1-.2.2 0 0-.1.1-.1.2s0 .1-.1.2v1.6c0 .1 0 .1.1.2 0 .1.1.1.1.2.1.1.1.2.2.2.1.1.2.1.4.1s.4-.1.6-.2c.2-.2.2-.4.2-.6v-.2h-.8zM29.8 67v-4.2h1.6c.2 0 .3 0 .5.1.1.1.3.1.4.2l.2.2c.1.1.1.1.1.2s.1.2.1.2v.3c0 .1 0 .3-.1.4 0 .1-.1.2-.2.3l-.3.3c-.1.1-.2.1-.3.2.2.3.3.6.5.9.2.3.3.6.5.9H32l-.9-1.8h-.8V67h-.5zm.7-3.6v1.2h.9c.2 0 .4-.1.5-.2.1-.1.2-.3.2-.4 0-.1 0-.2-.1-.3 0-.1-.1-.1-.1-.2-.1 0-.1-.1-.2-.1h-1.2zM35.4 64.9v-.6-.4c0-.1 0-.1.1-.2 0-.1.1-.1.1-.2.1-.2.3-.4.5-.5.2-.2.5-.2.9-.2.3 0 .6.1.8.2.2.2.4.3.5.5.1.1.1.3.1.4v2c0 .1 0 .1-.1.2 0 .1-.1.1-.1.2-.1.2-.3.4-.5.5-.1.2-.4.2-.7.2-.3 0-.6-.1-.9-.2-.2-.2-.4-.3-.5-.5 0-.1-.1-.1-.1-.2s0-.1-.1-.2v-.4-.6zm.7 0v.8c0 .1 0 .1.1.2 0 .1.1.1.1.2.1.1.1.2.2.2.1.1.2.1.4.1.1 0 .3 0 .4-.1.1-.1.2-.1.2-.2.1-.1.1-.2.2-.3V65v-.5-.3c0-.1 0-.1-.1-.2 0-.1-.1-.1-.1-.2l-.1-.1-.1-.1c-.1 0-.1 0-.2-.1h-.2c-.1 0-.3 0-.4.1s-.2.1-.2.2c0 0-.1.1-.1.2s0 .1-.1.2v.7zM41.2 62.8c0-.1.1-.1 0 0h.7v2.7c0 .3.1.5.2.6.2.1.4.2.6.2.2 0 .4-.1.6-.2.2-.1.2-.4.2-.6v-2.7h.6v2.8c0 .4-.1.8-.4 1.1-.3.3-.7.4-1.1.4-.4 0-.8-.1-1.1-.4-.3-.3-.4-.6-.4-1.1v-2.8zM47.2 67v-4.2h1.5c.2 0 .3 0 .5.1.2 0 .3.1.5.3l.2.2.2.2c0 .1.1.2.1.3v.3c0 .3-.1.6-.3.9-.2.3-.6.4-1 .4H48V67h-.8zm.7-3.6v1.3h.9c.2 0 .4-.1.5-.2.1-.1.2-.3.2-.4 0-.2-.1-.4-.3-.5-.1-.1-.3-.1-.4-.1h-.9z"/></g></svg>