<svg id="Layer_1" xmlns="http://www.w3.org/2000/svg" xmlns:xlink="http://www.w3.org/1999/xlink" viewBox="0 0 73.7 73.7"><style>.st0{fill:#006989}.st1,.st2{fill:#fff}.st2{fill-rule:evenodd;clip-rule:evenodd}.st3,.st4{clip-path:url(#SVGID_2_);fill:#0c7794}.st4{fill:#fff}</style><path class="st0" d="M-.1-.7h73.7V73H-.1z"/><path class="st1" d="M17.6 58h-2.1v-6.2l-2.1 4H12l-2-4V58H7.9V47.4H10l2.7 5.7 2.8-5.7h2.1z"/><path class="st2" d="M35.1 58h-2.2l-.6-1.9h-3.8l-.6 1.9h-2.2l3.9-10.6h1.6L35.1 58zm-3.3-3.6l-1.3-3.9-1.3 3.9h2.6z"/><path class="st1" d="M50.5 58h-6.9V47.4h2.1v8.7h4.8zM65.9 58H59V47.4h2.1v8.7h4.8z"/><g><defs><path id="SVGID_1_" d="M-.1-.7h73.7V73H-.1z"/></defs><clipPath id="SVGID_2_"><use xlink:href="#SVGID_1_" overflow="visible"/></clipPath><path class="st3" d="M49.3 3.6h16c2 0 3.7 1.6 3.7 3.7v16c0 2-1.6 3.7-3.7 3.7h-16c-2 0-3.7-1.6-3.7-3.7v-16c0-2.1 1.7-3.7 3.7-3.7"/><path class="st4" d="M57 7.7l2.1 5.4 5.2-1.7.3 1.1-4.5 3.6 3.2 4.4-.9.7-4.9-3.2-3.2 4.5-1.1-1 1.7-5.4-5.1-1.6.4-1.3 5.7-.1V7.7z"/></g><g><path class="st1" d="M25.3 64.6V64h1.5v.9c0 .4-.1.8-.4 1.1-.3.3-.7.4-1.1.4-.3 0-.6-.1-.9-.2-.2-.2-.4-.3-.5-.5 0-.1-.1-.1-.1-.2s0-.1-.1-.2v-.4-.6-.6-.4c0-.1 0-.1.1-.2 0-.1.1-.1.1-.2.1-.2.3-.4.5-.5.2-.2.5-.2.9-.2s.7.1 1 .4c.3.2.4.5.5.9h-.7c0-.1-.1-.2-.1-.2 0-.1-.1-.1-.2-.2s-.3-.2-.5-.2c-.1 0-.3 0-.4.1-.1.1-.2.1-.2.2 0 0-.1.1-.1.2s0 .1-.1.2v1.6c0 .1 0 .1.1.2 0 .1.1.1.1.2.1.1.1.2.2.2.1.1.2.1.4.1s.4-.1.6-.2c.2-.2.2-.4.2-.6v-.2h-.8zM29.7 66.3v-4.2h1.6c.2 0 .3 0 .5.1.1.1.3.1.4.2l.2.2c.1.1.1.1.1.2s.1.2.1.2v.3c0 .1 0 .3-.1.4 0 .1-.1.2-.2.3l-.3.3c-.1.1-.2.1-.3.2.2.3.3.6.5.9.2.3.3.6.5.9H32l-.9-1.8h-.8v1.8h-.6zm.7-3.6v1.2h.9c.2 0 .4-.1.5-.2.1-.1.2-.3.2-.4 0-.1 0-.2-.1-.3 0-.1-.1-.1-.1-.2-.1 0-.1-.1-.2-.1h-1.2zM35.3 64.2v-.6-.4c0-.1 0-.1.1-.2 0-.1.1-.1.1-.2.1-.2.3-.4.5-.5.2-.2.5-.2.9-.2.3 0 .6.1.8.2.2.2.4.3.5.5.1.1.1.3.1.4v2c0 .1 0 .1-.1.2s-.1.1-.1.2c-.1.2-.3.4-.5.5-.2.2-.5.2-.8.2-.3 0-.6-.1-.9-.2-.2-.2-.4-.3-.5-.5 0-.1-.1-.1-.1-.2s0-.1-.1-.2v-.4c.1-.2.1-.4.1-.6zm.7 0v.8c0 .1 0 .1.1.2 0 .1.1.1.1.2.1.1.1.2.2.2.1.1.2.1.4.1.1 0 .3 0 .4-.1.1-.1.2-.1.2-.2.1-.1.1-.2.2-.3v-.8-.5-.3c0-.1 0-.1-.1-.2 0-.1-.1-.1-.1-.2l-.1-.1-.1-.1c-.1 0-.1 0-.2-.1h-.2c-.1 0-.3 0-.4.1-.1.1-.2.1-.2.2 0 0-.1.1-.1.2s0 .1-.1.2v.7zM41.1 62.1c0-.1 0-.1 0 0h.7v2.7c0 .3.1.5.2.6.2.1.4.2.6.2.2 0 .4-.1.6-.2.2-.1.2-.4.2-.6v-2.7h.6v2.8c0 .4-.1.8-.4 1.1-.3.3-.7.4-1.1.4-.4 0-.8-.1-1.1-.4-.3-.3-.4-.6-.4-1.1v-2.8zM47.1 66.3v-4.2h1.5c.2 0 .3 0 .5.1.2 0 .3.1.5.3l.2.2.2.2c0 .1.1.2.1.3v.3c0 .3-.1.6-.3.9-.2.3-.6.4-1 .4h-.9v1.6h-.8zm.7-3.6V64h.9c.2 0 .4-.1.5-.2.1-.1.2-.3.2-.4 0-.2-.1-.4-.3-.5-.1-.1-.3-.1-.4-.1h-.9z"/></g></svg>