<svg id="Layer_1" xmlns="http://www.w3.org/2000/svg" xmlns:xlink="http://www.w3.org/1999/xlink" viewBox="0 0 176 87.9"><style>.st0{clip-path:url(#SVGID_2_);fill:url(#SVGID_3_)}.st1{clip-path:url(#SVGID_5_);fill:#fff}.st2,.st3{clip-path:url(#SVGID_7_);fill:none;stroke:#fff;stroke-width:2;stroke-miterlimit:10}.st3{clip-path:url(#SVGID_9_);stroke-width:1.44}.st4{fill:#1399bc}</style><defs><path id="SVGID_1_" d="M117.8 5.8c-15.5.1-30 9.6-35.6 25-7.3 19.8 2.8 41.7 22.6 49s41.7-2.8 49-22.6c1.6-4.3 2.3-8.7 2.4-13v-.4c-.1-15.5-9.6-30-25-35.6-4.3-1.6-8.7-2.3-13-2.4h-.4z"/></defs><clipPath id="SVGID_2_"><use xlink:href="#SVGID_1_" overflow="visible"/></clipPath><linearGradient id="SVGID_3_" gradientUnits="userSpaceOnUse" x1="-224.428" y1="-403.234" x2="-223.428" y2="-403.234" gradientTransform="scale(-76.3346 76.3346) rotate(-20.25 1018.01 -824.002)"><stop offset="0" stop-color="#087ea6"/><stop offset="1" stop-color="#1ba3c3"/></linearGradient><path class="st0" d="M182.5 15.5L84.6-20.6 48.4 77.3l98 36.1z"/><g><defs><path id="SVGID_4_" d="M79.8 5.8h76.4v76.4H79.8z"/></defs><clipPath id="SVGID_5_"><use xlink:href="#SVGID_4_" overflow="visible"/></clipPath><path class="st1" d="M122 47.5c.7 0 1.3-.6 1.3-1.3s-.6-1.3-1.3-1.3-1.3.6-1.3 1.3.6 1.3 1.3 1.3"/><g><defs><path id="SVGID_6_" d="M79.8 5.8h76.4v76.4H79.8z"/></defs><clipPath id="SVGID_7_"><use xlink:href="#SVGID_6_" overflow="visible"/></clipPath><path class="st2" d="M111.9 45.4v-20c0-1.1.9-2 2-2h16c1.1 0 2 .9 2 2v23c0 1.1-.9 2-2 2h-13m-8-1l8-8c1.8-1.8 4.7 2.7 2.5 5.5l-2.5 2.5v3c0 3.9-3.4 4-4 4m-9 9v-4h18v4m-10-27l-5 4c-1.4 1.3-2 2-2 4v15m15 0v-2s3-2.2 3-5v-4"/></g><g><defs><path id="SVGID_8_" d="M79.8 5.8h76.4v76.4H79.8z"/></defs><clipPath id="SVGID_9_"><use xlink:href="#SVGID_8_" overflow="visible"/></clipPath><path class="st3" d="M123.8 30.7l-1.8-2-1.7 2c-.7.7-1.7 1.7-1.7 2.9 0 1.9 1.5 3.4 3.4 3.4s3.4-1.5 3.4-3.4c-.1-1.2-.8-2-1.6-2.9z"/></g></g><g><path class="st4" d="M20.1 24.9c.6.6 1.5 1 2.4 1 1 0 1.6-.5 1.6-1.2s-.6-1-1.4-1.3l-1.2-.6c-.9-.4-1.8-1.1-1.8-2.4 0-1.5 1.3-2.6 3-2.6 1.1 0 2.1.5 2.8 1.1l-.9 1.1c-.6-.5-1.2-.7-1.9-.7-.8 0-1.4.4-1.4 1.1s.6 1 1.5 1.3l1.2.6c1.1.5 1.8 1.1 1.8 2.5 0 1.5-1.2 2.7-3.2 2.7-1.2 0-2.4-.5-3.2-1.3l.7-1.3zM28.7 19.5h-2.6v-1.3h6.8v1.4h-2.6v7.6h-1.6v-7.7zM34.4 18.2h5.4v1.4H36v2.3h3.2v1.4H36V26h4v1.4h-5.5l-.1-9.2zM41.8 18.2h3c1.9 0 3.4.7 3.4 2.8s-1.5 2.9-3.4 2.9h-1.5v3.3h-1.6l.1-9zm2.9 4.4c1.4 0 2-.6 2-1.7s-.6-1.5-2-1.5h-1.3v3.1h1.3v.1zM24.8 64h6.9V43.6H26v-3.5c3-.6 5.2-1.4 7.2-2.6h4.2v26.4h6.1v4.6H24.8V64z"/></g></svg>