<svg id="Layer_1" xmlns="http://www.w3.org/2000/svg" xmlns:xlink="http://www.w3.org/1999/xlink" viewBox="0 0 176 87.9"><style>.st0{clip-path:url(#SVGID_2_);fill:url(#SVGID_3_)}.st1,.st2{clip-path:url(#SVGID_5_);fill:none;stroke:#fff;stroke-width:2;stroke-miterlimit:10}.st2{clip-path:url(#SVGID_7_)}.st3{fill:#1399bc}</style><defs><path id="SVGID_1_" d="M117.8 5.8c-15.5.1-30 9.6-35.6 25-7.3 19.8 2.8 41.7 22.6 49s41.7-2.8 49-22.6c1.6-4.3 2.3-8.7 2.4-13v-.4c-.1-15.5-9.6-30-25-35.6-4.3-1.6-8.7-2.3-13-2.4h-.4z"/></defs><clipPath id="SVGID_2_"><use xlink:href="#SVGID_1_" overflow="visible"/></clipPath><linearGradient id="SVGID_3_" gradientUnits="userSpaceOnUse" x1="-223.502" y1="471.996" x2="-222.502" y2="471.996" gradientTransform="scale(-76.3346) rotate(20.25 1211 855.79)"><stop offset="0" stop-color="#087ea6"/><stop offset="1" stop-color="#1ba3c3"/></linearGradient><path class="st0" d="M182.5 15.5L84.6-20.6 48.4 77.3l98 36.1z"/><g><defs><path id="SVGID_4_" d="M79.8 5.8h76.4v76.4H79.8z"/></defs><clipPath id="SVGID_5_"><use xlink:href="#SVGID_4_" overflow="visible"/></clipPath><path class="st1" d="M118.4 36.4h-4m-9 0h-4m15 0v-7.2c0-3.6-3-6.7-6.5-6.7s-6.5 3.1-6.5 6.7v7.2m33 10h-4m-7 0h-4m13 0v6c0 3-2.5 5.6-5.5 5.6s-5.5-2.6-5.5-5.6v-6m17-5h-23v24h23v-24zm-16-2v-8h-29v34h20"/><g><defs><path id="SVGID_6_" d="M79.8 5.8h76.4v76.4H79.8z"/></defs><clipPath id="SVGID_7_"><use xlink:href="#SVGID_6_" overflow="visible"/></clipPath><path class="st2" d="M109 52.6l-2.5-2.8-2.4 2.7c-.9 1-2.3 2.3-2.3 4 0 2.6 2.1 4.7 4.7 4.7s4.7-2.1 4.7-4.7c0-1.7-1.1-2.8-2.2-3.9z"/></g></g><g><path class="st3" d="M19.5 25.3c.7.7 1.5 1 2.4 1 1 0 1.6-.5 1.6-1.2 0-.8-.6-1-1.4-1.3l-1.2-.6c-.9-.3-1.9-1.1-1.9-2.4 0-1.5 1.3-2.6 3.1-2.6 1.1 0 2.2.5 2.8 1.1l-.9 1.1c-.6-.5-1.2-.8-2-.8s-1.4.4-1.4 1.1.7 1 1.5 1.3l1.2.6c1.1.5 1.9 1.1 1.9 2.5 0 1.5-1.2 2.7-3.3 2.7-1.2 0-2.4-.5-3.3-1.3l.9-1.2zM28.3 19.8h-2.6v-1.3h6.9v1.4H30v7.8h-1.6l-.1-7.9zM34.1 18.5h5.5v1.4h-3.9v2.3H39v1.4h-3.3v2.7h4v1.4h-5.6v-9.2zM41.6 18.5h3.1c2 0 3.5.8 3.5 2.8s-1.5 3-3.5 3h-1.5v3.4h-1.6v-9.2zm3.1 4.5c1.4 0 2.1-.6 2.1-1.7s-.7-1.5-2.1-1.5h-1.3V23h1.3zM22.5 66.5c8.8-8.5 14.4-14.1 14.4-18.9 0-3.4-1.9-5.4-5.3-5.4-2.4 0-4.5 1.6-6.2 3.6l-3.2-3.2c2.9-3.1 5.7-4.9 10.1-4.9 6.1 0 10 3.8 10 9.7 0 5.6-5.3 11.4-11.4 18 1.6-.2 3.8-.4 5.3-.4H44v4.9H22.5v-3.4z"/></g></svg>