<svg id="Layer_1" xmlns="http://www.w3.org/2000/svg" xmlns:xlink="http://www.w3.org/1999/xlink" viewBox="0 0 176 87.9"><style>.st0{clip-path:url(#SVGID_2_);fill:url(#SVGID_3_)}.st1{clip-path:url(#SVGID_5_)}.st1,.st2{fill:none;stroke:#fff;stroke-width:2;stroke-miterlimit:10}.st3{fill:#1399bc}</style><defs><path id="SVGID_1_" d="M117.8 5.7c-15.5.1-30 9.6-35.6 25-7.3 19.8 2.8 41.7 22.6 49s41.7-2.8 49-22.6c1.6-4.3 2.3-8.7 2.4-13v-.4c-.1-15.5-9.6-30-25-35.6-4.3-1.6-8.7-2.3-13-2.4h-.4z"/></defs><clipPath id="SVGID_2_"><use xlink:href="#SVGID_1_" overflow="visible"/></clipPath><linearGradient id="SVGID_3_" gradientUnits="userSpaceOnUse" x1="-223.502" y1="471.996" x2="-222.502" y2="471.996" gradientTransform="scale(-76.3346) rotate(20.25 1210.999 855.79)"><stop offset="0" stop-color="#087ea6"/><stop offset="1" stop-color="#1ba3c3"/></linearGradient><path class="st0" d="M182.5 15.4L84.6-20.7 48.4 77.2l98 36.1z"/><g><defs><path id="SVGID_4_" d="M79.8 5.7h76.4v76.4H79.8z"/></defs><clipPath id="SVGID_5_"><use xlink:href="#SVGID_4_" overflow="visible"/></clipPath><path class="st1" d="M100.6 31.9c3.9-5.3 10.1-8.7 17.2-8.7 11.8 0 21.3 9.6 21.3 21.3 0 9.2-5.8 17-13.9 20m5-19.5h-8v-1.4l3.9-6.6h2.1v12m-8-1h-7v-.9l3-3c.9-.8 1.4-1.5 1.8-1.9.4-.4.6-.9.8-1.3.2-.4.2-.8.2-1.3 0-.6-.4-1.9-2.2-2.3-1.7-.4-3.5.5-4.5 2.1"/></g><path class="st2" d="M107.8 54.3v-13h-6v13h-4l7 9 7-9z"/><g><path class="st3" d="M19.9 26c.6.6 1.5 1 2.4 1 1 0 1.5-.5 1.5-1.2s-.5-1-1.4-1.3l-1.2-.5c-.9-.4-1.8-1.1-1.8-2.4 0-1.5 1.3-2.6 3-2.6 1.1 0 2.1.5 2.7 1.1l-.9 1.1c-.5-.5-1.2-.7-1.9-.7-.8 0-1.4.4-1.4 1.1s.6 1 1.5 1.3l1.2.5c1.1.5 1.8 1.1 1.8 2.5 0 1.5-1.2 2.6-3.2 2.6-1.2 0-2.4-.5-3.2-1.3l.9-1.2zM28.4 20.6h-2.6v-1.3h6.7v1.4h-2.6v7.6h-1.5v-7.7zM34.1 19.4h5.4v1.4h-3.8V23h3.2v1.4h-3.2V27h3.9v1.4h-5.5v-9zM41.4 19.4h3c1.9 0 3.4.7 3.4 2.7S46.3 25 44.4 25h-1.5v3.3h-1.5v-8.9zm2.9 4.3c1.4 0 2-.5 2-1.6s-.6-1.5-2-1.5H43v3.1h1.3zM24.8 61.9c1.8 1.9 4.2 3.4 7.3 3.4 3.4 0 5.7-1.7 5.7-4.6 0-3.2-2-5.2-9-5.2v-4.1c6 0 8-2.1 8-4.9 0-2.6-1.7-4.1-4.6-4.1-2.4 0-4.3 1.2-6.2 2.9l-2.8-3.5c2.6-2.3 5.6-3.8 9.2-3.8 5.9 0 9.9 2.9 9.9 8.1 0 3.5-2 5.7-5.4 7v.2c3.6 1 6.4 3.6 6.4 7.7 0 5.6-4.9 8.9-10.8 8.9-5 0-8.3-1.9-10.4-4.4l2.7-3.6z"/></g></svg>