<svg xmlns="http://www.w3.org/2000/svg" xmlns:xlink="http://www.w3.org/1999/xlink" width="226.772" height="170.079" viewBox="0 0 226.772 170.079"><defs><path id="a" d="M18.746 22.507h188.768v124.587H18.746z"/></defs><clipPath id="b"><use xlink:href="#a" overflow="visible"/></clipPath><path clip-path="url(#b)" fill="none" stroke="#58595B" stroke-width="6" stroke-miterlimit="10" d="M50.365 49.223h59.288M18.745 72.938h67.193m63.24 11.857h27.668v-3.952l-7.905-11.858m-27.668 55.335h15.811m-75.029 3.999c0 8.715-7.094 15.775-15.845 15.775-8.75 0-15.845-7.061-15.845-15.775 0-8.712 7.095-15.771 15.845-15.771 8.751-.001 15.845 7.059 15.845 15.771zm106.648 0c0 8.715-7.094 15.775-15.844 15.775s-15.846-7.061-15.846-15.775c0-8.712 7.096-15.771 15.846-15.771s15.844 7.059 15.844 15.771zM50.365 124.32H30.603M74.08 25.508h67.193v98.812H81.986m59.287-71.145h31.396a7.911 7.911 0 0 1 6.531 3.451l13.455 24.217h3.953c4.445 0 7.904 2.945 7.904 8.746v26.826a7.905 7.905 0 0 1-7.904 7.904h-7.906"/><path clip-path="url(#b)" fill="none" stroke="#58595B" stroke-width="6" stroke-miterlimit="10" d="M120.183 82.611l-7.579-8.607-7.39 8.392c-2.886 3.181-7.096 7.124-7.096 12.411 0 7.955 6.449 14.403 14.404 14.403 7.956 0 14.405-6.448 14.405-14.403 0-5.14-3.361-8.578-6.744-12.196z"/></svg>