<svg id="Layer_1" xmlns="http://www.w3.org/2000/svg" xmlns:xlink="http://www.w3.org/1999/xlink" viewBox="0 0 1200 226.3"><style>.st0{clip-path:url(#SVGID_2_);fill:url(#SVGID_3_)}.st1{clip-path:url(#SVGID_5_);fill:url(#SVGID_6_)}.st2{fill:#184264}</style><defs><path id="SVGID_1_" d="M0 195l1200 68.1V134.4c-10.8 1.3-21.5 1.9-32.2 1.8-115.5-1.8-153.3-80.3-273.8-85.8-56.6-2.6-94 12.7-130 28-37.8 16-74.1 32-129.8 27.5-98.2-8-109.2-67.8-214.6-78.1-52.7-5.1-88.8 6-125.1 17.2-36.4 11.2-73.1 22.4-127 17.2C87.5 54.3 66 19.5 0 0v195z"/></defs><clipPath id="SVGID_2_"><use xlink:href="#SVGID_1_" overflow="visible"/></clipPath><linearGradient id="SVGID_3_" gradientUnits="userSpaceOnUse" y1="625.371" x2="1" y2="625.371" gradientTransform="rotate(176.5 20382.125 638737.275) scale(2042.5632)"><stop offset="0" stop-color="#4195a9"/><stop offset=".088" stop-color="#3d8ea5"/><stop offset=".451" stop-color="#327698"/><stop offset=".767" stop-color="#2b6890"/><stop offset="1" stop-color="#29638d"/></linearGradient><path class="st0" d="M1195.5-73.1L-16 1 4.5 336.2 1216 262.1z"/><g><defs><path id="SVGID_4_" d="M901 39.7c-112.5 1.2-133 86.7-256.9 96-122.2 9.3-152.7-69.6-303.8-80.5-78.3-5.6-129.6 18.9-181.2 43.5-46.3 22-92.7 44-159.1 44.3v91.3h1200V132.7c-14-.4-27.2-1.5-39.6-2.8-119.1-12.5-151-90.1-257-90.1-.8-.1-1.6-.1-2.4-.1"/></defs><clipPath id="SVGID_5_"><use xlink:href="#SVGID_4_" overflow="visible"/></clipPath><linearGradient id="SVGID_6_" gradientUnits="userSpaceOnUse" y1="625.414" x2="1" y2="625.414" gradientTransform="rotate(180 721.47 635944.813) scale(2033.4576)"><stop offset="0" stop-color="#4195a9"/><stop offset=".483" stop-color="#357e9c"/><stop offset="1" stop-color="#29638d"/></linearGradient><path class="st1" d="M0 39.7h1200v194.5H0z"/></g><path class="st2" d="M999 138c-127.6-9.3-160.8 73-294.3 71.2-120.6-1.7-129.4-69.5-257-75.7-134.4-6.5-160.3 67-302.6 63.8-72.5-1.6-107-21.7-145.1-38.6v67.6h1200v-27.4c-94.4-9.4-109.6-54.2-201-60.9z"/></svg>