<svg xmlns="http://www.w3.org/2000/svg" width="2386" height="366" viewBox="0 0 2386 366"><linearGradient id="a" gradientUnits="userSpaceOnUse" x1="883.581" y1="433.934" x2="884.581" y2="433.934" gradientTransform="rotate(-3.5 -13598273.1 29978312.255) scale(2042.5632)"><stop offset="0" stop-color="#1ba3c3"/><stop offset=".128" stop-color="#179bbd"/><stop offset=".464" stop-color="#0f8bb0"/><stop offset=".765" stop-color="#0b81a9"/><stop offset="1" stop-color="#087ea6"/></linearGradient><path fill="url(#a)" d="M19 115.667c187.822 86.728 230.668 107.189 302.368 99.336 92.284-10.104 179.755-61.199 266.012-59.893 115.509 1.751 153.271 80.323 273.808 85.795 56.646 2.571 93.987-12.708 130.049-27.987 37.771-16.005 74.135-32.009 129.805-27.498 98.206 7.959 109.233 67.849 214.574 78.139 52.689 5.145 88.789-6.043 125.117-17.229 36.432-11.22 73.094-22.438 126.953-17.187 93.448 9.114 106.996 55.09 204.972 70.447 68.686 10.763 154.077 2.563 253.817-32.833l8.713-153.416-2.716-.154c-51.54 18.2-95.142 42.002-172.188 43.134-125.415 1.839-134-59.414-265.064-62.318-144.386-3.196-170.678 70.314-307.145 63.784-129.523-6.199-138.422-74.011-260.888-75.687-135.531-1.858-169.311 80.512-298.796 71.166-92.896-6.707-108.214-51.562-204.221-60.923-89.273-8.703-170.198 20.589-231.928 51.643"/><linearGradient id="b" gradientUnits="userSpaceOnUse" x1="883.574" y1="433.99" x2="884.574" y2="433.99" gradientTransform="translate(-1796398.875 -882333.438) scale(2033.4576)"><stop offset="0" stop-color="#1ba3c3"/><stop offset="1" stop-color="#087ea6"/></linearGradient><path fill="url(#b)" d="M1880.283 156.321c-125.415 1.839-134-59.414-265.064-62.318-144.386-3.196-170.678 70.314-307.145 63.784-129.523-6.199-138.422-74.011-260.888-75.687-135.531-1.858-169.311 80.512-298.796 71.166-92.896-6.707-108.214-51.562-204.221-60.923-89.273-8.703-170.198 20.589-231.928 51.643v111.253c121.967-103.129 213.768-101.03 282.57-93.815 120.008 12.585 151.452 91.281 259.342 90.128 112.548-1.202 133.025-86.695 256.856-96.03 122.246-9.217 152.779 69.634 303.864 80.517 78.316 5.64 129.64-18.902 181.221-43.445 52.135-24.806 104.53-49.612 185.322-43.254 129.905 10.227 155.18 87.213 275.794 93.619 114.206 6.071 215.294-55.934 284.62-112.216-41.467-18.598-100.646-38.038-171.593-38.213-127.54-.316-164.184 61.944-289.954 63.791z"/></svg>