<svg id="Layer_1" xmlns="http://www.w3.org/2000/svg" viewBox="0 0 1719.5 249"><style>.st0{fill:#fff}.st1{fill:url(#SVGID_1_)}.st2{fill:url(#SVGID_2_)}</style><path class="st0" d="M0 298.2h1719.5V155.9l-82.2-6.7-286.8-11.2-204-22.8-205.7 10L753.4 78l-168 87-210.9-49.8L243.4 57l-153 43.9L0 149.2z"/><linearGradient id="SVGID_1_" gradientUnits="userSpaceOnUse" x1="-8.679" y1="125.851" x2="1719.293" y2="125.851" gradientTransform="matrix(1 0 0 -1 0 250)"><stop offset="0" stop-color="#1ba3c3"/><stop offset=".128" stop-color="#179bbd"/><stop offset=".464" stop-color="#0f8bb0"/><stop offset=".765" stop-color="#0b81a9"/><stop offset="1" stop-color="#087ea6"/></linearGradient><path class="st1" d="M1719.5 48.5c-46.7 17.5-89.3 37.9-160.6 38.9-125.4 1.8-134-59.4-265.1-62.3-144.4-3.2-170.7 70.3-307.1 63.8-129.5-6.2-138.4-74-260.9-75.7C590.3 11.3 556.5 93.7 427 84.4c-92.9-6.7-108.2-51.6-204.2-60.9C137.8 15.2 60.5 41.3 0 70.7v75.5c47.6-5.2 82.1-51.5 127.6-65.7 42.7-13.3 96.6 5.1 138.4 5.8 115.5 1.8 153.3 80.3 273.8 85.8 56.6 2.6 94-12.7 130-28 37.8-16 74.1-32 129.8-27.5 98.2 8 109.2 67.8 214.6 78.1 52.7 5.1 88.8-6 125.1-17.2 36.4-11.2 73.1-22.4 127-17.2 93.4 9.1 107 55.1 205 70.4 67.4 10.6 150.9 2.9 248.2-30.9V48.5z"/><linearGradient id="SVGID_2_" gradientUnits="userSpaceOnUse" y1="151.959" x2="1722.768" y2="151.959" gradientTransform="matrix(1 0 0 -1 0 250)"><stop offset="0" stop-color="#1ba3c3"/><stop offset="1" stop-color="#087ea6"/></linearGradient><path class="st2" d="M1558.9 87.5c-125.4 1.8-134-59.4-265.1-62.3C1149.4 22 1123.1 95.5 986.7 89c-129.5-6.2-138.4-74-260.9-75.7C590.3 11.4 556.5 93.8 427 84.5c-92.9-6.7-108.2-51.6-204.2-60.9C137.8 15.2 60.5 41.3 0 70.7V179c117.5-95.4 206.4-93.3 273.5-86.3 120 12.6 151.5 91.3 259.3 90.1 112.5-1.2 133-86.7 256.9-96 122.2-9.2 152.8 69.6 303.9 80.5 78.3 5.6 129.6-18.9 181.2-43.4 52.1-24.8 104.5-49.6 185.3-43.3 123.8 9.7 152.6 80.1 259.4 92.2V48.6c-46.7 17.5-89.4 37.9-160.6 38.9z"/></svg>