<svg id="Capa_1" xmlns="http://www.w3.org/2000/svg" viewBox="0 0 292 249"><style>.st0{fill:#fff}</style><path class="st0" d="M256.8 73.1c0-2.6 0-5.1-.2-7.7 11.1-8.2 20.6-18.5 28.2-30.3-10.1 4.6-21 7.6-32.5 8.9 11.7-7.2 20.6-18.7 24.9-32.5-10.9 6.6-23 11.4-35.9 13.8C231 13.6 216.3 6.1 200 5.8c-31.2-.5-56.6 25.9-56.6 58.9 0 4.7.5 9.3 1.5 13.7-47-3-88.7-27.5-116.6-64.4-4.9 8.8-7.7 19.2-7.7 30.3 0 20.9 10 39.6 25.2 50.5-9.3-.4-18-3.2-25.6-7.8v.8c0 29.3 19.5 53.8 45.4 59.5-4.7 1.3-9.8 2-14.9 2-3.7 0-7.2-.4-10.6-1.2 7.2 24 28.1 41.5 52.8 42.1-19.4 16.1-43.8 25.6-70.2 25.6-4.6 0-9.1-.3-13.5-.9 25 17.2 54.8 27.2 86.7 27.2 104 .1 160.9-90.5 160.9-169z"/></svg>